<svg xmlns="http://www.w3.org/2000/svg" width="334" height="340" viewBox="0 0 334 340"><g><g><path fill="#cacfdf" d="M192.44 130.333a5.66 5.66 0 0 1 5.662-5.667h11.325a5.66 5.66 0 0 1 5.662 5.667 5.66 5.66 0 0 1-5.662 5.667h-11.325a5.66 5.66 0 0 1-5.662-5.667zm-12.135 45.333a5.66 5.66 0 0 1 5.663 5.667 5.66 5.66 0 0 1-5.663 5.666h-2.021a31.233 31.233 0 0 1-11.115-2.045 5.679 5.679 0 0 1-3.273-7.316c1.12-2.924 4.41-4.38 7.31-3.275a19.892 19.892 0 0 0 7.09 1.303zm-20.265-38.505c-1.654-2.657-.85-6.154 1.806-7.809a30.695 30.695 0 0 1 12.99-4.498c3.13-.318 5.91 1.904 6.25 5.015a5.674 5.674 0 0 1-5.01 6.255 19.537 19.537 0 0 0-8.234 2.85 5.664 5.664 0 0 1-7.803-1.813zm51 89.506a5.66 5.66 0 0 1 5.663 5.666 5.66 5.66 0 0 1-5.662 5.667l-11.093.022c-.08.006-.158.006-.238.006a5.66 5.66 0 0 1-5.65-5.435c-.125-3.127 2.298-5.768 5.424-5.893.481-.022.962-.033 1.45-.033zM232.078 136a5.66 5.66 0 0 1-5.663-5.667 5.66 5.66 0 0 1 5.663-5.667H243.4a5.66 5.66 0 0 1 5.663 5.667A5.66 5.66 0 0 1 243.4 136zm46.912 90.667a5.66 5.66 0 0 1 5.663 5.666 5.66 5.66 0 0 1-5.663 5.667h-11.324a5.66 5.66 0 0 1-5.663-5.667 5.66 5.66 0 0 1 5.663-5.666zm3.245-39.668H270.91a5.66 5.66 0 0 1-5.662-5.666 5.66 5.66 0 0 1 5.662-5.667h11.325a5.66 5.66 0 0 1 5.662 5.667 5.663 5.663 0 0 1-5.662 5.666zm-54.206 45.334a5.66 5.66 0 0 1 5.662-5.666h11.325a5.66 5.66 0 0 1 5.663 5.666 5.66 5.66 0 0 1-5.663 5.667H233.69a5.663 5.663 0 0 1-5.662-5.667zm20.232-45.334h-11.325a5.66 5.66 0 0 1-5.662-5.666 5.66 5.66 0 0 1 5.662-5.667h11.325a5.66 5.66 0 0 1 5.662 5.667A5.663 5.663 0 0 1 248.26 187zm-33.975-11.333a5.66 5.66 0 0 1 5.663 5.667 5.66 5.66 0 0 1-5.663 5.666h-11.324a5.66 5.66 0 0 1-5.663-5.666 5.66 5.66 0 0 1 5.663-5.667zM139.05 334.333a5.66 5.66 0 0 1-5.662 5.667h-11.325a5.66 5.66 0 0 1-5.663-5.667 5.66 5.66 0 0 1 5.663-5.667h11.325a5.663 5.663 0 0 1 5.662 5.667zm-33.974 0A5.66 5.66 0 0 1 99.412 340H88.087a5.66 5.66 0 0 1-5.662-5.667 5.66 5.66 0 0 1 5.662-5.667h11.325a5.663 5.663 0 0 1 5.663 5.667zm194.197-18.626a31.24 31.24 0 0 1-5.9 12.399 5.643 5.643 0 0 1-4.456 2.164 5.647 5.647 0 0 1-3.494-1.212c-2.463-1.933-2.882-5.497-.951-7.957a19.667 19.667 0 0 0 3.754-7.888 5.66 5.66 0 0 1 6.766-4.284c3.053.686 4.966 3.718 4.281 6.778zm-14.818-19.126a19.87 19.87 0 0 0-6.778-5.519 5.671 5.671 0 0 1-2.548-7.598 5.655 5.655 0 0 1 7.593-2.55 31.389 31.389 0 0 1 10.64 8.658 5.666 5.666 0 0 1-.952 7.956 5.62 5.62 0 0 1-3.493 1.213 5.674 5.674 0 0 1-4.462-2.16zM257.965 289H246.64a5.66 5.66 0 0 1-5.662-5.667 5.66 5.66 0 0 1 5.662-5.667h11.325a5.66 5.66 0 0 1 5.662 5.667 5.663 5.663 0 0 1-5.662 5.667zm16.778 45.328c0 3.133-2.333 5.666-5.465 5.666v-5.666l-.164 5.666-11.16.006a5.66 5.66 0 0 1-5.663-5.667 5.66 5.66 0 0 1 5.663-5.667h10.928c3.131 0 5.86 2.534 5.86 5.662zM334 206.878c0 2.942-.425 5.893-1.257 8.744a5.663 5.663 0 0 1-7.027 3.847 5.666 5.666 0 0 1-3.845-7.031c.532-1.814.804-3.695.804-5.6.011-1.093-.08-2.119-.238-3.128a5.662 5.662 0 0 1 4.694-6.493c3.075-.51 5.99 1.603 6.49 4.697.265 1.66.39 3.332.379 4.964zm-179.934-37.417a5.67 5.67 0 0 1-5.38-3.898 31.216 31.216 0 0 1-1.545-9.736c.005-1.348.09-2.652.249-3.932.385-3.095 3.125-5.27 6.325-4.913 3.103.385 5.3 3.224 4.909 6.33a22.242 22.242 0 0 0-.159 2.543c0 2.097.334 4.177.986 6.166a5.678 5.678 0 0 1-3.613 7.157 5.488 5.488 0 0 1-1.772.283zm166.44 18.133a5.664 5.664 0 0 1-7.74 2.058 19.48 19.48 0 0 0-8.324-2.596 5.663 5.663 0 0 1-5.204-6.091c.244-3.128 2.979-5.435 6.087-5.208a30.781 30.781 0 0 1 13.12 4.091c2.707 1.576 3.63 5.044 2.061 7.746zm-2.588 40.568a5.664 5.664 0 0 1-3.029 7.418 30.893 30.893 0 0 1-12.033 2.42h-1.217a5.66 5.66 0 0 1-5.662-5.667 5.66 5.66 0 0 1 5.662-5.666h1.217c2.656 0 5.227-.517 7.656-1.536 2.86-1.213 6.2.147 7.406 3.031zm-142.012 30.532a5.672 5.672 0 0 1-5.566-6.737 31.067 31.067 0 0 1 5.509-12.592 5.666 5.666 0 0 1 7.916-1.207 5.67 5.67 0 0 1 1.206 7.922 19.695 19.695 0 0 0-3.505 8.007 5.699 5.699 0 0 1-5.56 4.607zm12.083 27.49a31.363 31.363 0 0 1-10.911-8.313 5.665 5.665 0 0 1 .69-7.985 5.656 5.656 0 0 1 7.979.692 20.037 20.037 0 0 0 6.953 5.303c2.843 1.298 4.088 4.658 2.792 7.509a5.661 5.661 0 0 1-5.153 3.31c-.787 0-1.585-.171-2.35-.517zm-14.966 48.15a5.66 5.66 0 0 1-5.662 5.666h-11.325a5.66 5.66 0 0 1-5.662-5.667 5.66 5.66 0 0 1 5.662-5.667h11.325a5.663 5.663 0 0 1 5.662 5.667zm33.975 0a5.66 5.66 0 0 1-5.663 5.666h-11.324a5.66 5.66 0 0 1-5.663-5.667 5.66 5.66 0 0 1 5.663-5.667h11.324a5.663 5.663 0 0 1 5.663 5.667zM223.99 289h-11.325a5.66 5.66 0 0 1-5.663-5.667 5.66 5.66 0 0 1 5.663-5.667h11.325a5.66 5.66 0 0 1 5.662 5.667 5.663 5.663 0 0 1-5.662 5.667zm16.981 45.333A5.66 5.66 0 0 1 235.31 340h-11.325a5.66 5.66 0 0 1-5.662-5.667 5.66 5.66 0 0 1 5.662-5.667h11.325a5.663 5.663 0 0 1 5.662 5.667zM116.15 271.297l-48.283 54.587-48.283-54.587c-26.115-29.53-26.115-77.565 0-107.095 12.854-14.534 30-22.535 48.283-22.535 18.284 0 35.43 8 48.289 22.535 26.115 29.53 26.115 77.566-.006 107.095zm-14.309-61.63c0-18.752-15.237-34-33.974-34-18.737 0-33.974 15.248-33.974 34 0 18.75 15.237 34 33.974 34 18.737 0 33.974-15.25 33.974-34zM236.544 97.584c-19.688-22.213-19.688-58.344 0-80.557C246.284 6.046 259.284 0 273.146 0c13.867 0 26.868 6.046 36.607 17.028 19.694 22.213 19.694 58.344 0 80.557l-36.601 41.288zm6.857-43.752c0 17.182 13.975 31.167 31.144 31.167 17.168 0 31.143-13.985 31.143-31.167 0-17.181-13.975-31.166-31.143-31.166-17.169 0-31.144 13.985-31.144 31.166z"/></g></g></svg>