<svg width="256" height="256" xmlns="http://www.w3.org/2000/svg" preserveAspectRatio="xMidYMid meet">

 <g>
  <title>background</title>
  <rect fill="none" id="canvas_background" height="402" width="582" y="-1" x="-1"/>
 </g>
 <g>
  <title>Layer 1</title>
  <g id="svg_1" fill="#000000" transform="translate(0,256) scale(0.10000000149011612,-0.10000000149011612) ">
   <path fill="#ed0e3e" id="svg_2" d="m1140,2547c-46,-15 -217,-179 -241,-232c-23,-49 -24,-123 -3,-173c10,-24 102,-124 265,-287c137,-138 249,-254 249,-258c0,-4 -270,-7 -601,-7c-423,0 -607,-3 -622,-11c-46,-24 -88,-74 -102,-123c-20,-67 -20,-285 0,-352c14,-49 56,-99 102,-123c15,-8 199,-11 622,-11c331,0 601,-3 601,-7c0,-4 -112,-120 -249,-258c-163,-163 -255,-263 -265,-287c-21,-50 -20,-124 3,-173c10,-22 59,-80 112,-131c75,-72 104,-93 142,-103c52,-15 99,-11 149,13c19,9 288,272 600,584c515,515 567,571 578,612c15,55 7,122 -19,164c-11,17 -273,283 -583,592c-483,482 -569,562 -604,572c-49,14 -87,14 -134,-1z"/>
  </g>
 </g>
</svg>