<svg xmlns="http://www.w3.org/2000/svg" xmlns:xlink="http://www.w3.org/1999/xlink" xmlns:xodm="http://www.corel.com/coreldraw/odm/2003" xml:space="preserve" width="84.6666mm" height="15.3783mm" style="shape-rendering:geometricPrecision; text-rendering:geometricPrecision; image-rendering:optimizeQuality; fill-rule:evenodd; clip-rule:evenodd" viewBox="0 0 7906.84 1436.15">
 <defs>
  <style type="text/css">
   <![CDATA[
    .fil1 {fill:#FEFEFE}
    .fil0 {fill:#294594}
    .fil2 {fill:#FEFEFE;fill-rule:nonzero}
   ]]>
  </style>
 </defs>
 <g id="Layer_x0020_1">
  <metadata id="CorelCorpID_0Corel-Layer"></metadata>
  <polygon class="fil0" points="-0.01,1305.76 6934.57,1305.76 7906.85,0 972.27,0 "></polygon>
  <path class="fil1" d="M116.27 1251.82l6782.35 0 891.95 -1197.88 -6782.35 0 -891.95 1197.88zm75.6 -35.08l6683.39 0 839.72 -1127.73 -6683.39 0 -839.72 1127.73z"></path>
  <path class="fil1" d="M688.61 1113.53l656.89 0 67.12 -86.11 -656.89 0 -67.12 86.11zm748.87 -118.01l54.7 -70.17 -656.89 0 -54.69 70.17 656.88 0zm79.56 -102.07l67.12 -86.12 -656.88 0 -67.12 86.12 656.88 0z"></path>
  <path class="fil1" d="M5841.54 1113.53l656.88 0 67.12 -86.11 -656.89 0 -67.11 86.11zm748.87 -118.01l54.69 -70.17 -656.88 0 -54.7 70.17 656.89 0zm79.56 -102.07l67.12 -86.12 -656.89 0 -67.12 86.12 656.89 0z"></path>
  <polygon class="fil1" points="748.21,643.36 7170.16,643.36 7155.96,662.39 734.03,662.39 "></polygon>
  <path class="fil2" d="M1655.1 1126.64l-98.68 0 212.02 -278.74c12.83,-16.87 28.07,-29.04 45.74,-36.54 19.87,-8.43 42.76,-12.64 68.68,-12.64l248.93 0c47.84,0 77.5,6.56 88.96,19.67 14.29,15.93 5.65,44.67 -25.95,86.21 -33.73,44.35 -71.75,74.33 -114.03,89.94 -29.01,10.63 -59.7,15.93 -92.1,15.93l-245.2 0 -88.37 116.18zm125.78 -165.37l187.63 0c31.4,0 55.92,-4.06 73.56,-12.19 17.63,-8.12 34.77,-23.1 51.4,-44.97 16.62,-21.86 21.81,-36.86 15.52,-44.98 -6.27,-7.5 -23.85,-11.24 -52.75,-11.24l-159.24 0c-10.95,0 -19.75,1.4 -26.37,4.21 -6.62,2.81 -12.78,7.97 -18.48,15.47l-71.27 93.7zm959.47 -166.31c21.43,0 38.57,0.23 51.42,0.7 12.85,0.48 29.28,1.64 49.28,3.52 20.01,1.87 36.77,5.39 50.3,10.53 13.51,5.16 23.92,11.79 31.2,19.91 20.84,24.36 6.8,68.71 -42.14,133.05 -48.94,64.34 -102.36,108.69 -160.26,133.05 -19.14,8.12 -39.51,14.76 -61.12,19.91 -21.61,5.16 -43.97,8.67 -67.07,10.54 -23.1,1.87 -41.44,3.04 -55.01,3.51 -13.56,0.47 -30.8,0.7 -51.74,0.7 -21.94,0 -39.32,-0.23 -52.19,-0.7 -12.84,-0.47 -29.15,-1.64 -48.9,-3.51 -19.75,-1.88 -36.39,-5.39 -49.93,-10.54 -13.51,-5.16 -23.93,-11.79 -31.2,-19.91 -8.04,-8.43 -12.08,-18.35 -12.14,-29.74 -0.05,-11.4 3.41,-23.97 10.38,-37.72 6.96,-13.74 13.28,-24.82 18.95,-33.26 5.67,-8.43 13.49,-19.21 23.47,-32.33 10.45,-13.74 19.98,-25.61 28.57,-35.6 8.6,-9.99 19.65,-21.4 33.11,-34.2 13.49,-12.81 28.62,-24.52 45.43,-35.14 16.8,-10.62 35.01,-19.99 54.65,-28.11 20.12,-8.12 40.74,-14.76 61.86,-19.91 21.11,-5.15 42.98,-8.67 65.58,-10.53 22.61,-1.88 40.69,-3.04 54.26,-3.52 13.57,-0.47 31.3,-0.7 53.24,-0.7zm-295.03 167.72c-32.31,42.48 -44.01,72.62 -35.13,90.42 5.17,11.55 16.6,19.13 34.3,22.72 17.7,3.6 43.5,5.39 77.39,5.39 19.43,0 35.81,-0.39 49.09,-1.17 13.31,-0.78 30.1,-3.36 50.36,-7.73 20.27,-4.37 38.86,-10.78 55.73,-19.21 35.24,-17.49 69.13,-47.63 101.67,-90.42 33.02,-43.41 45.1,-73.7 36.23,-90.89 -4.3,-8.12 -13.37,-14.36 -27.24,-18.73 -13.87,-4.38 -26.75,-6.95 -38.61,-7.73 -11.86,-0.78 -27.51,-1.17 -46.95,-1.17 -19.94,0 -36.43,0.38 -49.49,1.17 -13.06,0.78 -29.52,3.28 -49.44,7.5 -19.89,4.21 -38.28,10.53 -55.17,18.97 -35.71,17.49 -69.98,47.79 -102.76,90.89zm517.65 114.78l364.94 -247.83c16.52,-11.24 33.02,-19.83 49.5,-25.77 16.46,-5.93 36.66,-8.9 60.6,-8.9 22.41,0 37.78,2.74 46.09,8.2 8.3,5.46 12.05,14.29 11.26,26.47l-12.82 247.83 44.1 0 -37.42 49.19 -607.77 0 37.41 -49.19 44.11 0zm409.24 -212.69l-308.31 212.69 317.72 0 15.26 -212.69c-0.25,-6.87 -1.62,-10.31 -4.11,-10.31 -5,0 -11.84,3.44 -20.55,10.31zm1006.56 -66.05l-249.44 327.93 -98.67 0 109.75 -144.29 -272.11 0 -109.76 144.29 -98.68 0 249.44 -327.93 98.68 0 -102.27 134.45 272.11 0 102.27 -134.45 98.68 0zm471.38 327.93l-98.68 0 192.58 -249.23c5.46,-7.18 5.69,-10.78 0.71,-10.78 -2.99,0 -13.27,5.01 -30.84,15l-381 217.84c-11.48,6.57 -20.74,11.56 -27.84,15 -7.11,3.44 -17.88,6.95 -32.32,10.53 -14.45,3.6 -29.87,5.39 -46.33,5.39 -17.45,0 -30.47,-1.87 -39.09,-5.62 -8.61,-3.74 -12.42,-9.06 -11.43,-15.92 0.99,-6.87 2.65,-12.65 4.96,-17.33 2.33,-4.69 6.1,-10.47 11.32,-17.33l209.53 -275.47 98.68 0 -188.26 244.55c-7.59,9.99 -8.4,14.99 -2.43,14.99 3,0 10.35,-3.44 22.05,-10.31l375.45 -216.44c24.64,-14.05 45.4,-23.66 62.28,-28.81 16.88,-5.16 34.54,-7.73 52.98,-7.73 53.33,0 65.03,19.68 35.1,59.03l-207.4 272.66zm222.95 0l249.44 -327.93 98.68 0 -249.44 327.93 -98.68 0zm500.87 0l-124.84 0 -119.45 -126.02c-13.47,-13.75 -14.74,-27.8 -3.81,-42.16 9.74,-12.8 28.6,-25.14 56.57,-37.01l291.45 -122.74 121.86 0 -328.03 134.45c-26.76,10.93 -42.4,19.36 -46.92,25.3 -5.46,7.18 -1.84,17.17 10.85,29.98l142.31 138.2z"></path>
  <path class="fil2" d="M947.15 533.08l333.25 -232.98c15.95,-11.11 30.34,-18.77 43.17,-22.96 12.86,-4.2 28.55,-6.29 47.06,-6.29 17.73,0 29.98,2.16 36.75,6.48 6.76,4.31 9.74,11.92 8.97,22.78l-21.17 232.98 -82.15 0 7.3 -65.56 -199.2 0 -91.83 65.56 -82.16 0zm368.84 -205.95l-148.26 105.57 158.99 0 12.92 -105.57c0.7,-7.15 -0.5,-10.74 -3.67,-10.74 -3.14,0 -9.82,3.59 -19.99,10.74zm456.22 -53.33l203.34 0c33.89,0 54.97,5.18 63.23,15.56 8.87,11.11 3.46,29.63 -16.26,55.56 -14.08,18.52 -31.29,32.6 -51.62,42.23 -17.22,8.14 -33.61,12.59 -49.16,13.34l-1.12 1.48c18.15,0.99 29.86,5.56 35.09,13.71 6.25,8.89 1.01,24.32 -15.72,46.3 -6,7.9 -11.05,14.14 -15.1,18.71 -4.07,4.57 -10.55,10.37 -19.46,17.41 -8.89,7.03 -19.06,13.15 -30.48,18.33 -11.44,5.18 -22.86,9.08 -34.3,11.67 -11.42,2.59 -20.43,4.07 -27.02,4.45 -6.58,0.36 -15.59,0.55 -27.02,0.55l-198.01 0c-0.4,0 -3.16,0 -8.28,0 -5.12,0 -8.17,0 -9.15,0 -0.98,0 -3.46,-0.12 -7.41,-0.37 -3.96,-0.24 -6.68,-0.55 -8.16,-0.92 -1.49,-0.36 -3.44,-0.92 -5.83,-1.66 -2.38,-0.75 -4.31,-1.73 -5.72,-2.97 -1.43,-1.23 -2.68,-2.71 -3.72,-4.45 -4.4,-6.66 -2.45,-15.43 5.82,-26.3l140.87 -185.2c8.64,-11.36 19.74,-20.25 33.28,-26.67 14.91,-7.16 32.21,-10.74 51.91,-10.74zm-61.55 108.9l151.32 0c21.28,0 37.82,-3.09 49.61,-9.26 9.28,-4.45 18.91,-13.21 28.88,-26.3 9.95,-13.08 12.47,-22.35 7.53,-27.78 -4.1,-4.45 -15.22,-6.66 -33.36,-6.66l-127.66 0c-9.07,0 -15.73,0.98 -19.99,2.96 -5.43,2.47 -10.11,6.29 -14.05,11.48l-42.27 55.57zm-29.58 38.89l-40.58 53.34c-5.82,7.66 -8.1,12.72 -6.81,15.18 1.87,2.72 9.32,4.07 22.31,4.07l122.95 0c22.07,0 39.59,-3.08 52.55,-9.25 11.23,-5.44 21.44,-14.2 30.64,-26.3 9.21,-12.1 12.92,-20.87 11.14,-26.3 -2.82,-7.16 -14.09,-10.75 -33.79,-10.75l-158.41 0zm567.28 111.5l-78.03 0 167.63 -220.39 -161.36 0 29.59 -38.9 401.35 0 -29.59 38.9 -161.96 0 -167.63 220.39zm685.46 -262.24c16.95,0 30.51,0.18 40.67,0.55 10.15,0.37 23.14,1.3 38.95,2.78 15.82,1.48 29.09,4.26 39.77,8.33 10.7,4.07 18.91,9.32 24.66,15.75 16.49,19.26 5.39,54.32 -33.3,105.19 -38.69,50.87 -80.94,85.94 -126.72,105.19 -15.13,6.43 -31.23,11.67 -48.32,15.75 -17.1,4.07 -34.77,6.85 -53.03,8.33 -18.29,1.48 -32.77,2.41 -43.5,2.78 -10.73,0.36 -24.36,0.55 -40.91,0.55 -17.33,0 -31.08,-0.19 -41.25,-0.55 -10.16,-0.37 -23.05,-1.3 -38.67,-2.78 -15.62,-1.48 -28.76,-4.26 -39.47,-8.33 -10.69,-4.07 -18.92,-9.32 -24.67,-15.75 -6.36,-6.67 -9.54,-14.5 -9.59,-23.52 -0.05,-9.01 2.69,-18.96 8.19,-29.82 5.52,-10.87 10.51,-19.63 14.99,-26.3 4.47,-6.67 10.66,-15.18 18.56,-25.56 8.26,-10.86 15.79,-20.25 22.59,-28.15 6.81,-7.91 15.52,-16.92 26.19,-27.05 10.66,-10.12 22.62,-19.39 35.91,-27.78 13.28,-8.4 27.68,-15.8 43.2,-22.22 15.92,-6.43 32.23,-11.67 48.92,-15.75 16.69,-4.07 33.97,-6.85 51.85,-8.33 17.87,-1.48 32.17,-2.41 42.9,-2.78 10.73,-0.37 24.76,-0.55 42.08,-0.55zm-233.25 132.6c-25.54,33.58 -34.81,57.41 -27.77,71.49 4.07,9.13 13.11,15.12 27.1,17.97 14,2.84 34.39,4.26 61.2,4.26 15.36,0 28.32,-0.31 38.82,-0.92 10.52,-0.63 23.8,-2.66 39.82,-6.12 16.03,-3.46 30.72,-8.52 44.06,-15.18 27.86,-13.83 54.64,-37.65 80.38,-71.49 26.1,-34.32 35.66,-58.27 28.65,-71.86 -3.39,-6.42 -10.57,-11.36 -21.54,-14.81 -10.95,-3.46 -21.13,-5.5 -30.51,-6.12 -9.39,-0.62 -21.76,-0.92 -37.12,-0.92 -15.76,0 -28.82,0.31 -39.14,0.92 -10.32,0.62 -23.34,2.6 -39.08,5.93 -15.74,3.33 -30.27,8.33 -43.61,15 -28.25,13.83 -55.34,37.78 -81.26,71.86zm596.03 129.64l-78.03 0 167.64 -220.39 -161.36 0 29.59 -38.9 401.34 0 -29.59 38.9 -161.95 0 -167.63 220.39zm628.44 0l-268.94 0c-22.46,0 -36.15,-2.72 -41.08,-8.15 -5.55,-6.17 -2.97,-16.3 7.73,-30.37l139.75 -183.72c8.64,-11.36 20.22,-20.37 34.75,-27.04 14.92,-6.67 34,-10 57.25,-10l265.4 0 -29.59 38.9 -223.43 0c-9.85,0 -17.88,1.23 -24.08,3.7 -6.22,2.47 -11.59,6.67 -16.1,12.6l-39.72 52.22 245.29 0 -29.59 38.9 -245.29 0 -46.21 60.75c-3.57,4.69 -4.12,8.02 -1.68,9.99 1.85,2.22 9.87,3.33 24.06,3.33l221.06 0 -29.59 38.9zm516.74 0l-92.22 0 -36.71 -97.05 -184.35 97.05 -92.2 0 258.41 -131.49 -56.47 -127.79 92.2 0 34.81 93.34 176.81 -93.34 92.19 0 -250.87 127.79 58.4 131.49zm553.94 0l-358.77 0c-22.86,0 -37.14,-2.47 -42.83,-7.41 -6.95,-6.43 -5.15,-16.55 5.37,-30.38l168.48 -221.5 78.02 0 -152.15 200.02c-6.95,9.13 -9.89,14.57 -8.84,16.3 1.48,2.72 8.13,4.07 19.96,4.07l185.59 0 167.63 -220.39 78.03 0 -167.63 220.39 56.73 0 -29.59 38.9zm466.5 0l-268.94 0c-22.46,0 -36.16,-2.72 -41.08,-8.15 -5.55,-6.17 -2.97,-16.3 7.73,-30.37l139.75 -183.72c8.64,-11.36 20.22,-20.37 34.75,-27.04 14.92,-6.67 34,-10 57.25,-10l265.4 0 -29.59 38.9 -223.43 0c-9.85,0 -17.88,1.23 -24.08,3.7 -6.22,2.47 -11.58,6.67 -16.09,12.6l-39.72 52.22 245.28 0 -29.59 38.9 -245.28 0 -46.21 60.75c-3.57,4.69 -4.13,8.02 -1.69,9.99 1.86,2.22 9.88,3.33 24.07,3.33l221.06 0 -29.59 38.9zm726.95 -259.28l-197.22 259.28 -78.02 0 86.78 -114.08 -215.16 0 -86.78 114.08 -78.02 0 197.22 -259.28 78.02 0 -80.86 106.3 215.16 0 80.86 -106.3 78.02 0zm177.06 259.28l-78.03 0 167.63 -220.39 -161.36 0 29.59 -38.9 401.34 0 -29.59 38.9 -161.96 0 -167.63 220.39zm374.87 0l-78.02 0 167.63 -220.39c10.15,-13.34 22.2,-22.97 36.17,-28.89 15.71,-6.67 33.81,-10 54.3,-10l196.83 0c37.82,0 61.26,5.18 70.32,15.56 11.3,12.59 4.46,35.31 -20.52,68.15 -26.67,35.07 -56.71,58.77 -90.14,71.11 -22.95,8.4 -47.23,12.6 -72.83,12.6l-193.87 0 -69.87 91.86zm99.46 -130.75l148.37 0c24.82,0 44.21,-3.21 58.15,-9.63 13.95,-6.43 27.49,-18.28 40.64,-35.56 13.15,-17.29 17.23,-29.14 12.26,-35.56 -4.94,-5.92 -18.85,-8.88 -41.71,-8.88l-125.89 0c-8.68,0 -15.63,1.11 -20.86,3.32 -5.24,2.22 -10.11,6.3 -14.62,12.22l-56.35 74.08z"></path>
  <path class="fil2" d="M4841.73 1378.36l-50.46 36.01c-4.28,3.07 -9.26,4.6 -14.94,4.6 -5.68,0 -8.27,-1.53 -7.79,-4.6l5.21 -36.01c0.14,-0.77 -0.01,-1.15 -0.46,-1.15 -0.66,0 -1.23,0.31 -1.73,0.94l-30.32 40.19 -19.55 0 37.32 -48.15c2.01,-2.59 5,-4.56 8.94,-5.91 3.95,-1.36 8.1,-2.05 12.43,-2.05 7.47,0 10.94,1.99 10.41,5.97l-4.96 35.27c-0.24,1.47 0.02,2.2 0.79,2.2 0.79,0 2.2,-0.74 4.21,-2.2l49.73 -35.27c5.65,-3.98 12.22,-5.97 19.66,-5.97 4.35,0 7.45,0.68 9.28,2.05 1.84,1.35 1.76,3.32 -0.24,5.91l-37.33 48.15 -19.54 0 31.99 -40.19c0.54,-0.7 0.47,-1.05 -0.2,-1.05 -0.34,0 -1.15,0.41 -2.47,1.25zm139.95 -15.49l-109.76 73.28 -19.87 0 27.48 -18.01 3.44 -55.28 20.71 0 -4.4 42.08 62.53 -42.08 19.86 0zm-53.37 55.48l75.84 -51.5c4.6,-3.07 10.14,-4.6 16.6,-4.6 6.47,0 9.62,1.53 9.46,4.6l-4.02 51.5 -20.04 0 5.96 -42.81c0.15,-1.06 0,-1.58 -0.45,-1.58 -0.45,0 -1.4,0.52 -2.89,1.58l-60.41 42.81 -20.05 0zm148.89 -55.48l19.56 0 -16.31 21.04 39.92 0c7.12,0 11.54,1.4 13.27,4.19 1.75,2.79 0.19,7.32 -4.69,13.61 -5.14,6.63 -10.92,11.2 -17.32,13.71 -4.95,1.95 -11.39,2.93 -19.3,2.93l-44.93 0c-4.35,0 -7.12,-0.66 -8.31,-1.99 -1.2,-1.33 -0.64,-3.49 1.68,-6.49l36.43 -47zm-4.06 30.46l-9.08 11.72c-1.2,1.54 -1.6,2.55 -1.2,3.04 0.47,0.55 1.7,0.83 3.71,0.83l25.56 0c4.11,0 7.46,-0.59 10.07,-1.77 2.42,-1.12 4.78,-3.18 7.12,-6.18 2.21,-2.86 2.95,-4.81 2.21,-5.86 -0.77,-1.19 -2.97,-1.78 -6.64,-1.78l-31.74 0zm103.03 25.02l-19.54 0 35.7 -46.06 -33.25 0 7.3 -9.42 86.03 0 -7.3 9.42 -33.25 0 -35.7 46.06zm129.61 0l-19.55 0 31.27 -39.47c0.05,-0.07 0.16,-0.21 0.32,-0.42 0.22,-0.28 0.36,-0.47 0.45,-0.57 0.07,-0.1 0.09,-0.21 -0.01,-0.32 -0.08,-0.1 -0.3,-0.16 -0.63,-0.16 -0.55,0 -1.72,0.49 -3.47,1.47l-66.59 35.69c-2.91,1.61 -5.54,2.75 -7.9,3.41 -2.34,0.66 -5.07,0.99 -8.2,0.99 -8.57,0 -10.83,-2.61 -6.78,-7.84l37.41 -48.26 19.55 0 -31.43 39.47c-0.76,0.98 -0.69,1.47 0.19,1.47 0.57,0 1.72,-0.49 3.48,-1.47l67.58 -36.32c4.73,-2.52 9.71,-3.77 14.95,-3.77 1.1,0 2.14,0.07 3.08,0.21 0.95,0.14 2.09,0.44 3.41,0.9 1.32,0.45 1.98,1.33 1.98,2.61 0,1.29 -0.73,2.88 -2.19,4.76l-36.93 47.63zm145.53 -63.85l-38.58 0c-8.13,0 -14.46,0.91 -18.98,2.72 -4.87,1.95 -8.47,4.6 -10.85,7.96l29.73 0c14.14,0 21.95,2.72 23.4,8.16 1.04,3.7 -1.61,9.63 -7.94,17.8 -6.99,9 -14.08,15.49 -21.28,19.47 -3.52,1.95 -7.13,3.54 -10.87,4.76 -3.74,1.21 -7.66,2.07 -11.77,2.56 -4.1,0.49 -7.47,0.78 -10.11,0.89 -2.65,0.11 -6.14,0.16 -10.49,0.16 -4.35,0 -7.72,-0.05 -10.15,-0.16 -2.43,-0.1 -5.4,-0.4 -8.91,-0.89 -3.53,-0.49 -6.23,-1.39 -8.09,-2.72 -1.87,-1.33 -2.99,-3.04 -3.37,-5.14 -0.52,-3.2 1.71,-8.02 6.68,-14.44l22.4 -28.89c4.16,-5.37 9.19,-9.77 15.06,-13.19 9.73,-5.66 20.99,-8.48 33.8,-8.48l47.61 0 -7.3 9.42zm-75.71 20.1l-17.2 22.19c-2.87,3.7 -3.63,6.63 -2.32,8.8 1.63,2.64 6.44,3.97 14.47,3.97 7.58,0 14.12,-1.11 19.64,-3.34 5.85,-2.37 11.52,-7.12 17.04,-14.24 4.98,-6.42 6.91,-10.85 5.8,-13.29 -1.23,-2.73 -5.26,-4.08 -12.04,-4.08l-25.39 0zm64.96 43.75l-13.79 17.8 -19.56 0 50.16 -64.7c2.26,-2.92 5.69,-5.19 10.29,-6.8 3.48,-1.19 7.61,-1.78 12.39,-1.78l30.91 0c11.13,0 18.25,2.03 21.36,6.07 3.08,4.05 0.9,10.89 -6.57,20.52 -7.57,9.77 -15.32,16.75 -23.23,20.94 -10.01,5.3 -22.42,7.96 -37.23,7.96l-24.73 0zm7.3 -9.42l22.23 0c7.79,0 14.67,-1.71 20.68,-5.13 4.17,-2.23 8.83,-6.67 13.97,-13.3 4.38,-5.65 6.7,-9.63 6.91,-11.93 0.35,-4.19 -3.7,-6.29 -12.16,-6.29l-19.21 0c-0.78,0 -1.86,0.24 -3.26,0.74 -1.31,0.55 -2.24,1.19 -2.78,1.88l-26.37 34.02zm149.71 9.42l-49.12 0c-3.78,0 -6.89,-0.12 -9.31,-0.36 -2.44,-0.24 -4.9,-0.91 -7.4,-1.99 -2.5,-1.08 -4.15,-2.63 -4.91,-4.66 -1.31,-3.77 1.79,-10.51 9.31,-20.2 4.7,-6.07 9.07,-10.87 13.08,-14.4 4.01,-3.52 9.17,-6.47 15.47,-8.84 9.15,-3.48 21.54,-5.23 37.12,-5.23 13.48,0 22.3,1.19 26.48,3.56 5.8,3.28 5.32,9.28 -1.44,18.01 -2.98,3.84 -6.53,6.63 -10.67,8.38 -3.3,1.39 -7.01,2.09 -11.14,2.09l-51.44 0c-2.44,3.14 -4.03,5.69 -4.76,7.64 -0.93,2.65 -0.19,4.42 2.25,5.29 2.45,0.87 5.95,1.31 10.52,1.31l43.26 0 -7.3 9.42zm-36.66 -33.08l40.6 0c2.89,0 5.17,-1.08 6.85,-3.25 2.43,-3.14 2.46,-5.61 0.07,-7.42 -2.26,-1.68 -7.19,-2.51 -14.76,-2.51 -8.92,0 -16.04,1.21 -21.38,3.66 -2.59,1.19 -4.61,2.43 -6.06,3.72 -1.44,1.29 -3.04,2.98 -4.76,5.07 -0.27,0.35 -0.47,0.6 -0.57,0.74zm134.87 33.08l-19.54 0 18.5 -23.87 -42.26 0 -18.51 23.87 -19.55 0 43.01 -55.48 19.56 0 -17.21 22.2 42.27 0 17.2 -22.2 19.54 0 -43.01 55.48zm23.34 -9.42l59.53 -41.24c5.28,-3.63 11.46,-5.44 18.58,-5.44 7.01,0 10.36,1.81 9.98,5.44l-4.24 41.24 7.85 0 -7.3 9.42 -99.73 0 7.3 -9.42 8.02 0zm66.78 -34.44l-47.74 34.44 45.77 0 5.47 -34.44c0.1,-0.97 -0.09,-1.46 -0.53,-1.46 -0.66,0 -1.66,0.49 -2.97,1.46zm73.6 -6.38c9.71,-3.91 23.15,-5.86 40.29,-5.86 17.15,0 27.56,1.95 31.2,5.86 4.11,4.46 2.13,11.9 -5.92,22.29 -8.17,10.54 -17.8,18.08 -28.88,22.61 -9.88,3.98 -23.33,5.97 -40.37,5.97 -16.92,0 -27.3,-1.99 -31.12,-5.97 -4.17,-4.39 -2.22,-11.79 5.84,-22.19 8.27,-10.67 17.94,-18.25 28.97,-22.71zm-8.67 22.61c-5.25,6.77 -7.04,11.51 -5.36,14.23 1.85,3.07 7.73,4.6 17.64,4.6 9.68,0 17.89,-1.53 24.63,-4.6 2.74,-1.25 5.3,-2.79 7.65,-4.6 2.36,-1.81 4.06,-3.33 5.13,-4.56 1.05,-1.21 2.42,-2.91 4.1,-5.07 0.16,-0.21 0.37,-0.49 0.64,-0.84 1.51,-1.95 2.66,-3.5 3.46,-4.66 0.77,-1.15 1.44,-2.65 1.98,-4.5 0.54,-1.85 0.4,-3.4 -0.4,-4.65 -1.96,-2.93 -7.9,-4.4 -17.81,-4.4 -10.24,0 -18.5,1.47 -24.79,4.4 -5.73,2.65 -11.36,7.54 -16.87,14.65zm72.92 19.47l29.94 -38.63c2.22,-2.87 5.24,-5.02 9.04,-6.49 3.82,-1.47 8.34,-2.2 13.57,-2.2l40.09 0c9.58,0 15.22,1.33 16.96,3.98 1.39,2.23 0.3,5.65 -3.28,10.26 -3.3,4.25 -7,7.32 -11.15,9.21 -3.97,1.81 -8.31,2.9 -13.04,3.25l-0.16 0.21c4.41,0.35 7.14,1.57 8.19,3.66 1.05,1.95 -0.06,5.02 -3.31,9.22 -4.38,5.65 -9.55,9.73 -15.51,12.24 -5.45,2.31 -12.3,3.46 -20.55,3.46l-42.1 0c-5.56,0 -8.95,-0.66 -10.14,-1.99 -1.26,-1.25 -0.78,-3.32 1.44,-6.17zm39.11 -25.23l30.24 0c3.66,0 6.82,-0.55 9.47,-1.67 2.48,-1.05 4.51,-2.59 6.08,-4.6 1.84,-2.37 2.24,-4.05 1.22,-5.02 -0.86,-0.91 -3.07,-1.36 -6.63,-1.36l-25.72 0c-1.67,0 -3.05,0.21 -4.17,0.63 -1.1,0.42 -2.04,1.12 -2.79,2.09l-7.7 9.95zm-7.3 9.42l-8.69 11.21c-0.8,1.05 -1.12,1.88 -0.94,2.51 0.35,0.55 1.53,0.83 3.53,0.83l24.39 0c4.23,0 7.68,-0.56 10.31,-1.67 2.66,-1.12 5.05,-3.07 7.22,-5.86 1.89,-2.44 2.47,-4.18 1.73,-5.23 -0.87,-1.19 -3.19,-1.78 -6.98,-1.78l-30.57 0zm99.91 -31.51l19.55 0 -16.31 21.04 39.92 0c7.12,0 11.55,1.4 13.27,4.19 1.75,2.79 0.19,7.32 -4.69,13.61 -5.14,6.63 -10.92,11.2 -17.31,13.71 -4.96,1.95 -11.39,2.93 -19.31,2.93l-44.93 0c-4.35,0 -7.12,-0.66 -8.31,-1.99 -1.2,-1.33 -0.64,-3.49 1.68,-6.49l36.44 -47zm49.36 55.48l43.01 -55.48 19.54 0 -43.01 55.48 -19.54 0zm-53.43 -25.02l-9.09 11.72c-1.2,1.54 -1.59,2.55 -1.2,3.04 0.47,0.55 1.7,0.83 3.71,0.83l25.56 0c4.12,0 7.46,-0.59 10.07,-1.77 2.42,-1.12 4.78,-3.18 7.12,-6.18 2.21,-2.86 2.95,-4.81 2.21,-5.86 -0.77,-1.19 -2.97,-1.78 -6.64,-1.78l-31.73 0zm176.03 25.02l-19.55 0 31.26 -39.47c0.06,-0.07 0.16,-0.21 0.33,-0.42 0.22,-0.28 0.36,-0.47 0.45,-0.57 0.07,-0.1 0.08,-0.21 -0.01,-0.32 -0.08,-0.1 -0.3,-0.16 -0.63,-0.16 -0.55,0 -1.73,0.49 -3.47,1.47l-66.59 35.69c-2.91,1.61 -5.54,2.75 -7.9,3.41 -2.34,0.66 -5.07,0.99 -8.21,0.99 -8.56,0 -10.83,-2.61 -6.77,-7.84l37.41 -48.26 19.55 0 -31.43 39.47c-0.76,0.98 -0.69,1.47 0.19,1.47 0.57,0 1.72,-0.49 3.48,-1.47l67.58 -36.32c4.73,-2.52 9.71,-3.77 14.94,-3.77 1.11,0 2.15,0.07 3.09,0.21 0.95,0.14 2.09,0.44 3.41,0.9 1.32,0.45 1.98,1.33 1.98,2.61 0,1.29 -0.73,2.88 -2.19,4.76l-36.93 47.63zm-1.89 -68.04c1.39,1.67 4.59,2.51 9.59,2.51 5.01,0 9.5,-0.84 13.47,-2.51 2.81,-1.19 5.38,-2.69 7.68,-4.5l15.2 0c-5.92,4.74 -11.83,8.27 -17.73,10.57 -6.91,2.73 -15.08,4.08 -24.54,4.08 -9.47,0 -15.56,-1.35 -18.22,-4.08 -2.33,-2.3 -2.77,-5.83 -1.34,-10.57l15.2 0c-0.51,1.81 -0.29,3.32 0.68,4.5zm131.84 68.04l-42.6 0c-11.46,0 -18.51,-2.27 -21.12,-6.81 -1.45,-2.44 -1.45,-5.23 -0.03,-8.37 1.44,-3.15 3.99,-7.09 7.67,-11.83 2.38,-3.07 4.46,-5.6 6.23,-7.59 1.77,-1.99 4.6,-4.48 8.55,-7.48 3.93,-3 8.17,-5.48 12.69,-7.43 9.43,-3.98 19.99,-5.97 31.69,-5.97l37.92 0 -7.3 9.42 -31.57 0c-11.8,0 -21.32,2.93 -28.53,8.8 -2.75,2.23 -5.94,5.72 -9.61,10.46 -4.12,5.3 -6.15,9.14 -6.1,11.51 0.2,3.91 6.09,5.86 17.67,5.86l31.74 0 -7.3 9.42zm94.2 0l-49.12 0c-3.78,0 -6.89,-0.12 -9.31,-0.36 -2.44,-0.24 -4.9,-0.91 -7.41,-1.99 -2.49,-1.08 -4.14,-2.63 -4.9,-4.66 -1.32,-3.77 1.79,-10.51 9.3,-20.2 4.71,-6.07 9.07,-10.87 13.09,-14.4 4.01,-3.52 9.17,-6.47 15.47,-8.84 9.15,-3.48 21.54,-5.23 37.12,-5.23 13.48,0 22.3,1.19 26.48,3.56 5.8,3.28 5.31,9.28 -1.45,18.01 -2.97,3.84 -6.52,6.63 -10.66,8.38 -3.3,1.39 -7.01,2.09 -11.14,2.09l-51.44 0c-2.44,3.14 -4.03,5.69 -4.76,7.64 -0.94,2.65 -0.2,4.42 2.25,5.29 2.44,0.87 5.95,1.31 10.52,1.31l43.27 0 -7.3 9.42zm-36.66 -33.08l40.59 0c2.9,0 5.18,-1.08 6.86,-3.25 2.43,-3.14 2.46,-5.61 0.07,-7.42 -2.26,-1.68 -7.19,-2.51 -14.76,-2.51 -8.92,0 -16.04,1.21 -21.38,3.66 -2.6,1.19 -4.61,2.43 -6.06,3.72 -1.45,1.29 -3.04,2.98 -4.76,5.07 -0.28,0.35 -0.47,0.6 -0.57,0.74zm73.07 33.08l-13.79 17.8 -19.56 0 50.15 -64.7c2.27,-2.92 5.7,-5.19 10.3,-6.8 3.47,-1.19 7.61,-1.78 12.39,-1.78l30.9 0c11.13,0 18.26,2.03 21.36,6.07 3.09,4.05 0.91,10.89 -6.56,20.52 -7.57,9.77 -15.32,16.75 -23.23,20.94 -10.01,5.3 -22.42,7.96 -37.24,7.96l-24.72 0zm7.3 -9.42l22.23 0c7.79,0 14.67,-1.71 20.68,-5.13 4.17,-2.23 8.83,-6.67 13.97,-13.3 4.38,-5.65 6.7,-9.63 6.91,-11.93 0.35,-4.19 -3.7,-6.29 -12.17,-6.29l-19.2 0c-0.78,0 -1.86,0.24 -3.26,0.74 -1.31,0.55 -2.24,1.19 -2.78,1.88l-26.37 34.02zm75.85 1.26l29.94 -38.63c2.22,-2.87 5.23,-5.02 9.04,-6.49 3.82,-1.47 8.34,-2.2 13.57,-2.2l40.08 0c9.59,0 15.23,1.33 16.97,3.98 1.39,2.23 0.3,5.65 -3.28,10.26 -3.3,4.25 -7,7.32 -11.15,9.21 -3.97,1.81 -8.31,2.9 -13.04,3.25l-0.16 0.21c4.41,0.35 7.14,1.57 8.19,3.66 1.05,1.95 -0.06,5.02 -3.31,9.22 -4.38,5.65 -9.55,9.73 -15.51,12.24 -5.45,2.31 -12.3,3.46 -20.55,3.46l-42.1 0c-5.56,0 -8.95,-0.66 -10.14,-1.99 -1.26,-1.25 -0.78,-3.32 1.44,-6.17zm39.11 -25.23l30.24 0c3.66,0 6.82,-0.55 9.47,-1.67 2.48,-1.05 4.51,-2.59 6.08,-4.6 1.83,-2.37 2.24,-4.05 1.22,-5.02 -0.86,-0.91 -3.07,-1.36 -6.63,-1.36l-25.72 0c-1.67,0 -3.05,0.21 -4.17,0.63 -1.09,0.42 -2.03,1.12 -2.78,2.09l-7.7 9.95zm-7.3 9.42l-8.69 11.21c-0.8,1.05 -1.12,1.88 -0.94,2.51 0.35,0.55 1.53,0.83 3.53,0.83l24.39 0c4.23,0 7.68,-0.56 10.31,-1.67 2.66,-1.12 5.05,-3.07 7.21,-5.86 1.9,-2.44 2.47,-4.18 1.74,-5.23 -0.87,-1.19 -3.19,-1.78 -6.99,-1.78l-30.56 0zm143.59 23.97l-19.55 0 31.26 -39.47c0.06,-0.07 0.16,-0.21 0.33,-0.42 0.21,-0.28 0.36,-0.47 0.44,-0.57 0.08,-0.1 0.09,-0.21 0,-0.32 -0.08,-0.1 -0.3,-0.16 -0.63,-0.16 -0.55,0 -1.73,0.49 -3.47,1.47l-66.59 35.69c-2.91,1.61 -5.54,2.75 -7.9,3.41 -2.35,0.66 -5.08,0.99 -8.21,0.99 -8.56,0 -10.83,-2.61 -6.78,-7.84l37.41 -48.26 19.56 0 -31.43 39.47c-0.77,0.98 -0.69,1.47 0.19,1.47 0.57,0 1.72,-0.49 3.47,-1.47l67.58 -36.32c4.74,-2.52 9.72,-3.77 14.95,-3.77 1.1,0 2.14,0.07 3.09,0.21 0.95,0.14 2.09,0.44 3.41,0.9 1.32,0.45 1.98,1.33 1.98,2.61 0,1.29 -0.73,2.88 -2.19,4.76l-36.93 47.63zm91.03 0l-42.6 0c-11.46,0 -18.51,-2.27 -21.12,-6.81 -1.45,-2.44 -1.45,-5.23 -0.03,-8.37 1.44,-3.15 3.99,-7.09 7.67,-11.83 2.38,-3.07 4.46,-5.6 6.23,-7.59 1.77,-1.99 4.6,-4.48 8.55,-7.48 3.93,-3 8.17,-5.48 12.69,-7.43 9.43,-3.98 19.99,-5.97 31.69,-5.97l37.92 0 -7.3 9.42 -31.57 0c-11.8,0 -21.32,2.93 -28.53,8.8 -2.75,2.23 -5.94,5.72 -9.62,10.46 -4.11,5.3 -6.14,9.14 -6.09,11.51 0.2,3.91 6.09,5.86 17.67,5.86l31.74 0 -7.3 9.42z"></path>
 </g>
</svg>