<svg height='300px' width='300px' fill="#0039a6" xmlns="http://www.w3.org/2000/svg"
     xmlns:xlink="http://www.w3.org/1999/xlink" version="1.1" x="0px" y="0px" viewBox="0 0 100 100"
     enable-background="new 0 0 100 100" xml:space="preserve"><g><path d="M2.709,59.999v-4h12.717l3.004,3.004l1.414-1.414l-3.59-3.59H2.709v-3.027l11.541,0.026c0.837,0,1.58-0.377,2.092-1.064   c0.496-0.666,0.498-1.382,0.499-1.957l0.007-0.828c0.009-0.829,0.017-1.643-0.007-3.104l-0.009-0.563l-9.84-5.734   c0.83-0.667,1.762-1.222,2.77-1.651l0.24,0.177l0.288-0.392c0.694-0.256,1.419-0.457,2.174-0.586   c7.367-1.255,14.855-2.003,22.259-2.224l-0.061-2c-7.477,0.224-15.039,0.979-22.48,2.243l6.396-8.681   c1.744-2.365,4.219-3.616,7.158-3.616h8.955v-2h-8.955c-3.549,0-6.663,1.573-8.768,4.431l-7.26,9.853v-4.302H5.412   c-2.824,0-5.121,2.297-5.121,5.121v1.824h5.771c-3.282,2.48-5.353,6.35-5.353,10.648v13.406v2v6.565   c0,2.418,1.926,4.386,4.294,4.386h7.412c2.368,0,4.294-1.968,4.294-4.386v-6.565h17.983v-2H16.709H2.709z M14.848,47.128   l-0.007,0.845c-0.001,0.403-0.007,0.638-0.103,0.766c-0.134,0.18-0.284,0.26-0.488,0.26v1l-0.001-1L2.852,48.972v-1.786   c0-2.931,1.055-5.671,2.985-7.797l1.779,1.037c-1.097,0.779-1.818,2.053-1.818,3.497c0,2.37,1.928,4.298,4.297,4.298   c2.224,0,4.037-1.703,4.255-3.871l0.499,0.291C14.863,45.735,14.855,46.426,14.848,47.128z M12.393,43.923   c0,1.267-1.031,2.298-2.298,2.298s-2.297-1.031-2.297-2.298c0-1.135,0.829-2.073,1.944-2.258l2.482,1.446   C12.324,43.371,12.393,43.643,12.393,43.923z M5.412,30.999h2.298v2.945H2.295C2.387,32.305,3.75,30.999,5.412,30.999z    M14.709,62.999h-2v2h2v1h-2v2h2v0.565c0,1.315-1.029,2.386-2.294,2.386h-0.707v-4.951h-2v4.951h-2v-4.951h-2v4.951H5.003   c-1.265,0-2.294-1.07-2.294-2.386v-0.565h2v-2h-2v-1h2v-2h-2v-1h12V62.999z"></path><path
        d="M22.695,44.999h12.015v-2H20.636v1c0,5.96,4.642,8.994,8.986,9.846c1.853,0.364,3.46,0.629,4.915,0.812l0.248-1.984   c-1.408-0.177-2.971-0.435-4.778-0.79C26.704,51.234,23.19,49.091,22.695,44.999z"></path><path
        d="M96.416,18H40.002c-1.815,0-3.293,1.477-3.293,3.292v42.415c0,1.815,1.478,3.293,3.293,3.293h18.707v7h-2.5   c-2.439,0-4.5,2.061-4.5,4.5V82h24h9v-3.5c0-2.439-2.061-4.5-4.5-4.5h-2.5v-7h18.707c1.816,0,3.293-1.478,3.293-3.293V21.292   C99.709,19.477,98.232,18,96.416,18z M40.002,20h56.414c0.713,0,1.293,0.58,1.293,1.292V57h-59V21.292   C38.709,20.58,39.29,20,40.002,20z M80.209,76c1.309,0,2.5,1.191,2.5,2.5V80h-7h-22v-1.5c0-1.309,1.191-2.5,2.5-2.5h2.5v2h19v-2   H80.209z M75.709,76h-15v-9h15V76z M96.416,65H77.709h-19H40.002c-0.713,0-1.293-0.58-1.293-1.293V59h59v4.707   C97.709,64.42,97.129,65,96.416,65z"></path><polygon
        points="51.713,50.977 60.754,53.438 75.732,48.544 86.738,51.596 96.031,48.447 95.389,46.553 86.68,49.504    75.686,46.456 60.701,51.351 51.705,48.902 42.687,51.432 43.228,53.357  "></polygon><rect
        x="48.71" y="25" width="2" height="17"></rect><rect x="45.71" y="30" width="2" height="12"></rect><rect
        x="42.709" y="33" width="2" height="9"></rect><rect x="51.711" y="25" width="2" height="17"></rect><rect
        x="54.711" y="36" width="2" height="6"></rect><rect x="90.709" y="25" width="2" height="17"></rect><rect
        x="57.709" y="25" width="2" height="17"></rect><rect x="60.709" y="27" width="2" height="15"></rect><rect
        x="63.709" y="30.077" width="2" height="11.923"></rect><rect x="66.711" y="25" width="2" height="17"></rect><rect
        x="69.709" y="38.826" width="2" height="3.174"></rect><rect x="72.709" y="30" width="2" height="12"></rect><rect
        x="75.709" y="32" width="2" height="10"></rect><rect x="78.709" y="27" width="2" height="15"></rect><rect
        x="81.709" y="25" width="2" height="17"></rect><rect x="84.646" y="32" width="2" height="10"></rect><rect
        x="87.709" y="27" width="2" height="15"></rect></g></svg>