<svg height='300px' width='300px'  fill="#0039a6" xmlns="http://www.w3.org/2000/svg" xmlns:xlink="http://www.w3.org/1999/xlink" version="1.1" x="0px" y="0px" viewBox="0 0 100 100" enable-background="new 0 0 100 100" xml:space="preserve"><g><path d="M11,91c0,2.206,1.794,4,4,4h70c2.206,0,4-1.794,4-4V42H11V91z M14,45h72v46c0,0.552-0.448,1-1,1H15c-0.551,0-1-0.448-1-1   V45z"></path><path d="M92.5,37h-16v-7.5h-13V37h-27V24.5h-13V37h-16C6.671,37,6,37.671,6,38.5S6.671,40,7.5,40h85c0.828,0,1.5-0.671,1.5-1.5   S93.328,37,92.5,37z M26.5,37v-9.5h7V37H26.5z M66.5,37v-4.5h7V37H66.5z"></path><path d="M25,67.5h3.5V71c0,0.828,0.671,1.5,1.5,1.5s1.5-0.672,1.5-1.5v-3.5H35c0.829,0,1.5-0.672,1.5-1.5s-0.671-1.5-1.5-1.5h-3.5   V61c0-0.828-0.671-1.5-1.5-1.5s-1.5,0.672-1.5,1.5v3.5H25c-0.829,0-1.5,0.672-1.5,1.5S24.171,67.5,25,67.5z"></path><path d="M65,67.5h10c0.828,0,1.5-0.672,1.5-1.5s-0.672-1.5-1.5-1.5H65c-0.828,0-1.5,0.672-1.5,1.5S64.172,67.5,65,67.5z"></path></g></svg>