<svg width="50" height="50" viewBox="0 0 50 50" fill="#0039a6" xmlns="http://www.w3.org/2000/svg">
    <g clip-path="url(#clip0_514_17)">
        <path d="M16.0156 1.65039C15.0195 1.875 14.4336 2.07031 13.5156 2.49023C12.5391 2.93945 11.8457 3.42773 9.6875 5.19531L7.80273 6.73828H4.90234C2.06055 6.73828 1.99219 6.74805 1.50391 6.97266C1.24023 7.09961 0.859375 7.38281 0.654297 7.61719C0.0195312 8.36914 0 8.48633 0 12.6465C0 16.6699 0.0292969 16.9238 0.527344 17.6758C0.917969 18.2617 3.38867 20.4688 4.00391 20.7812C4.50195 21.0254 4.64844 21.0449 6.11328 21.0938L7.68555 21.1426L7.96875 21.4844C8.41797 22.0215 8.70117 22.2461 9.35547 22.5781C10.8789 23.3398 13.0078 22.832 13.9453 21.4844L14.209 21.1035L16.2891 21.0938H18.3594V22.002C18.3594 23.4375 18.6133 23.6328 20.459 23.6328H21.582L22.6074 24.2871C23.1738 24.6582 23.6328 24.9707 23.6328 25C23.6328 25.0293 23.0957 25.3906 22.4414 25.8008L21.25 26.5625H14.9414C8.94531 26.5625 8.61328 26.5723 8.4668 26.7383C8.24219 26.9824 8.26172 27.5 8.49609 27.7344C8.69141 27.9297 8.81836 27.9297 28.6133 27.9297H48.5352V29.248V30.5664H25H1.46484V29.248V27.9297H3.65234C5.5957 27.9297 5.85938 27.9102 6.03516 27.7539C6.34766 27.5 6.39648 27.1387 6.15234 26.8262L5.94727 26.5625H3.34961C-0.185547 26.5625 -0.0292969 26.4355 0.0195312 29.3848L0.0488281 31.2695L0.410156 31.6016L0.78125 31.9336H6.02539H11.2793L15.9375 34.5898C18.5059 36.0547 20.6055 37.2852 20.6055 37.3145C20.6055 37.3438 18.0273 38.8281 14.873 40.625C11.0547 42.793 9.01367 44.0137 8.76953 44.2578C8.42773 44.5996 8.36914 44.6289 7.8418 44.6289C6.47461 44.6289 5.89844 45.1465 5.79102 46.4941L5.73242 47.168H4.72656C3.75977 47.168 3.7207 47.1777 3.52539 47.4219C3.26172 47.7539 3.26172 48.0469 3.51562 48.3203L3.7207 48.5352H24.7461C44.9902 48.5352 45.7812 48.5254 45.9277 48.3594C46.1523 48.1152 46.1328 47.5977 45.8984 47.3633C45.7422 47.207 45.5762 47.168 44.9805 47.168H44.2676L44.209 46.4941C44.1406 45.6934 43.9746 45.3223 43.4961 44.9609C43.1934 44.7266 43.0371 44.6875 42.334 44.6484C41.582 44.6094 41.5137 44.5898 41.3184 44.3262C41.2012 44.1699 40.7715 43.8477 40.3516 43.6035C39.7168 43.2324 39.4238 42.9688 38.5059 41.9043C37.4902 40.7422 37.2754 40.4297 37.4805 40.4297C37.5195 40.4297 37.8516 40.1465 38.2129 39.8047C38.8477 39.1992 38.8672 39.1602 38.8672 38.7012C38.8672 38.1641 38.7988 38.0469 37.9492 37.0605C36.2012 35.0195 35.957 34.9414 34.6484 36.0449L33.9355 36.6406L33.3789 36.0156C33.0664 35.6836 32.8223 35.3809 32.8223 35.3516C32.8223 35.3223 34.1504 34.541 35.7812 33.6133L38.75 31.9336H43.9844H49.2188L49.5898 31.6016L49.9512 31.2695L49.9805 29.3848C50.0195 27.3438 49.9707 27.0801 49.5117 26.7578C49.2383 26.5625 49.0332 26.5625 38.9941 26.5625H28.75L27.5586 25.8105C26.9043 25.3906 26.3672 25.0293 26.3672 25C26.3672 24.9707 26.8262 24.6582 27.3926 24.2871L28.418 23.6328H29.541C31.3867 23.6328 31.6406 23.4375 31.6406 22.002V21.0938H32.4414H33.2324L33.7598 21.6797C34.1309 22.0801 34.4922 22.3535 34.9414 22.5781C35.5469 22.8711 35.6641 22.9004 36.5723 22.9004C37.4707 22.9004 37.5977 22.8711 38.2031 22.5781C38.6426 22.3633 39.0137 22.0801 39.3652 21.6992L39.873 21.1426L44.248 21.0938L48.6133 21.0449L49.0332 20.752C49.2969 20.5664 49.5605 20.2637 49.7266 19.9316L50 19.4141L49.9902 16.416C49.9902 13.916 49.9609 13.3203 49.8242 12.7832C49.4922 11.5039 48.5352 10.3613 47.334 9.77539C46.2402 9.23828 42.9785 8.31055 38.9648 7.38281C37.9199 7.13867 36.8848 6.91406 36.6797 6.875C36.377 6.82617 35.8887 6.47461 34.3848 5.25391C33.3301 4.39453 32.2168 3.51562 31.8945 3.30078C31.084 2.74414 29.6875 2.09961 28.6133 1.78711L27.6855 1.52344L22.2656 1.49414C17.2949 1.47461 16.7773 1.48438 16.0156 1.65039ZM20.8496 4.78516V6.68945L17.3633 6.71875L13.8672 6.73828V5.32227V3.90625L14.2383 3.7207C14.7461 3.45703 16.1523 3.03711 16.8457 2.93945C17.168 2.89062 18.2031 2.86133 19.1406 2.87109L20.8496 2.88086V4.78516ZM28.1543 3.1543C29.6484 3.55469 30.7422 4.15039 32.4219 5.49805C33.2324 6.14258 33.877 6.68945 33.8574 6.69922C33.8477 6.71875 33.6035 6.62109 33.3301 6.48438C32.9492 6.28906 32.627 6.2207 31.9141 6.18164C30.791 6.11328 30.3711 6.18164 29.9902 6.50391L29.707 6.73828L26.0059 6.71875L22.3145 6.68945L22.2852 4.74609L22.2656 2.8125L24.7266 2.85156C26.9922 2.90039 27.2754 2.91992 28.1543 3.1543ZM12.373 6.70898C12.3438 6.72852 11.8262 6.72852 11.2207 6.71875L10.1074 6.68945L11.2305 5.77148L12.3535 4.85352L12.3828 5.76172C12.3926 6.25977 12.3926 6.67969 12.373 6.70898ZM32.8125 7.8125C33.3203 8.06641 33.6133 8.51562 33.6719 9.10156L33.7207 9.58008L32.3633 9.55078L31.0059 9.52148L30.9766 8.56445L30.9473 7.61719H31.6895C32.2363 7.61719 32.5293 7.66602 32.8125 7.8125ZM29.5898 9.0918C29.5898 10.2051 29.707 10.5176 30.2148 10.791C30.4688 10.9277 30.8105 10.9473 32.4902 10.918L34.4727 10.8887L34.7852 10.5762C35.0488 10.3125 35.0977 10.1758 35.1367 9.67773C35.1562 9.3457 35.127 8.87695 35.0684 8.63281C35 8.37891 34.9707 8.16406 35 8.13477C35.166 7.96875 39.5605 8.91602 43.0176 9.86328C46.1035 10.7129 46.9629 11.0449 47.5 11.6113L47.793 11.9141H45.5176C43.0273 11.9141 42.8125 11.9531 42.5293 12.5C42.3438 12.8516 42.3438 13.2129 42.5195 13.5547C42.7148 13.9258 44.6387 15.625 45.2344 15.9375C45.7031 16.2012 45.7812 16.2109 47.1289 16.2109H48.5352V17.7637V19.3262L48.2812 19.5215C48.0273 19.7168 47.9004 19.7266 45.3613 19.7266H42.7051L42.6465 18.3789C42.5488 16.2305 42.1484 15.1953 40.9766 14.0137C40.1855 13.2129 39.0527 12.5879 38.0469 12.4121C37.2949 12.2754 35.8398 12.2754 35.0977 12.4121C33.0664 12.7832 31.2695 14.4629 30.7031 16.5039C30.625 16.7969 30.5371 17.6465 30.498 18.3789L30.4395 19.7266H26.3477H22.2656V15.0488C22.2656 10.6543 22.2559 10.3613 22.0898 10.1465C21.8652 9.87305 21.377 9.85352 21.0938 10.1074C20.9082 10.2734 20.8984 10.4199 20.8789 14.9805L20.8496 19.6777L18.9258 19.707L16.9922 19.7266V18.4863C16.9922 17.002 16.8359 16.2598 16.3281 15.293C15.332 13.3887 13.3984 12.3047 10.9961 12.3047C8.99414 12.3145 7.82227 12.7637 6.5918 14.0039C5.32227 15.2832 4.89258 16.4355 4.88281 18.5352V19.6387L4.58984 19.4824C4.14062 19.248 1.83594 17.1289 1.64062 16.7773C1.40625 16.3184 1.42578 16.2402 1.78711 16.1719C2.30469 16.0742 2.98828 15.5859 3.26172 15.1074C3.64258 14.4629 4.12109 12.9883 4.04297 12.6758C4.01367 12.5293 3.85742 12.2949 3.69141 12.1582C3.42773 11.9336 3.33008 11.9141 2.43164 11.9141H1.46484V10.4395C1.46484 9.22852 1.49414 8.91602 1.63086 8.68164C1.99219 8.07617 1.07422 8.10547 15.9961 8.10547H29.5898V9.0918ZM2.44141 13.3691C2.44141 13.5938 2.11914 14.3262 1.93359 14.5215C1.5625 14.9219 1.46484 14.8145 1.46484 14.0137V13.2812H1.95312C2.22656 13.2812 2.44141 13.3203 2.44141 13.3691ZM48.5156 14.082L48.5449 14.8438H47.4121C46.6602 14.8438 46.1719 14.7949 45.957 14.707C45.6543 14.5801 44.4336 13.5547 44.3555 13.3594C44.3359 13.3105 45.2539 13.291 46.4062 13.3008L48.4863 13.3301L48.5156 14.082ZM13.2031 14.1895C14.9023 15.0195 15.6836 16.5234 15.6055 18.7988L15.5762 19.6777L15.1758 19.707L14.7754 19.7363L14.7266 18.9648C14.5703 16.2402 11.7383 14.5605 9.29688 15.7422C8.70117 16.0254 7.8125 16.9141 7.53906 17.5098C7.29492 18.0371 7.12891 18.7695 7.12891 19.3457C7.12891 19.7266 7.12891 19.7266 6.72852 19.7266H6.32812L6.36719 18.2812C6.39648 16.875 6.40625 16.8262 6.72852 16.1621C7.10938 15.3906 7.85156 14.5898 8.50586 14.248C9.32617 13.8281 9.64844 13.7695 11.0938 13.7988C12.4609 13.8184 12.4609 13.8184 13.2031 14.1895ZM38.7793 14.1309C39.9414 14.6973 40.8398 15.8398 41.1035 17.0703C41.1621 17.3535 41.2109 18.0664 41.2109 18.6523V19.7266H40.7812H40.3613L40.3125 18.9062C40.2832 18.2715 40.2148 17.9688 39.9902 17.5195C39.248 15.9961 37.5586 15.127 35.9473 15.4199C34.1309 15.752 32.9297 17.1094 32.832 18.916L32.7832 19.7266H32.3633H31.9336V18.5742C31.9336 17.9297 31.9922 17.2168 32.0703 16.9434C32.4414 15.5273 33.4082 14.4629 34.7754 13.9648C35.2246 13.7988 35.498 13.7695 36.7188 13.7988C38.0859 13.8184 38.1543 13.8281 38.7793 14.1309ZM11.9629 17.0312C12.8223 17.4219 13.3105 18.1934 13.3105 19.1406C13.3203 20.4785 12.2852 21.5039 10.9375 21.5039C9.98047 21.5039 9.22852 21.0254 8.82812 20.166C7.88086 18.1445 9.94141 16.084 11.9629 17.0312ZM37.3145 16.8945C37.5 16.9434 37.8418 17.1484 38.0664 17.3438C39.7852 18.8184 38.7891 21.5039 36.5332 21.4941C34.7754 21.4844 33.6719 19.6484 34.4727 18.0664C34.6973 17.6172 35.3809 17.0215 35.791 16.9043C36.2012 16.7773 36.8945 16.7773 37.3145 16.8945ZM30.2539 21.6504L30.2832 22.168H25.0098H19.7266V21.6992C19.7266 21.4355 19.7559 21.1914 19.7949 21.1621C19.8242 21.123 22.1875 21.1035 25.0391 21.1133L30.2246 21.1426L30.2539 21.6504ZM25.6836 23.6719C25.6836 23.6914 25.5273 23.8086 25.3418 23.9258L25 24.1406L24.6582 23.9258C24.4727 23.8086 24.3164 23.6914 24.3164 23.6719C24.3164 23.6523 24.6289 23.6328 25 23.6328C25.3809 23.6328 25.6836 23.6523 25.6836 23.6719ZM25.6055 26.2402L26.0254 26.5137L25.5176 26.543C25.2344 26.5625 24.7754 26.5625 24.4922 26.543L23.9844 26.5137L24.4629 26.2012C25 25.8496 25 25.8496 25.6055 26.2402ZM28.1055 38.252L39.1797 44.5801L37.8027 44.6094L36.416 44.6387L33.916 43.2129C32.5391 42.4316 31.3184 41.7676 31.2109 41.748C30.918 41.6797 30.5469 41.8945 30.4492 42.1973C30.2734 42.7246 30.4395 42.8711 32.5488 44.0723L34.5508 45.2148L34.3652 45.5762C34.2383 45.8203 34.1797 46.1426 34.1797 46.5527V47.168H25H15.8203V46.5527C15.8203 46.1426 15.7617 45.8203 15.6348 45.5762L15.4492 45.2148L20.166 42.5293C22.7637 41.0547 24.9316 39.8438 25 39.8438C25.0684 39.8438 25.7812 40.2148 26.582 40.6738C27.4023 41.1426 28.1445 41.5039 28.291 41.5039C28.6133 41.5039 29.0039 41.1523 29.0039 40.8691C29.0039 40.7617 28.9355 40.5762 28.8574 40.459C28.7695 40.3418 25.4883 38.4082 21.5527 36.1719C17.6172 33.9355 14.3652 32.0605 14.3164 32.0215C14.2578 31.9727 14.834 31.9336 15.625 31.9336H17.0312L28.1055 38.252ZM21.9531 32.4902C21.9727 32.8418 21.9434 33.0078 21.8652 33.0078C21.7383 33.0078 20.0195 32.041 20.0195 31.9727C20.0195 31.9434 20.4492 31.9434 20.9766 31.9531L21.9238 31.9824L21.9531 32.4902ZM26.6406 32.9297L26.6113 33.9258L25.8105 34.3945L25.0195 34.8633L24.1992 34.3945L23.3887 33.9258L23.3594 32.9297L23.3301 31.9336H25H26.6699L26.6406 32.9297ZM29.9805 31.9727C29.9805 32.041 28.2617 33.0078 28.1348 33.0078C28.0176 33.0078 27.9785 32.1094 28.0957 32.002C28.1641 31.9238 29.9805 31.9043 29.9805 31.9727ZM35.6934 32.0117C35.6348 32.0605 33.9941 33.0078 32.0312 34.1309C30.0684 35.2441 28.3398 36.2305 28.1738 36.3281L27.8809 36.5039L27.168 36.0938L26.4551 35.6738L29.707 33.8086L32.959 31.9434H34.375C35.1465 31.9336 35.7422 31.9727 35.6934 32.0117ZM32.9199 37.6465C33.4766 38.291 34.375 39.3262 34.9121 39.9414L35.8887 41.0547L35.2051 40.6738C32.2461 39.0039 29.3945 37.3535 29.3945 37.3145C29.3945 37.2852 29.873 36.9922 30.4492 36.6602L31.4941 36.0645L31.6992 36.2695C31.8066 36.3867 32.3633 37.002 32.9199 37.6465ZM36.6699 37.7637L37.4219 38.6133L36.9434 39.0234C36.6895 39.248 36.4453 39.4043 36.416 39.375C36.377 39.3359 36.0352 38.9355 35.6445 38.4863L34.9414 37.6562L35.3613 37.2852C35.5957 37.0898 35.8203 36.9141 35.8594 36.9141C35.8984 36.9141 36.2695 37.2949 36.6699 37.7637ZM22.8906 38.5645L23.5547 38.9453L22.9883 39.2773C22.666 39.4629 20.4297 40.7422 18.0078 42.1191L13.5938 44.6387L12.207 44.6094L10.8203 44.5801L16.416 41.3867C19.502 39.6289 22.0703 38.1934 22.1191 38.1934C22.1777 38.1836 22.5195 38.3594 22.8906 38.5645ZM14.3555 46.6309V47.168H10.791H7.22656V46.6309V46.0938H10.791H14.3555V46.6309ZM42.7734 46.6309V47.168H39.209H35.6445V46.6309V46.0938H39.209H42.7734V46.6309Z"
              fill="#0039a6"/>
        <path d="M13.6816 10.5078C13.5645 10.6543 13.4766 10.8398 13.4766 10.9375C13.4766 11.0352 13.5645 11.2207 13.6816 11.3672C13.877 11.6113 13.916 11.6211 14.9316 11.6211C16.1133 11.6211 16.3379 11.5137 16.3379 10.9375C16.3379 10.3613 16.1133 10.2539 14.9316 10.2539C13.916 10.2539 13.877 10.2637 13.6816 10.5078Z"
              fill="#0039a6"/>
        <path d="M24.0234 10.4492C23.916 10.5566 23.8281 10.7715 23.8281 10.9375C23.8281 11.4941 24.0918 11.6211 25.2441 11.6211C26.1621 11.6211 26.2793 11.6016 26.4648 11.4062C26.7285 11.123 26.709 10.7324 26.4355 10.4688C26.2305 10.2734 26.1035 10.2539 25.2148 10.2539C24.3457 10.2539 24.1895 10.2832 24.0234 10.4492Z"
              fill="#0039a6"/>
        <path d="M44.8437 17.4122C44.5605 17.7149 44.5703 18.1153 44.873 18.4082C45.166 18.7012 45.498 18.7207 45.8398 18.4473C46.1621 18.1934 46.1914 17.6758 45.8984 17.3829C45.625 17.1094 45.1074 17.1289 44.8437 17.4122Z"
              fill="#0039a6"/>
    </g>
    <defs>
        <clipPath id="clip0_514_17">
            <rect width="50" height="50" fill="white"/>
        </clipPath>
    </defs>
</svg>
