<?xml version="1.0" encoding="utf-8"?>
<!-- Generator: Adobe Illustrator 22.0.1, SVG Export Plug-In . SVG Version: 6.00 Build 0)  -->
<svg version="1.1" id="Слой_2_1_" xmlns="http://www.w3.org/2000/svg" x="0px"
	 y="0px" viewBox="0 0 300 300" style="enable-background:new 0 0 300 300;" xml:space="preserve">
<style type="text/css">
	.st0{fill:none;stroke:#0039a6;stroke-width:12;stroke-miterlimit:10;}
</style>
<path class="st0" d="M10.4,75.8c0,1.8,1,3.1,1,3.1L81,151.7h47.7l15.6-15.2l-2.6-51.9L75,11.5c0,0-1-1.6-5.3-1.6c-2.6,0-5,3.2-5,3.2
	L12.6,72C12.6,72,10.4,74.1,10.4,75.8z"/>
<line class="st0" x1="21.5" y1="90" x2="84.3" y2="21.3"/>
<path class="st0" d="M128.8,151.8l19.4,20.9H113c0,0-7.9-0.1-11,4c-2.9,3.8-2.8,9-2.8,9v98.5c0,0,0,5.1,1.2,7
	c2.3,3.7,5.2,3.7,5.2,3.7h17.7c0,0,3.3-1,5.2-3.6c1.4-2,1.1-6.5,1.1-6.5l-0.6-78.2h27.5c0,0-0.8,26.1,0.4,30.3
	c2.1,7.2,3.8,10.3,8.2,14.3c3.6,2.9,12.8,2.9,12.8,2.9l-0.2-48.2H206"/>
<polyline class="st0" points="144.3,136.6 176.4,174.1 205.1,173.9 "/>
<line class="st0" x1="276.9" y1="138.6" x2="288.2" y2="126.4"/>
<line class="st0" x1="257.2" y1="159.9" x2="270.9" y2="145"/>
<line class="st0" x1="238.1" y1="180.5" x2="251.2" y2="166.3"/>
<line class="st0" x1="251.2" y1="210.6" x2="239.9" y2="198.1"/>
<line class="st0" x1="270.9" y1="232.4" x2="258.2" y2="218.3"/>
<line class="st0" x1="290.7" y1="254.1" x2="277.1" y2="239.2"/>
<line class="st0" x1="276.4" y1="190.1" x2="291.9" y2="190.1"/>
<line class="st0" x1="251.2" y1="190.1" x2="265.7" y2="190.1"/>
<path class="st0" d="M219.1,212.4h-4.3c-5.3,0-9.7-4.4-9.7-9.7v-27.5c0-5.3,4.4-9.7,9.7-9.7h4.3c5.3,0,9.7,4.4,9.7,9.7v27.5
	C228.8,208.1,224.4,212.4,219.1,212.4z"/>
</svg>
