<?xml version="1.0" encoding="UTF-8"?>
<!DOCTYPE svg PUBLIC "-//W3C//DTD SVG 1.1//EN" "http://www.w3.org/Graphics/SVG/1.1/DTD/svg11.dtd">
<!-- Creator: CorelDRAW 2019 -->
<svg xmlns="http://www.w3.org/2000/svg" xml:space="preserve" width="300px" height="300px" version="1.1" style="shape-rendering:geometricPrecision; text-rendering:geometricPrecision; image-rendering:optimizeQuality; fill-rule:evenodd; clip-rule:evenodd"
viewBox="0 0 300 300"
 xmlns:xlink="http://www.w3.org/1999/xlink"
 xmlns:xodm="http://www.corel.com/coreldraw/odm/2003">
 <defs>
  <style type="text/css">
   <![CDATA[
    .fil013 {fill:#44d108}
   ]]>
  </style>
 </defs>
 <g id="Слой_x0020_1">
  <metadata id="CorelCorpID_0Corel-Layer"/>
  <g id="_929334336">
   <path class="fil013" d="M186.74 200.6l36.74 0 0 36.74 -36.74 0 0 -36.74zm48.98 36.74l-2.78 0 0 -36.74c11.59,0 8.91,0.69 8.91,31.73 0,3.41 -2.65,5.01 -6.13,5.01zm-67.35 -6.13l0 -24.49c0,-6.91 4.82,-6.12 8.91,-6.12l0 36.74c-4.43,0 -8.91,0.4 -8.91,-6.13zm-100.75 28.95c-16.97,0 -31.78,-8.11 -41.28,-21.07 -14.43,-19.66 -11.98,-47.87 5.23,-65.08 31.52,-31.52 86.14,-9.17 86.14,36.05 0,27.19 -22.9,50.1 -50.09,50.1zm124.13 -96.3l17.81 0 0 8.91 -17.81 0 0 -8.91zm-46.2 -91.85l8.9 0 0 100.76 -8.9 0 0 -100.76zm119.67 96.3l0 -4.45 17.82 0c0,9.96 -0.12,8.91 -13.36,8.91 -2.69,0 -4.46,-1.76 -4.46,-4.46zm0 -22.82l17.82 0 0 8.91 -17.82 0 0 -8.91zm-153.07 8.91l-21.15 0c-2.14,0 -6.44,-2.49 -10.02,-2.79l0 -15.03 36.73 0c0,11.28 1.85,17.82 -5.56,17.82zm101.86 0l-27.27 0c-6.16,0 -4.45,-8.94 -4.45,-17.82l36.73 0c0,8.02 1.7,17.82 -5.01,17.82zm51.21 -22.83c0,-5.82 6.67,-4.45 13.36,-4.45 5.3,0 4.46,5.25 4.46,8.91l-17.82 0 0 -4.46zm-248.26 0l0 -36.73c0,-5.3 5.25,-4.46 8.91,-4.46l0 45.65c-3.66,0 -8.91,0.84 -8.91,-4.46zm165.33 -8.9c0,-2.03 1.53,-4.45 3.33,-4.45l28.95 0c4.69,0 4.45,4.5 4.45,8.35l-36.73 0 0 -3.9zm-101.31 2.23c0,-3.75 0.67,-6.68 4.45,-6.68l28.95 0c3.83,0 3.33,6.24 3.33,8.35l-36.73 0 0 -1.67zm138.04 -16.7l0 -17.82 18.37 0 0 82.39 -18.37 0 0 -10.02c5.67,-1.32 9.47,-7.3 9.47,-14.48l0 -23.93c0,-4.27 -1,-7.59 -2.77,-10.04 -0.86,-1.2 -1.65,-2.2 -3.03,-3.09 -1.58,-1.03 -3.67,-1.11 -3.67,-3.01zm-46.2 13.36l0 28.94c0,5.51 4.61,11.1 8.91,12.25l0 10.02 -17.81 0 0 -82.39 17.81 0 0 17.82c0,2.1 -2.47,1.7 -5.72,5.41 -1.45,1.66 -3.19,5.04 -3.19,7.95zm-54.55 -13.36l0 -17.82 17.81 0 0 82.39 -22.26 0c-0.82,-3.07 -6.51,-6.99 -7.8,-8.91 7.03,0 10.43,0.66 14.95,-2.31 3.05,-2.01 6.21,-6.23 6.21,-11.05l0 -27.83c0,-4.92 -2.25,-8.91 -5.8,-11.46 -1.34,-0.97 -3.11,-1.39 -3.11,-3.01zm-46.76 15.03l0 26.71c-27.13,0 -28.21,6.78 -36.18,8.91l0 -72.92c3.57,2.39 4.67,3.89 9.08,5.95 9.23,4.31 21.46,4.14 29.89,-1.5 7.29,10.9 6.68,-0.42 6.68,17.82 0,2.77 -9.47,2.82 -9.47,15.03zm120.24 -32.85l17.81 0 0 17.82 -17.81 0 0 -17.82zm-101.31 8.91c5.84,0 10.55,-2.26 13.74,-6.3 1.65,-2.08 0.76,-2.53 4.07,-2.61l0 17.82 -17.81 0 0 -8.91zm1.11 -9.46c-4.41,0 -8.26,-1.06 -9.46,-5.57 1.42,-2.13 1.64,-1.52 3.94,-5.53 0.85,-1.49 2.56,-4.6 2.74,-6.72 15.14,0 11.79,17.82 2.78,17.82zm72.37 -17.82l73.47 0 0 8.91 -73.47 0 0 -8.91zm-57.34 0l29.5 0 0 8.91 -27.27 0c0,-2.1 -0.22,-2.95 -0.77,-4.79 -0.4,-1.3 -0.99,-3.06 -1.46,-4.12zm-48.43 13.36c-13.5,0 -22.82,-9.96 -22.82,-23.93 0,-17.96 23.99,-29.69 38.56,-15.18 15.49,15.43 3.51,39.11 -15.74,39.11zm31.18 -31.73l143.61 0c7.41,0 16.75,-0.5 23.92,0.02 6.29,0.46 12.26,5.72 12.26,12.23l0 51.77c-6.85,0 -13.36,6.08 -13.36,12.8l0 38.97c0,6.72 6.51,12.8 13.36,12.8l0 19.48c0,6.22 -6.08,12.25 -12.24,12.25l-5.57 0 0 -9.46c0,-6.81 -6.55,-13.36 -13.36,-13.36l-65.68 0c-6.89,0 -13.21,6.99 -13.36,13.91 -37.16,0 -31.39,2.06 -32.6,-5.25 -0.91,-5.51 -3.31,-12.84 -5.81,-17.57 6.06,0 115.65,0.48 118.92,-0.2 4.22,-0.89 7.44,-4.94 7.44,-9.82l0 -99.08c0,-6.38 -4.61,-10.58 -8.35,-10.58l-148.07 0c0,-3.78 -0.7,-5.69 -1.11,-8.91zm-63.46 7.24l0 20.04 -5.57 0c-6.37,0 -12.8,6.37 -12.8,12.8l0 38.97c0,6.4 6.02,12.8 13.92,12.8l4.45 0 0 20.04c0,1.45 -2.17,2.94 -3.11,4.13 -11.04,14.07 -15.26,22.94 -15.26,42.63 0,12.31 6.55,28.17 14.33,36.32 4.3,4.5 5.54,6.35 11.38,10.33 30.7,20.94 71.06,10.09 87.66,-22.9 1.69,-3.36 3.08,-6.56 4.09,-10.39 1.93,-7.36 0.93,-11.14 3.33,-11.14l30.62 0 0 17.26c0,8.76 6.27,15.03 15.03,15.03l61.78 0c16.96,0 15.59,-14.34 15.59,-23.38 7.62,0 9.38,0.68 16.33,-3.15 13.54,-7.48 11.5,-23.45 11.5,-38.04 6.86,0 13.36,-6.18 13.36,-12.8l0 -38.97c0,-6.62 -6.5,-12.8 -13.36,-12.8l0 -45.09c0,-13.4 -3.68,-22.16 -14.85,-26.89 -4.13,-1.75 -6.89,-1.5 -12.42,-1.5l-167.55 0c-5.99,-11.32 -24.45,-17.84 -39.53,-11.13 -6.45,2.86 -12.59,8.83 -15.78,15.38 -1.61,3.3 -3.14,7.82 -3.14,12.45z"/>
   <path class="fil013" d="M72.07 241.23l-0.02 -16.79c0.32,-3.04 0.95,-2.12 2.38,-0.69 2.89,2.89 9.71,9.16 11.56,11.92 -3.53,2.36 -8.58,5.12 -13.92,5.56zm-10.02 -18.92c1.19,2.12 0.56,15.56 0.56,18.92 -6.61,-0.14 -12.71,-5.09 -14.47,-5.56 0.96,-1.44 11.68,-12.77 13.91,-13.36zm36.74 -7.8c-0.41,4.91 -3.39,10.66 -5.57,13.92 -2.97,-1.99 -8.54,-8.32 -11.61,-11.28 -1.42,-1.36 -2.61,-1.86 -0.58,-2.5l17.76 -0.14zm-57.89 13.92c-0.63,-2.37 -5.01,-7.94 -5.01,-13.92 23.02,0 21.46,-1.69 12.94,6.82 -1.78,1.79 -5.82,6.54 -7.93,7.1zm30.61 -18.92c0,8.73 -13.26,2.88 -7.41,-2.97 2.53,-2.53 7.41,-1.11 7.41,2.97zm-30.61 -18.37c2.4,0.64 7.6,6.82 10.44,9.6 1.53,1.5 2.72,1.93 2.92,4.31l-18.37 0c0,-2.87 0.85,-5.51 1.84,-7.61 0.89,-1.88 2.74,-4.71 3.17,-6.3zm52.32 -0.56c0.47,1.76 5.42,7.87 5.57,14.47l-17.26 0c-2.13,0 -0.2,0.17 -1.67,-0.55 0.56,-2.09 11.28,-12.52 13.36,-13.92zm-21.15 5.01l0 -17.26c5.97,0 11.55,4.38 13.92,5.01 -0.67,2.52 -7.47,8.21 -10.44,11.28 -0.87,0.9 -3.48,4.38 -3.48,0.97zm-23.38 -12.25c3.11,-0.83 7.25,-5.01 13.92,-5.01l0 18.37c-2.81,-0.23 -8.45,-7.08 -10.72,-9.32 -3.08,-3.05 -1.7,-1.18 -3.2,-4.04zm-22.82 24.5c0,13.6 3.73,22.92 12.38,31.59 12.12,12.15 30.26,14.92 46.23,8.09 3.61,-1.54 6.29,-3.5 9.17,-5.86 23.27,-19.06 19.12,-55.48 -8.03,-69.08 -27.75,-13.9 -59.75,7.5 -59.75,35.26z"/>
   <path class="fil013" d="M200.65 219.52c0,-6.97 8.91,-6.36 8.91,-0.55 0,6.68 -8.91,4.59 -8.91,0.55zm-9.46 -0.55c0,7.59 6.22,13.91 14.47,13.91 7.25,0 13.36,-5.88 13.36,-15.03 0,-11.32 -15.76,-17.53 -24.08,-8.5 -2.09,2.26 -3.75,5.46 -3.75,9.62z"/>
   <path class="fil013" d="M58.15 67c-6.07,0 -5.81,-8.9 0,-8.9 5.66,0 5.98,8.9 0,8.9zm-13.91 -5.56c0,20.93 27.83,18.77 27.83,1.11 0,-11.66 -14.31,-18.67 -23.53,-10.17 -1.88,1.73 -4.3,5.63 -4.3,9.06z"/>
   <polygon class="fil013" points="44.24,127.12 53.7,127.12 53.7,117.66 44.24,117.66 "/>
   <polygon class="fil013" points="44.24,108.75 53.7,108.75 53.7,99.29 44.24,99.29 "/>
   <polygon class="fil013" points="44.24,145.49 53.7,145.49 53.7,136.03 44.24,136.03 "/>
  </g>
 </g>
</svg>
