<?xml version="1.0" encoding="UTF-8"?>
<!DOCTYPE svg PUBLIC "-//W3C//DTD SVG 1.1//EN" "http://www.w3.org/Graphics/SVG/1.1/DTD/svg11.dtd">
<!-- Creator: CorelDRAW 2019 -->
<svg xmlns="http://www.w3.org/2000/svg" xml:space="preserve" width="300px" height="300px" version="1.1" style="shape-rendering:geometricPrecision; text-rendering:geometricPrecision; image-rendering:optimizeQuality; fill-rule:evenodd; clip-rule:evenodd"
viewBox="0 0 300 300"
 xmlns:xlink="http://www.w3.org/1999/xlink"
 xmlns:xodm="http://www.corel.com/coreldraw/odm/2003">
 <defs>
  <style type="text/css">
   <![CDATA[
    .fil011 {fill:#44d108}
   ]]>
  </style>
 </defs>
 <g id="Слой_x0020_1">
  <metadata id="CorelCorpID_0Corel-Layer"/>
  <path class="fil011" d="M211.56 277.4l73.93 -61.25 -1.31 -1.59c-1.45,-1.75 -4.08,-2 -5.83,-0.54l-3.04 2.51c-1.38,1.15 -3.24,1.52 -4.96,0.99l-52.68 -16.29c-0.98,-0.31 -1.85,-0.9 -2.5,-1.69l-49.65 -59.91 6.9 -8.32 49.91 60.25 48.42 14.96 0.83 -0.68c6.24,-5.17 15.6,-4.29 20.77,1.95l4.7 5.67c1.87,2.25 1.56,5.6 -0.7,7.47l-82.11 68.03c-2.25,1.87 -5.6,1.55 -7.47,-0.7l-4.7 -5.67c-5.17,-6.24 -4.29,-15.6 1.94,-20.77l0.84 -0.7c-1.94,-17.12 -3.89,-34.24 -5.83,-51.37l-45.8 -55.28 6.9 -8.32 48.08 58.04c0.66,0.8 1.08,1.77 1.19,2.79l6.33 55.8c0.2,1.78 -0.51,3.54 -1.89,4.69l-3.04 2.52c-1.75,1.45 -1.99,4.08 -0.55,5.83l1.32 1.58zm-133.06 -213.12c-9.31,1.25 -18.79,-2.4 -24.81,-9.67 -4.72,-5.69 -6.91,-12.93 -6.16,-20.29 0.76,-7.38 4.37,-14 10.16,-18.63 11.12,-8.9 27.97,-7.52 37.5,3.05 6.46,7.16 8.64,17.23 5.83,26.4l45.76 55.22 -6.89 8.32 -49 -59.13c-1.28,-1.55 -1.58,-3.71 -0.75,-5.55 2.71,-6.06 1.59,-13.22 -2.84,-18.15 -5.82,-6.49 -16.18,-7.31 -22.98,-1.87 -3.55,2.84 -5.77,6.89 -6.23,11.42 -0.46,4.51 0.88,8.95 3.78,12.44 4.18,5.05 11,7.19 17.32,5.49 2,-0.54 4.14,0.15 5.46,1.74l49.83 60.14 -6.89 8.32 -49.09 -59.25zm22.48 145.47c-1.94,17.13 -3.89,34.25 -5.83,51.38l0.84 0.69c6.23,5.17 7.11,14.53 1.94,20.77l-4.7 5.67c-1.86,2.25 -5.22,2.57 -7.47,0.7l-82.11 -68.03c-2.26,-1.87 -2.57,-5.22 -0.7,-7.47l4.7 -5.67c5.17,-6.24 14.53,-7.12 20.77,-1.95l0.83 0.68 48.42 -14.96 121.31 -146.42c-2.81,-9.17 -0.63,-19.24 5.83,-26.4 9.53,-10.57 26.38,-11.95 37.5,-3.05 5.79,4.63 9.4,11.25 10.16,18.62 0.76,7.37 -1.44,14.61 -6.16,20.3 -6.02,7.27 -15.5,10.92 -24.81,9.67 -40.17,48.49 -80.34,96.98 -120.52,145.47zm-86.47 6.4l73.93 61.25 1.32 -1.58c1.45,-1.75 1.2,-4.38 -0.55,-5.83l-3.04 -2.52c-1.38,-1.15 -2.09,-2.91 -1.89,-4.69l6.33 -55.8c0.11,-1.02 0.53,-1.99 1.19,-2.78l123.55 -149.13c1.32,-1.59 3.46,-2.28 5.46,-1.74 6.32,1.7 13.14,-0.44 17.32,-5.49 2.9,-3.49 4.24,-7.93 3.78,-12.44 -0.46,-4.53 -2.67,-8.58 -6.23,-11.42 -6.8,-5.44 -17.16,-4.62 -22.98,1.87 -4.43,4.93 -5.55,12.09 -2.84,18.15 0.83,1.84 0.53,4 -0.75,5.55l-124.27 149.99c-0.66,0.79 -1.53,1.38 -2.52,1.69l-52.67 16.29c-1.72,0.53 -3.58,0.16 -4.96,-0.99l-3.04 -2.51c-1.75,-1.46 -4.38,-1.21 -5.83,0.54l-1.31 1.59z"/>
 </g>
</svg>
