<?xml version="1.0" encoding="UTF-8"?>
<!DOCTYPE svg PUBLIC "-//W3C//DTD SVG 1.1//EN" "http://www.w3.org/Graphics/SVG/1.1/DTD/svg11.dtd">
<!-- Creator: CorelDRAW 2019 -->
<svg xmlns="http://www.w3.org/2000/svg" xml:space="preserve" width="300px" height="300px" version="1.1"
     style="shape-rendering:geometricPrecision; text-rendering:geometricPrecision; image-rendering:optimizeQuality; fill-rule:evenodd; clip-rule:evenodd"
     viewBox="0 0 300 300"
     xmlns:xlink="http://www.w3.org/1999/xlink"
     xmlns:xodm="http://www.corel.com/coreldraw/odm/2003">
 <defs>
  <style type="text/css">
   <![CDATA[
    .fil010 {fill:#44d108}
    .str2 {stroke:#44d108;stroke-width:10;stroke-miterlimit:10}
    .str1 {stroke:#44d108;stroke-width:10;stroke-miterlimit:10}
    .str0 {stroke:#44d108;stroke-width:10;stroke-miterlimit:10}
    .str5 {stroke:#44d108;stroke-width:10;stroke-miterlimit:10}
    .str4 {stroke:#44d108;stroke-width:10;stroke-miterlimit:10}
    .str6 {stroke:#44d108;stroke-width:10;stroke-miterlimit:10}
    .str3 {stroke:#44d108;stroke-width:10;stroke-miterlimit:10}
    .fil010 {fill:none;fill-rule:nonzero}
    .fil1 {fill:#44d108;fill-rule:nonzero}
   ]]>
  </style>
 </defs>
    <g id="Слой_x0020_1">
  <metadata id="CorelCorpID_0Corel-Layer"/>
        <g id="_1117476880">
   <polyline class="fil010 str0" points="128.51,236.52 115.5,249.52 50.47,184.5 63.48,171.49 "/>
            <path class="fil010 str1" d="M245.55 76.12l-17.34 -17.34c-2.39,-2.39 -6.27,-2.39 -8.67,0l-13 13.01"/>
            <path class="fil010 str2" d="M230.38 95.63l13 -13.01c2.4,-2.39 2.4,-6.27 0.01,-8.67l-21.68 -21.67"/>
            <path class="fil010 str0"
                  d="M249.89 80.46l26.01 -26.01c2.39,-2.4 2.39,-6.28 0,-8.67l-21.68 -21.68c-2.39,-2.39 -6.27,-2.39 -8.67,0l-26.01 26.01"/>
            <line class="fil010 str3" x1="265.24" y1="34.76" x2="282.58" y2="17.42"/>
            <path class="fil010 str0"
                  d="M80.82 188.83l-13.01 -13c-4.78,-4.79 -4.78,-12.55 0.01,-17.34l104.04 -104.04c4.79,-4.79 12.55,-4.79 17.34,0l56.35 56.35c4.79,4.79 4.79,12.55 0,17.34l-104.04 104.04c-4.79,4.79 -12.55,4.79 -17.34,0l-30.34 -30.34"/>
            <path class="fil010 str4" d="M76.49 245.19l-17.34 -17.34c-2.4,-2.4 -2.4,-6.28 0,-8.67l13 -13.01"/>
            <path class="fil010 str5" d="M95.99 230.01l-13 13.01c-2.4,2.39 -6.28,2.39 -8.67,0l-21.68 -21.67"/>
            <path class="fil010 str6"
                  d="M80.82 249.52l-26.01 26.01c-2.39,2.4 -6.28,2.4 -8.67,0l-21.67 -21.67c-2.4,-2.4 -2.4,-6.28 0,-8.67l26.01 -26.01"/>
            <g>
    <polygon class="fil1" points="38.3,268.77 20.96,286.11 13.89,279.04 31.23,261.7 "/>
   </g>
  </g>
 </g>
</svg>
