<?xml version="1.0" encoding="UTF-8"?>
<!DOCTYPE svg PUBLIC "-//W3C//DTD SVG 1.1//EN" "http://www.w3.org/Graphics/SVG/1.1/DTD/svg11.dtd">
<!-- Creator: CorelDRAW 2019 -->
<svg xmlns="http://www.w3.org/2000/svg" xml:space="preserve" width="300px" height="300px" version="1.1" style="shape-rendering:geometricPrecision; text-rendering:geometricPrecision; image-rendering:optimizeQuality; fill-rule:evenodd; clip-rule:evenodd"
viewBox="0 0 300 300"
 xmlns:xlink="http://www.w3.org/1999/xlink"
 xmlns:xodm="http://www.corel.com/coreldraw/odm/2003">
 <defs>
  <style type="text/css">
   <![CDATA[
    .fil011 {fill:#44d108}
   ]]>
  </style>
 </defs>
 <g id="Слой_x0020_1">
  <metadata id="CorelCorpID_0Corel-Layer"/>
  <g id="_1184840384">
   <path class="fil011" d="M127.8 269.76l44.35 0 0 8.87 -44.35 0 0 -8.87zm-8.87 -34.92l4.88 4.55 7.32 -3.43c0.14,1.72 0.6,2.67 1.01,3.97 0.54,1.71 0.49,3.22 2.32,3.22l31.04 0c2.11,0 3.17,-5.32 3.32,-7.2l7.11 3.52 4.97 -4.75 0.12 26.17 -62.09 0 0 -26.05zm-7.2 -68.74l14.27 -14.55c6.29,3.63 5.57,3.09 8.87,1.67 2.83,-1.21 3.38,-0.14 5.13,-7.63l19.95 0c1.78,7.61 2.3,6.42 5.14,7.63 3.64,1.57 2.45,1.79 8.72,-1.53l14.55 14.28c-3.62,6.28 -3.09,5.56 -1.67,8.86 1.22,2.84 0.15,3.39 7.63,5.13l0 19.96c-1.39,0.32 -3.2,0.84 -4.69,1.41 -2.84,1.08 -4.45,6 -3.68,8 0.41,1.06 1.7,3.36 2.27,4.45l-14.27 14.54c-6.29,-3.62 -5.56,-3.08 -8.86,-1.67 -2.84,1.22 -3.39,0.15 -5.14,7.64l-19.95 0c-1.77,-7.61 -2.3,-6.42 -5.13,-7.64 -3.64,-1.56 -2.46,-1.78 -8.73,1.54l-14.55 -14.28c0.78,-1.34 1.63,-2.86 2.23,-4.2 1.18,-2.61 -1.03,-7.31 -3.09,-8.24 -0.92,-0.41 -3.85,-1.26 -5.1,-1.55l0 -19.96c7.61,-1.77 6.41,-2.3 7.63,-5.13 1.57,-3.64 1.79,-2.46 -1.53,-8.73zm82.04 -8.31l-11.78 -11.51c0.87,-2.77 10.32,-15.24 12.89,-20.09l18.98 18.71c-3.44,1.89 -6.62,4.28 -9.89,6.46 -2.21,1.47 -8.17,5.89 -10.2,6.43zm-88.83 -31.73c2.61,4.82 12.19,17.5 12.89,20.09l-11.51 11.77c-2.78,-0.87 -15.24,-10.31 -20.09,-12.88l18.71 -18.98zm115.31 12.45c3.54,-0.92 14.62,-7.42 18.97,-8.44 0.92,1.37 1.58,2.59 2.93,3.73 3.65,3.09 9.03,6.8 14.26,6.8 -0.73,2.73 -13.15,11.9 -15.94,14.56 -1.36,1.29 -1.99,1.53 -3.33,2.77 -7.64,7.11 -18.9,15.91 -26.87,23.01 -1.56,1.39 -5.44,5.24 -7.08,5.67l0 -13.3c-1.37,-0.66 -5.4,-2.07 -7.2,-2.22 2.77,-5.24 1.22,-4.16 6.32,-7.54 3.57,-2.37 23.76,-16.3 25.83,-16.85l-7.89 -8.19zm-148.56 8.07c2.15,0.66 6.6,4.07 8.66,5.44l16.97 11.31c5.26,3.5 3.69,2.17 6.65,7.76 -1.81,0.15 -5.83,1.56 -7.21,2.22l0 13.3c-1.62,-0.43 -11.44,-9.18 -13.43,-10.95 -2.14,-1.91 -4.38,-4.03 -6.53,-5.68l-20.34 -17.35c-2.22,-1.88 -4.2,-3.9 -6.5,-5.69 -1.89,-1.47 -5.88,-4.35 -6.41,-6.34 9.39,0 16.23,-9.52 17.73,-10.53 2.54,0.59 6.23,2.89 9.19,4.12 1.79,0.73 2.8,1.32 4.48,2.17 1.74,0.87 3.07,1.28 4.63,2.03l-7.89 8.19zm141.48 -14.84l-3.44 -3.78c3.5,-6.51 7.23,-12.49 10.65,-18.95 2.57,0.05 4.24,1.11 13.85,1.11l0.56 11.64c-2.05,0.47 -3.47,1.45 -5.36,2.4 -1.98,1 -3.37,1.44 -5.37,2.39l-10.89 5.19zm-147.45 -16.08l0 -5.54c9.61,0 11.29,-1.06 13.86,-1.11 3.41,6.46 7.14,12.44 10.53,18.84l-3.44 3.78c-1.73,-0.87 -3.19,-1.34 -5.25,-2.29 -1.91,-0.89 -3.41,-1.8 -5.18,-2.59l-11.08 -4.99c0,-2.81 0.56,-3.02 0.56,-6.1zm177.38 0c-0.47,-2.42 1.65,-9.28 4.2,-11.88l2.77 -2.77c5.13,-5.04 15.78,-5.88 22.57,0.64 14.91,14.33 -1.27,36 -18.25,29.33 -4.46,-1.75 -9.41,-6.82 -10.5,-11.68l-0.79 -3.64zm-221.73 0c-0.63,-3.28 1.64,-9.57 4.84,-12.9 3.18,-3.31 6.42,-5.27 11.95,-5.83 1.85,-0.19 5.86,0.59 7.4,1.19 2.05,0.81 3.9,2.14 5.34,3.53 17.6,16.9 -7.71,41.06 -23.58,25.8 -3.97,-3.81 -4.97,-6.74 -5.95,-11.79zm119.74 -4.99c-0.44,-2.81 2.19,-8.85 8.42,-9.29 11.1,-0.78 12.64,16.67 0.89,17.47 -4.88,0.33 -8.63,-3.77 -9.31,-8.18zm-53.77 -7.21c3.82,-1.02 9.29,-11.66 9.42,-17.73 2.4,1.6 30.78,30.48 35.33,35.06 9.31,9.39 26.35,9.4 35.5,0.28 4.77,-4.74 33.06,-33.64 35.6,-35.34 0.12,5.11 2.71,10.65 5.66,14.29 1.24,1.52 1.68,2.89 3.77,3.44 -0.92,3.95 -8.46,14.12 -9.43,17.74l-9.85 -9.55c-0.67,2.15 -14.36,22.03 -16.76,25.63 -3.5,5.27 -2.16,3.69 -7.76,6.65 -0.17,-2.06 -1.29,-7.21 -3.32,-7.21l-31.04 0c-1.82,0 -1.7,1.29 -2.19,2.81 -0.51,1.55 -0.99,2.64 -1.14,4.4 -5.24,-2.77 -4.16,-1.22 -7.54,-6.32 -2.37,-3.57 -16.3,-23.77 -16.85,-25.83l-9.85 9.55 -7.23 -12.98c-0.47,-0.78 -0.82,-1.28 -1.24,-2.09 -0.53,-1.05 -0.65,-1.82 -1.08,-2.8zm44.9 4.44c-0.94,-0.63 -6.65,-5.8 -6.65,-6.65 0,-4.02 5.99,-10.38 8.69,-12.37 11.88,-8.71 28.04,-6.14 36.37,5 0.97,1.29 3.72,5.11 3.72,6.81 0,1.66 -5.35,6.33 -6.66,7.21 -4.28,-18.41 -21.98,-18.51 -30.09,-10.69 -3.14,3.03 -4.26,5.85 -5.38,10.69zm79.82 -23.28c-0.63,-3.28 1.63,-9.57 4.84,-12.91 4.84,-5.03 12.14,-7.46 19.35,-4.63 8.26,3.24 13.67,13.47 9.98,22.88 -0.8,2.05 -2.14,3.9 -3.53,5.34 -10.2,10.62 -27.09,6.12 -30.16,-8.94 -0.39,-1.91 -0.26,-0.62 -0.48,-1.74zm-159.65 0c-0.63,-3.28 1.64,-9.57 4.84,-12.91 3.18,-3.31 6.42,-5.26 11.95,-5.82 10.96,-1.11 22.42,11.23 17.38,24.07 -2.44,6.2 -8.52,10.45 -15.48,11.17 -3.35,0.35 -9.22,-1.62 -11.72,-4.08l-1.89 -1.99c-2.05,-1.91 -3.36,-3.99 -4.17,-6.91 -0.18,-0.64 -0.86,-3.31 -0.91,-3.53zm155.22 -53.77c-0.44,-2.81 2.19,-8.85 8.42,-9.29 4.9,-0.34 8.88,3.89 9.18,8.28 0.73,10.68 -15.75,13.02 -17.6,1.01zm-133.04 0c-0.44,-2.81 2.19,-8.85 8.42,-9.29 4.9,-0.34 8.88,3.89 9.18,8.28 0.34,4.91 -3.88,8.89 -8.29,9.19 -4.88,0.33 -8.63,-3.77 -9.31,-8.18zm-8.87 -1.67c0,5.85 0.94,9.44 4.83,13.47 9.45,9.8 26.87,5.89 30.09,-7.92 6.28,0 12.57,0 18.85,0 7.69,0 12.77,-1.48 12.78,6.62 0.01,12.75 -0.03,25.52 -0.03,38.28 -2.89,0.77 -5.89,3.96 -7.9,5.95 -2.94,2.91 -4.02,4.8 -5.96,8.46 -3.74,-2.5 -28.01,-28.54 -31.11,-30.97 -8.59,-6.75 -19.26,-8.35 -28.96,-3.6 -8.14,3.99 -14.76,13.18 -14.76,21.82l0 6.65c-6.56,0 -10.09,-0.46 -16.28,2.57 -5.41,2.65 -9.55,6.79 -12.2,12.2 -5.05,10.31 -2.77,23.84 5.75,31.24l8.63 7.44c1.24,0.96 1.5,1.43 2.62,2.37l14.11 11.95c1.23,1.15 1.27,1.22 2.67,2.31l39.12 33.5c1.19,0.96 1.61,1.6 2.93,2.62 2.39,1.86 3.36,2.99 5.86,4.67l0 7.76c1.38,0.66 5.4,2.07 7.21,2.22l-3.52 7.11c1.62,2.23 9.61,8.74 9.61,10.63l0 43.23 8.87 0 0 17.74 62.09 0 0 -17.74 8.87 0 0 -43.23c0,-1.89 7.99,-8.4 9.42,-10.54l-3.32 -7.21c1.8,-0.14 5.83,-1.55 7.2,-2.21l0 -7.76c1.02,-0.68 1.92,-1.19 2.91,-2.08 1.16,-1.05 1.41,-1.42 2.64,-2.36 1.21,-0.93 1.48,-1.31 2.64,-2.34 10.02,-8.93 24.62,-20.3 33.8,-28.84l11.06 -9.45c1.26,-1.06 1.65,-1.61 2.94,-2.6l22.1 -19.47c15.91,-20.27 -1.33,-43.73 -18.22,-43.73l-6.65 0 0 -6.65c0,-11.87 -12.52,-24.39 -24.39,-24.39 -8.23,0 -12.18,0.39 -19.03,5.92 -1.11,0.89 -1.82,1.25 -2.69,2.3 -1.07,1.3 -1.2,1.69 -2.53,3.01l-15.53 15.52c-2.69,2.69 -7.98,8.59 -10.67,10.39 -2.46,-4.66 -8.47,-12.97 -13.86,-14.41 0,-12.76 -0.04,-25.53 -0.03,-38.28 0.01,-7.94 4.73,-6.62 12.23,-6.62 6.47,0 12.93,0 19.4,0 3.2,13.73 20.41,17.61 29.82,8.2 6.89,-6.9 6.89,-18.38 0,-25.27 -9.42,-9.43 -26.63,-5.5 -29.82,8.2 -5.29,0 -28.42,-0.81 -32.34,0.91 -10.33,4.56 -8.12,14.23 -8.12,26.25 0,7.58 0,15.15 0,22.73 -3.22,-1.55 -14.53,-1.55 -17.74,0l0 -33.26c0.01,-6.51 -0.29,-11.74 -7.38,-15.36 -4.61,-2.35 -26.96,-1.27 -33.09,-1.27 -4.75,-20.38 -34.92,-15.82 -34.92,3.32z"/>
   <path class="fil011" d="M132.24 191.05c-0.64,-3.28 1.63,-9.57 4.83,-12.91 14.33,-14.9 36,1.27 29.34,18.25 -0.81,2.05 -2.14,3.9 -3.53,5.34 -9.17,9.54 -22.9,6.73 -28.62,-3.84 -0.59,-1.09 -0.92,-1.83 -1.23,-3.2l-0.79 -3.64zm-8.87 -3.33l0 4.44c0,11.87 12.52,24.39 24.39,24.39 6.68,0 12.18,-0.44 17.82,-4.91 1.02,-0.8 2.84,-2.13 3.64,-3.01l2.7 -3.4c4.1,-5.38 4.66,-10.84 4.66,-17.51 0,-11.87 -12.51,-24.39 -24.39,-24.39 -8.25,0 -14.86,1.24 -21.22,7.6 -1.63,1.63 -3.94,4.94 -5.03,7.17 -1.16,2.35 -2.57,6.39 -2.57,9.62z"/>
  </g>
 </g>
</svg>
