<?xml version="1.0" encoding="UTF-8"?>
<!DOCTYPE svg PUBLIC "-//W3C//DTD SVG 1.1//EN" "http://www.w3.org/Graphics/SVG/1.1/DTD/svg11.dtd">
<!-- Creator: CorelDRAW 2019 -->
<svg xmlns="http://www.w3.org/2000/svg" xml:space="preserve" width="300px" height="300px" version="1.1" style="shape-rendering:geometricPrecision; text-rendering:geometricPrecision; image-rendering:optimizeQuality; fill-rule:evenodd; clip-rule:evenodd"
viewBox="0 0 300 300"
 xmlns:xlink="http://www.w3.org/1999/xlink"
 xmlns:xodm="http://www.corel.com/coreldraw/odm/2003">
 <defs>
  <style type="text/css">
   <![CDATA[
    .fil013 {fill:#44d108}
   ]]>
  </style>
 </defs>
 <g id="Слой_x0020_1">
  <metadata id="CorelCorpID_0Corel-Layer"/>
  <g id="_1115607376">
   <path class="fil013" d="M257.33 206l23.34 0 0 74.67 -23.34 0 0 -74.67zm-79.33 0l23.33 0 0 74.67 -23.33 0 0 -74.67zm-79.33 0l23.33 0 0 74.67 -23.33 0 0 -74.67zm-79.34 0l23.34 0 0 74.67 -23.34 0 0 -74.67zm191.34 28l37.33 0 0 37.33 -37.33 0 0 -37.33zm-79.34 -4.67l37.34 0 0 28 -37.34 0 0 -28zm-79.33 -32.66l37.33 0 0 37.33 -37.33 0 0 -37.33zm172.67 -56l9.33 0 0 84 -9.33 0 0 -84zm-158.67 -28l9.33 0 0 74.66 -9.33 0 0 -74.66zm121.33 -46.67l84 0 0 65.33 -84 0 0 -65.33zm-158.66 -28l84 0 0 65.33 -84 0 0 -65.33zm158.66 16.92c0,-2.57 2.27,-4.81 2.92,-7.59l78.17 0c0.99,4.24 2.91,3.39 2.91,9.34l-84 0 0 -1.75zm-158.66 -28c0,-2.57 2.26,-4.81 2.91,-7.59l78.17 0c0.99,4.24 2.92,3.39 2.92,9.34l-84 0 0 -1.75zm-9.34 -2.92l0 84c0,2.82 1.85,4.67 4.67,4.67l32.67 0 0 74.66c-13.88,0 -14,-1.1 -14,9.34l-28 0c-2.83,0 -4.67,1.84 -4.67,4.66l0 84c0,2.83 1.84,4.67 4.67,4.67l32.66 0c2.82,0 4.67,-1.84 4.67,-4.67l0 -42 37.33 0 0 42c0,2.83 1.85,4.67 4.67,4.67l32.67 0c2.82,0 4.66,-1.84 4.66,-4.67l0 -18.66 37.34 0 0 18.66c0,2.83 1.84,4.67 4.66,4.67l32.67 0c5.55,0 4.67,-5.5 4.67,-9.33l37.33 0c0,3.83 -0.88,9.33 4.67,9.33l32.66 0c2.83,0 4.67,-1.84 4.67,-4.67l0 -84c0,-2.82 -1.84,-4.66 -4.67,-4.66l-32.66 0c-2.82,0 -4.67,1.84 -4.67,4.66l0 23.34 -4.67 0 0 -84 32.67 0c2.82,0 4.67,-1.85 4.67,-4.67l0 -84c0,-2.09 -2.63,-6.41 -3.5,-8.17 -1.31,-2.65 -1.99,-5.83 -5.84,-5.83l-84 0c-3.84,0 -4.52,3.18 -5.83,5.83 -0.87,1.76 -3.5,6.08 -3.5,8.17l0 84c0,2.82 1.85,4.67 4.67,4.67l32.66 0 0 84 -4.66 0 0 -23.34c0,-2.82 -1.85,-4.66 -4.67,-4.66l-32.67 0c-2.82,0 -4.66,1.84 -4.66,4.66l0 18.67 -37.34 0 0 -18.67c0,-2.82 -1.84,-4.66 -4.66,-4.66l-28 0c0,-10.44 -0.12,-9.34 -14,-9.34l0 -74.66 32.66 0c2.82,0 4.67,-1.85 4.67,-4.67l0 -84c0,-2.09 -2.63,-6.41 -3.5,-8.17 -1.31,-2.65 -1.99,-5.83 -5.83,-5.83l-84 0c-3.85,0 -4.53,3.18 -5.84,5.83 -0.87,1.76 -3.5,6.08 -3.5,8.17z"/>
   <path class="fil013" d="M215.33 98.67c0,-3.51 2.32,-7.9 4.21,-9.79 5.45,-5.45 14.14,-5.45 19.59,0 12.81,12.81 -6.62,32.56 -19.6,19.59 -2,-2.01 -4.2,-6.07 -4.2,-9.8zm-9.33 -1.75l0 3.5c0,10.76 10.82,21.58 21.58,21.58l3.5 0c10.77,0 21.59,-10.82 21.59,-21.58l0 -3.5c0,-10.76 -10.82,-21.59 -21.59,-21.59l-3.5 0c-10.76,0 -21.58,10.83 -21.58,21.59z"/>
   <path class="fil013" d="M56.67 70.67c0,-11.28 14.53,-19.06 23.79,-9.8 12.81,12.81 -6.62,32.57 -19.59,19.6 -2.01,-2.01 -4.2,-6.08 -4.2,-9.8zm-9.34 -1.75l0 3.5c0,10.76 10.82,21.58 21.59,21.58l3.5 0c10.76,0 21.58,-10.82 21.58,-21.58l0 -3.5c0,-10.77 -10.82,-21.59 -21.58,-21.59l-3.5 0c-10.77,0 -21.59,10.82 -21.59,21.59z"/>
  </g>
 </g>
</svg>
