<?xml version="1.0" encoding="UTF-8"?>
<!DOCTYPE svg PUBLIC "-//W3C//DTD SVG 1.1//EN" "http://www.w3.org/Graphics/SVG/1.1/DTD/svg11.dtd">
<!-- Creator: CorelDRAW 2019 -->
<svg xmlns="http://www.w3.org/2000/svg" xml:space="preserve" width="300px" height="300px" version="1.1" style="shape-rendering:geometricPrecision; text-rendering:geometricPrecision; image-rendering:optimizeQuality; fill-rule:evenodd; clip-rule:evenodd"
viewBox="0 0 300 300"
 xmlns:xlink="http://www.w3.org/1999/xlink"
 xmlns:xodm="http://www.corel.com/coreldraw/odm/2003">
 <defs>
  <style type="text/css">
   <![CDATA[
    .fil0 {fill:#44d108}
   ]]>
  </style>
 </defs>
 <g id="Слой_x0020_1">
  <metadata id="CorelCorpID_0Corel-Layer"/>
  <path class="fil0" d="M244.9 273.22c-0.44,-1.96 -0.08,-87.14 -0.08,-95.51 0,-6.84 0.11,-11.3 5.69,-13.46 3.4,-1.32 13.98,-0.63 18.53,-0.63 3.71,0 5.42,-0.26 8.02,1.57 1.71,1.21 3.44,3.24 3.72,5.92 0.41,3.82 0.08,70.56 0.08,76.36 0,3.65 0.58,25.78 -0.68,28.23 -1.06,2.05 -2.65,3.73 -4.84,4.65 -2.09,0.87 -15.6,0.48 -18.87,0.49 -3.91,0 -5.39,0.1 -8.06,-1.69 -1.72,-1.15 -3.01,-3.7 -3.51,-5.93zm2.12 -29.14c0.53,0.6 15.4,10.55 16.04,10.43l15.63 -10.23c-0.2,-1.4 -2.45,-4.3 -3.41,-5.74l-1.45 -1.66c-1.4,0.41 -9.27,5.9 -10.77,6.93 -1.97,-0.77 -6.89,-4.41 -9.05,-5.86 -2.87,-1.91 -2.31,-1.08 -4.07,1.49 -0.72,1.06 -2.71,3.89 -2.92,4.64zm-0.01 22.55c0.77,0.79 15.5,10.6 16.05,10.53l11.57 -7.62c1.43,-1.01 3.11,-1.81 3.9,-2.91 -0.27,-1.53 -1.35,-2.67 -2.1,-3.79 -0.51,-0.76 -0.7,-1.06 -1.21,-1.79 -0.23,-0.32 -0.36,-0.54 -0.61,-0.85l-0.78 -0.81c-1.66,0.74 -3.87,2.42 -5.33,3.41 -1.67,1.11 -3.67,2.52 -5.44,3.57 -2.27,-0.73 -8.96,-6.27 -11.08,-6.98 -0.71,0.44 -4.67,6.37 -4.97,7.24zm16.05 -79.7l13.64 -9.06c3.9,-2.45 0.91,-2.27 -2.43,-8.69 -1.54,0.16 -1.96,0.68 -3.01,1.47 -0.88,0.67 -1.89,1.23 -2.72,1.79 -7.11,4.78 -4.12,4.6 -13.81,-1.7 -1.11,-0.72 -1.6,-1.43 -3.18,-1.53 -4.54,8.54 -6.99,5.39 0.1,10.31 2.39,1.66 9.56,6.74 11.41,7.41zm-226.19 22.6c1.93,-0.69 6.24,-3.86 8.22,-5.18l7.82 -5.38c-0.31,-1.5 -3.69,-5.89 -4.45,-7.26 -1.44,0.21 -2.02,0.84 -3.05,1.58l-8.1 5.35c-1.88,-0.42 -8.57,-5.92 -11.08,-6.97l-1.39 1.7c-0.89,1.27 -3.18,4.34 -3.49,5.69l15.52 10.47zm210.29 -10.56c1.49,1.36 14.52,10.03 16.04,10.56 1.68,-1.75 14.98,-9.42 15.3,-10.56 -0.21,-1.99 -3.2,-5.25 -4.28,-7.29 -1.87,0.34 -4.19,2.39 -5.76,3.42 -1.62,1.07 -3.86,2.79 -5.4,3.54 -1.96,-0.42 -8.51,-5.93 -11.08,-6.96 -0.99,0.72 -4.51,5.78 -4.82,7.29zm-220.91 -19.19c12.55,8.24 9.72,8.11 14.27,5.04 16.5,-11.12 13.17,-6.11 7.99,-15.61 -1.52,0.11 -2.09,0.82 -3.15,1.56 -1.28,0.9 -7.55,5.16 -8.32,5.11 -0.64,-0.04 -4.74,-2.93 -5.52,-3.46 -1.46,-0.97 -4.03,-3.09 -5.72,-3.24 -0.94,1.84 -3.8,5.11 -4.27,7.03l4.72 3.57zm10.76 97.51c0.26,-0.09 13.89,-8.68 15.45,-10.26l0.32 -0.4c-0.22,-1.29 -3.84,-6.68 -4.69,-7.24 -1.86,0.8 -3.66,2.28 -5.52,3.52 -1.63,1.09 -3.35,2.33 -5.26,3.46 -3.23,-1.13 -7.8,-5.71 -11.08,-6.99l-1.38 1.67c-1.02,1.47 -3.06,4.14 -3.32,5.58 1.03,1.42 13.11,8.91 15.48,10.66zm-15.62 -55.87c0.49,0.77 9.69,6.74 11.72,8.09 0.93,0.61 3.15,2.46 4.17,2.39 0.71,-0.04 14.84,-9.47 15.86,-10.52l-4.61 -6.99c-2.81,0.23 -8.67,6.12 -11.56,6.81l-10.74 -7.11c-0.74,0.68 -4.5,6.18 -4.84,7.33zm0.06 22.76c0.93,0.93 15.2,10.4 15.83,10.34 0.32,-0.03 14.48,-9.3 15.75,-10.34 -0.15,-0.8 -3.86,-6.6 -4.64,-7.19 -2.16,-0.02 -9.59,6.57 -11.16,6.71 -1.05,0.09 -8.84,-6.22 -11,-6.82 -0.36,0.29 -0.17,0.11 -0.52,0.46 -1.07,1.08 -4.17,5.84 -4.26,6.84zm225.54 -22.76c0.91,0.9 15.38,10.66 16.07,10.6 1.88,-0.89 5.7,-3.64 7.87,-5.13 1.59,-1.1 6.93,-4.28 7.75,-5.47 -0.33,-1.14 -4.11,-6.67 -4.85,-7.33 -1.7,1.07 -9.57,6.77 -11.07,7.05l-10.77 -7.07c-0.97,0.99 -4.25,5.88 -5,7.35zm-191.95 51.8c-0.39,1.47 -0.43,2.13 -1.16,3.37 -0.51,0.88 -1.31,1.96 -2.24,2.56 -2.58,1.69 -4.31,1.69 -8.04,1.69 -3.28,-0.01 -16.78,0.39 -18.87,-0.49 -2.11,-0.88 -3.85,-2.7 -4.84,-4.64 -0.99,-1.92 -0.68,-6.53 -0.68,-9.08l0 -76.64c0,-5.12 -0.55,-14.56 0.1,-19.17 0.36,-2.52 1.97,-4.42 3.69,-5.63 2.6,-1.83 4.32,-1.57 8.02,-1.57 27.15,0.01 24.23,-2.66 24.23,33.25 0,4.37 0.4,74 -0.21,76.35zm81.4 -52.44c1.52,2.38 1.58,4.4 4.78,7.21 6.32,5.54 16.06,3.85 20.38,-3.2 0.85,-1.4 1.3,-2.97 1.99,-4.28l0.04 15.22 -27.15 0.1 -0.04 -15.05zm99.35 14.99c-11.14,0.85 -9.11,-3.25 -9.11,-17.64 0,-3.08 -0.93,-8.87 4.33,-9.35 0.75,-0.06 3.91,-0.2 4.4,0.12 0.82,0.53 0.43,3.02 0.43,4.14 -0.01,6.95 0.35,16.45 -0.05,22.73zm-171.51 0c-0.11,-1.67 -0.41,-26.09 0.19,-26.73 0.39,-0.41 1,-0.33 1.85,-0.32 8.8,0.07 7.07,3.27 7.07,18.09 0,6.5 0.49,9.69 -9.11,8.96zm108.32 -17.9l45.15 -0.09 0.04 8.73c-1.79,0.34 -42.48,0.36 -45.17,0.04l-0.02 -8.68zm-90.32 0.03l45.13 -0.12 0.06 8.77c-2.76,0.33 -43.45,0.29 -45.17,-0.04l-0.02 -8.61zm63.37 0.83c-1.14,-6.31 8.01,-7.28 8.77,-1.78 0.85,6.17 -7.82,6.99 -8.77,1.78zm-8.03 -6.58c-0.12,1.01 -0.09,0.88 -0.4,1.72 -0.53,1.44 -0.55,1.11 -0.85,1.43 -0.19,-2.35 -0.4,-13.95 0.13,-15.62l27.08 -0.1c0.51,1.79 0.3,13.36 0.11,15.72 -0.65,-0.68 0.05,0.5 -0.62,-0.85l-0.98 -2.8c-3.41,-7.72 -15.69,-10.89 -22.59,-2.42 -0.61,0.75 -1.51,2.54 -1.88,2.92zm8.16 -129.81l8.5 0c0.59,0.63 0.44,-0.94 0.51,1.06 0,17.86 0,35.73 0,53.59l0 50.3c0.03,4.37 0.53,3.61 -7.02,3.63 -1.35,0.01 -1.7,0.02 -2.08,-0.32 -0.05,-0.06 -0.11,-0.24 -0.13,-0.2 -0.32,0.89 -0.29,-5.55 -0.29,-6.1l0 -47.01c0,-17.96 0,-35.92 0,-53.89 0.08,-2.04 -0.07,-0.36 0.51,-1.06zm17.87 14.55l-0.01 -14.57 14.62 -0.06c-0.79,4.2 -10.43,14.21 -14.61,14.63zm-41.84 -14.58l14.51 -0.05 0.12 14.63c-2.4,-0.31 -7.41,-4.5 -8.77,-5.95 -2.36,-2.49 -4.61,-5.04 -5.86,-8.63zm-2.86 -9c-0.89,-3.25 -0.54,-5.69 -0.11,-9.11l62.29 -0.01c0.72,2.69 0.7,6.19 -0.02,9.18l-62.16 -0.06zm2.83 -18.08c0.21,-1.92 3.21,-5.79 4.43,-7.2 10.35,-11.98 28.34,-14.38 41.64,-5.35 3.39,2.3 10.03,9.07 10.44,12.56l-56.51 -0.01zm14.64 60.87c-3.7,0.19 -13,-5.3 -15.58,-7.24 -15.27,-11.49 -21.83,-26.61 -19.96,-47.62 0.17,-1.96 1.55,-7.02 2.29,-9.05 2.89,-7.92 7.63,-14.9 13.68,-20.37 18.63,-16.85 47.49,-16.94 66.36,0 23.51,21.11 21.58,58.33 -4,77.04 -2.59,1.9 -11.77,7.43 -15.57,7.24l0.02 -9.09c17.29,-6.12 29.82,-23.64 26.35,-45.5 -2.84,-17.87 -19.72,-33.39 -39.23,-33.4 -23.68,-0.01 -41.19,18.19 -41.23,40.32 -0.02,9.02 2.6,18.09 8.06,24.78 4.57,5.6 11.42,11.69 18.79,13.81l0.02 9.08zm-126.36 60.51l0 98.15c1.05,1.58 1.27,8.35 9.22,12.89 3.93,2.24 5.78,2.34 10.36,2.34l12.08 0c6.9,0 11.8,0.09 17.22,-5.33 6.88,-6.87 5.28,-14.85 5.28,-24.61 0,-4.21 -0.42,-11.34 0.12,-15.2 5.85,-0.42 9.94,0.7 14.79,-4.95 1,-1.18 1.76,-3.27 2.49,-4l45.9 -0.05c0.97,11.61 11.91,8.83 22.36,8.83 4.13,0 11.87,0.45 15.58,-0.08 4.27,-0.62 6.72,-4.38 7.09,-8.61l46.11 -0.15c1.32,3.34 3.09,5.46 5.82,7.09 3.96,2.36 6.3,1.56 11.24,1.92 0.86,6.17 -0.61,22.67 0.26,29.41 0.75,5.84 3.66,9.87 7.82,12.54 4.95,3.18 6.29,3.19 11.95,3.19l13.17 0c4.33,0 7.48,0.03 11.51,-2.11 8.52,-4.54 9.04,-12.79 9.57,-13.73l0 -103.4c-0.63,-0.94 -1.04,-12.01 -13.15,-15.52 -3.85,-1.12 -23.56,-1.04 -27.58,-0.05 -6.24,1.53 -12.96,7.97 -13.36,15.33 -0.53,9.5 0.26,19.53 -0.11,29.1 -5.96,0.55 -12.75,-0.98 -17.06,8.85 -1.79,0.35 -43.01,0.39 -46.08,0.07 -0.47,-5.87 2.38,-15.66 -7.62,-17.76 -2.16,-0.45 -1.41,-0.51 -1.41,-7.37 0,-8.69 -0.44,-56.6 0.29,-57.52 0.78,-0.69 3.64,-1.23 4.98,-1.64 24.34,-7.56 42.52,-33.86 39.57,-60.77 -2.42,-22.01 -14.93,-38.79 -32.96,-47.6 -12.19,-5.95 -29.91,-7.96 -42.83,-3.23 -3.33,1.22 -6.25,2.31 -9.32,3.84 -6.03,2.98 -11.42,7.34 -15.33,11.31 -8.89,9.02 -15.84,22.77 -16.51,36.44 -1.14,23.22 8.76,41.93 26.19,53.45 4.41,2.92 12.77,7.13 18.5,7.86 0.61,2.1 0.23,49.54 0.23,57.56 0,10.11 0.53,6.61 -3.29,8.16 -7.84,3.19 -5.28,11.38 -5.74,17.27 -3.08,0.33 -44.29,0.28 -46.09,-0.07 -4.32,-9.9 -11.09,-8.3 -17.06,-8.85 -0.36,-9.4 0.23,-19.07 -0.08,-28.49 -0.26,-7.55 -6.33,-13.74 -12.42,-15.68 -3.92,-1.25 -22.71,-1.43 -27.26,-0.48 -5.6,1.18 -9.7,4.53 -12.26,9.08 -2.82,5.04 -2.18,6.44 -2.18,12.57z"/>
 </g>
</svg>
