<?xml version="1.0" encoding="UTF-8"?>
<!DOCTYPE svg PUBLIC "-//W3C//DTD SVG 1.1//EN" "http://www.w3.org/Graphics/SVG/1.1/DTD/svg11.dtd">
<!-- Creator: CorelDRAW 2019 -->
<svg xmlns="http://www.w3.org/2000/svg" xml:space="preserve" width="300px" height="300px" version="1.1" fill="#0039a6"
     style="shape-rendering:geometricPrecision; text-rendering:geometricPrecision; image-rendering:optimizeQuality; fill-rule:evenodd; clip-rule:evenodd"
     viewBox="0 0 300 300"
     xmlns:xlink="http://www.w3.org/1999/xlink"
     xmlns:xodm="http://www.corel.com/coreldraw/odm/2003">
 <g id="Слой_x0020_1">
  <metadata id="CorelCorpID_0Corel-Layer"/>
     <g id="_1292127568">
   <path d="M136.5 184.87l-23.14 -21.58 -84.07 90.15c-6.04,6.47 5.35,14.9 10.48,19.68 9.75,9.09 14.55,-0.13 25.7,-12.09 -7.82,-7.28 -15.88,-11.96 -9.97,-18.3 5.26,-5.64 12.78,3.8 18.51,9.14l11.69 -12.53c-7.82,-7.29 -15.88,-11.96 -9.97,-18.31 5.26,-5.64 12.77,3.8 18.51,9.15l42.26 -45.31zm127.34 -146.23l-12.21 -11.39c-5.05,-4.02 -10.51,-6.7 -18.74,-6.89 -7.66,-0.17 -10.61,1.25 -16.67,3.62 -9.28,-8.66 -12.05,-11.58 -21.43,-12.79 -6.48,-0.84 -14.48,1.04 -20.72,7.73l-84.06 90.15c-8.2,8.79 -7.62,25.34 1.17,33.54l13.02 12.14 -83.17 89.18c-4.14,4.44 -5.46,9.62 -5.47,14.18 -0.03,11.74 8.33,16.42 18.53,25.94 6.94,6.47 19.86,6.73 26.12,0.02l84.96 -91.11 14.95 13.93c8.9,8.3 25.24,7.73 33.54,-1.17l84.96 -91.11c5.75,-6.17 6.63,-15.46 5.25,-21.64 -1.87,-8.41 -7.69,-13.08 -16.06,-20.89 4.11,-5.22 3.05,-18.91 0.69,-25.21 -0.84,-2.22 -2.67,-6.38 -4.66,-8.23zm-161.19 98.44l62.19 57.99c7.93,7.4 15.42,7.62 22.84,-0.33l80.02 -85.81c5.54,-5.95 5.88,-14.34 1.69,-18.25l-68.94 -64.28c-6.18,-5.77 -14.03,-3.32 -19.95,3.02l-78.67 84.37c-7.69,8.25 -7.43,15.59 0.82,23.29zm123.7 -103.66l31.82 29.67c0.72,-4.5 0.56,-7.02 -1.16,-11.62 -4.93,-13.16 -19,-22.09 -30.66,-18.05z"/>
         <path d="M239.48 88.93l-34.71 -32.37c-2.4,-2.24 -7.89,5.56 -12.23,10.22 3.11,4.63 31.32,30.94 36.15,33.72l10.79 -11.57zm7.36 10.47c-5.87,6.29 -16.37,19.88 -27.17,9.81l-35.19 -32.82c-10.77,-10.04 2.2,-21.69 7.89,-27.79 5.59,-6.01 14.71,-7.01 20.46,-1.65l34.23 31.92c5.67,5.29 5.73,14.14 -0.22,20.53z"/>
         <path d="M198.12 133.28c6.06,-6.5 10.86,-9.71 8.45,-11.96l-33.27 -31.02c-2.41,-2.25 -5.27,2.76 -11.33,9.26 -1.04,1.11 -1.02,1.76 0.09,2.8l33.27 31.01c1.11,1.04 1.76,1.02 2.79,-0.09zm17.25 -0.14c-7.84,8.41 -16.41,20.75 -30.03,8.05l-30.37 -28.33c-13.15,-12.26 -2.18,-21.82 5.48,-30.04 5.9,-6.32 15.01,-6.73 19.02,-2.99l37.12 34.61c3.48,3.26 4.77,12.29 -1.22,18.7z"/>
         <path d="M176.09 156.9l-36.15 -33.72 -10.79 11.57c3.11,4.63 31.32,30.94 36.16,33.72l10.78 -11.57zm7.37 10.47c-5.87,6.29 -16.37,19.88 -27.18,9.81l-35.19 -32.82c-2.81,-2.62 -3.9,-6.79 -3.87,-9.66 0.09,-8.07 18.85,-32.25 32.22,-19.78l34.23 31.92c5.94,5.54 5.56,14.34 -0.21,20.53z"/>
  </g>
 </g>
</svg>
