<svg height='300px' width='300px'  fill="#0039a6" xmlns="http://www.w3.org/2000/svg" xmlns:xlink="http://www.w3.org/1999/xlink" version="1.1" x="0px" y="0px" viewBox="0 0 64 64" style="enable-background:new 0 0 64 64;" xml:space="preserve"><g><path d="M62.014,28.995l-0.027-0.162C61.904,28.352,61.488,28,61,28h-5c-0.294,0-0.573,0.129-0.764,0.354   c-0.189,0.225-0.271,0.521-0.223,0.812l0.027,0.161c0.468,2.809,0.765,5.722,0.885,8.673H52V28c0-1.654-1.346-3-3-3h-2   c-0.552,0-1-0.449-1-1v-2c0-1.654-1.346-3-3-3h-8v-3h11c0.553,0,1-0.448,1-1v-4c0-0.552-0.447-1-1-1H18c-0.553,0-1,0.448-1,1v4   c0,0.552,0.447,1,1,1h11v3h-6.764c-1.144,0-2.172,0.635-2.684,1.658l-0.895,1.789C18.487,22.788,18.145,23,17.764,23H13   c-1.654,0-3,1.346-3,3v7H7v-7c0-0.552-0.447-1-1-1H2c-0.553,0-1,0.448-1,1v20c0,0.552,0.447,1,1,1h4c0.553,0,1-0.448,1-1v-7h3v8   c0,1.654,1.346,3,3,3h5.172c0.263,0,0.521,0.107,0.707,0.293l3.828,3.828C23.273,54.688,24.027,55,24.828,55H49   c1.654,0,3-1.346,3-3v-8h3.926c-0.101,2.333-0.313,4.646-0.635,6.889l-0.281,1.969c-0.041,0.287,0.045,0.578,0.234,0.797   C55.435,53.874,55.71,54,56,54h5c0.498,0,0.92-0.366,0.99-0.858l0.281-1.969C62.755,47.787,63,44.337,63,40.918   C63,36.935,62.668,32.924,62.014,28.995z M28,40v-2h22v2H28z M31,49c-0.553,0-1,0.448-1,1v3h-2V42h2v4c0,0.552,0.447,1,1,1   s1-0.448,1-1v-4h2v11h-2v-3C32,49.448,31.553,49,31,49z M36,42h2v11h-2V42z M40,42h2v11h-2V42z M42,36h-6v-4h6V36z M44,22v2   c0,1.654,1.346,3,3,3h2c0.552,0,1,0.449,1,1v8h-6v-5c0-0.552-0.447-1-1-1h-8c-0.553,0-1,0.448-1,1v5h-6v-9h13c0.553,0,1-0.448,1-1   s-0.447-1-1-1H28v-4h15C43.552,21,44,21.449,44,22z M30,14H19v-2h26v2H34c-0.553,0-1,0.448-1,1v4h-2v-4C31,14.448,30.553,14,30,14z    M6,37c-0.553,0-1,0.448-1,1v7H3V27h2v7c0,0.552,0.447,1,1,1h4v2H6z M12,47V26c0-0.551,0.448-1,1-1h3v4c0,0.552,0.447,1,1,1h3   c0.552,0,1,0.449,1,1v10c0,0.551-0.448,1-1,1h-3c-0.553,0-1,0.448-1,1v5h-3C12.448,48,12,47.551,12,47z M24.121,52.707   l-3.828-3.828C19.727,48.312,18.973,48,18.172,48H18v-4h2c1.654,0,3-1.346,3-3V31c0-1.654-1.346-3-3-3h-2v-3.016   c1.047-0.081,1.971-0.69,2.447-1.642l0.895-1.789C21.513,21.212,21.855,21,22.236,21H26v32h-1.172   C24.565,53,24.308,52.893,24.121,52.707z M50,52c0,0.551-0.448,1-1,1h-1v-6c0-0.552-0.447-1-1-1s-1,0.448-1,1v6h-2V42h2v1   c0,0.552,0.447,1,1,1s1-0.448,1-1v-1h2V52z M60.291,50.889L60.133,52h-2.979l0.118-0.828c0.378-2.646,0.61-5.386,0.691-8.143   c0.008-0.271-0.095-0.532-0.282-0.726C57.492,42.109,57.233,42,56.963,42H52v-2h4.96c0.27,0,0.528-0.109,0.717-0.302   c0.188-0.193,0.29-0.455,0.283-0.725c-0.081-3.044-0.346-6.057-0.787-8.973h2.977C60.714,33.603,61,37.272,61,40.918   C61,44.243,60.762,47.598,60.291,50.889z"></path><circle cx="17" cy="36" r="1"></circle><circle cx="47" cy="33" r="1"></circle><circle cx="31" cy="33" r="1"></circle></g></svg>