<svg height="300" width="300" fill="#0039a6" xmlns="http://www.w3.org/2000/svg" viewBox="0 0 100 100" xml:space="preserve"><path fill="none" d="m81.299 65.132 4.702 2.92c.15-.288.297-.576.439-.865l-5.14-2.061-.001.006zM78.059 70.316l4.127 3.695c.196-.254.391-.513.582-.774l-4.707-2.924-.002.003zM50 16.16c-13.006 0-24.956 7.851-30.246 19.672 2.023-.105 4.285-.224 6.596-.346 10.034-.529 21.407-1.129 23.65-1.129s13.616.6 23.65 1.129c2.311.122 4.572.241 6.594.346C74.956 24.011 63.006 16.16 50 16.16zM83.574 59.457l5.146 2.063c.097-.309.192-.618.282-.93l-5.426-1.139-.002.006z"/><path fill="none" d="M17.572 35.944C22.955 22.919 35.895 14.203 50 14.203c14.106 0 27.044 8.716 32.428 21.741 2.866.146 4.932.244 5.381.244.215 0 .427.014.638.032C82.889 19.926 67.314 8.684 50 8.684c-17.314 0-32.889 11.242-38.447 27.536.211-.019.422-.032.638-.032.449.001 2.515-.098 5.381-.244zM69.179 78.65l2.615 4.886c.273-.174.544-.352.81-.531l-3.422-4.356-.003.001zM63.791 81.541l1.728 5.268c.299-.124.597-.251.892-.383l-2.617-4.887-.003.002zM73.983 74.87l3.422 4.353c.237-.218.473-.438.705-.662l-4.124-3.693-.003.002zM85.05 51.326c-.021.88-.086 1.382-.203 2.15l5.408 1.135c.2-1.524.297-3.064.325-4.598a7.152 7.152 0 0 1-2.772.557c-.116.008-.653.107-2.758.756z"/><path fill="none" d="M87.809 38.145c-.522 0-2.767-.107-6.029-.275l-.004.001-.011-.002c-2.31-.119-5.125-.267-8.217-.43-9.515-.501-21.356-1.126-23.548-1.126s-14.033.625-23.547 1.126c-7.47.394-13.371.706-14.262.706a5.24 5.24 0 0 0-5.234 5.233c0 1.694.822 3.187 2.074 4.145.043.034.089.062.125.103a5.19 5.19 0 0 0 3.035.987c.466 0 1.697.326 4.01 1.053.035.01.07.018.103.033 2.309.728 5.668 1.844 10.389 3.423 4.097 1.372 8.334 2.79 12.183 4.026.344.111.598.4.663.756.775 4.23 1.761 9.318 2.63 13.807.913 4.713 1.605 8.307 2.046 10.744a.943.943 0 0 1 .035.192c.338 1.882.516 3.036.516 3.434 0 2.886 2.348 5.234 5.234 5.234s5.234-2.348 5.234-5.234c0-.406.186-1.599.537-3.547v-.001c.44-2.442 1.141-6.073 2.065-10.846.867-4.481 1.851-9.561 2.625-13.784a.979.979 0 0 1 .663-.755c3.843-1.235 8.075-2.651 12.167-4.02 3.943-1.319 7.666-2.565 10.305-3.398 3.263-1.03 3.885-1.117 4.212-1.117a5.24 5.24 0 0 0 5.234-5.235 5.238 5.238 0 0 0-5.233-5.233zM55.794 49.253c-.293 4.894-2.721 8.509-5.794 8.509-3.072 0-5.5-3.615-5.794-8.509-2.326-1.084-3.694-2.788-3.694-4.641 0-3.269 4.168-5.829 9.488-5.829 5.321 0 9.489 2.56 9.489 5.829 0 1.853-1.369 3.556-3.695 4.641z"/><path fill="none" d="M50 40.739c-4.438 0-7.532 2.041-7.532 3.872 0 1.155 1.168 2.334 3.049 3.077.367.145.61.495.619.888.085 3.919 1.854 7.229 3.863 7.229s3.779-3.31 3.863-7.229a.979.979 0 0 1 .619-.889c1.881-.743 3.05-1.922 3.05-3.077.002-1.83-3.092-3.871-7.531-3.871zM42.422 83.543a34.947 34.947 0 0 1-27.441-32.207c-1.46-.453-2.496-.745-2.807-.766a7.106 7.106 0 0 1-2.762-.557c.344 19.834 14.782 36.325 34.21 39.377a7.143 7.143 0 0 1-.813-3.308c-.001-.261-.148-1.19-.387-2.539z"/><path fill="none" d="M42.042 81.453c-.487-2.623-1.145-6.023-1.794-9.37-.831-4.292-1.768-9.131-2.528-13.251-3.709-1.196-7.742-2.546-11.648-3.853-3.126-1.046-6.461-2.162-9.094-3.01a33 33 0 0 0 25.064 29.484zM57.191 86.081a7.139 7.139 0 0 1-.806 3.294 40.238 40.238 0 0 0 3.33-.659l-1.725-5.262c-.136.032-.275.06-.412.09-.239 1.349-.386 2.277-.387 2.537z"/><path d="M74.614 72.805a.978.978 0 0 0-1.34.033 33.26 33.26 0 0 1-1.272 1.19.978.978 0 0 0-.119 1.336l4.628 5.889a.985.985 0 0 0 .769.374.98.98 0 0 0 .643-.241 43.073 43.073 0 0 0 2.311-2.171c.188-.19.29-.45.283-.717a.98.98 0 0 0-.326-.699l-5.577-4.994zm2.791 6.419-3.422-4.353.003-.002 4.124 3.693c-.232.223-.468.444-.705.662zM70.158 76.723a.978.978 0 0 0-1.327-.199 32.53 32.53 0 0 1-1.455.956.98.98 0 0 0-.349 1.294l3.534 6.604a.973.973 0 0 0 .863.516.98.98 0 0 0 .505-.14 42.309 42.309 0 0 0 2.655-1.741.978.978 0 0 0 .201-1.401l-4.627-5.889zm1.636 6.812-2.615-4.886.003-.002 3.422 4.356c-.266.181-.537.358-.81.532zM88.136 65.76l-6.95-2.787a.979.979 0 0 0-1.248.487c-.25.525-.51 1.045-.787 1.554a.979.979 0 0 0 .343 1.299l6.358 3.948a.977.977 0 0 0 1.371-.357 42.294 42.294 0 0 0 1.438-2.829.981.981 0 0 0 .02-.772.985.985 0 0 0-.545-.543zm-2.135 2.292-4.702-2.92.002-.005 5.14 2.061c-.143.288-.29.577-.44.864zM84.686 72.126l-6.363-3.952a.976.976 0 0 0-1.312.263c-.339.474-.687.939-1.049 1.395a.979.979 0 0 0 .115 1.337l5.58 4.996a.98.98 0 0 0 1.411-.113 43.628 43.628 0 0 0 1.904-2.535.978.978 0 0 0-.286-1.391zm-2.5 1.886-4.127-3.695.002-.003 4.707 2.924a41.12 41.12 0 0 1-.582.774zM65.091 79.814a.977.977 0 0 0-1.272-.427c-.526.242-1.06.471-1.602.686a.977.977 0 0 0-.568 1.214l2.336 7.122a.976.976 0 0 0 1.282.608 42.885 42.885 0 0 0 2.918-1.252.98.98 0 0 0 .443-1.345l-3.537-6.606zm.428 6.994-1.728-5.268.004-.002 2.617 4.887c-.296.132-.594.259-.893.383zM90.424 58.89l-7.335-1.539a.977.977 0 0 0-1.144.699 32.825 32.825 0 0 1-.506 1.668.978.978 0 0 0 .565 1.216l6.956 2.789a.959.959 0 0 0 .77-.018.979.979 0 0 0 .519-.57c.344-.995.654-2.018.922-3.039a.977.977 0 0 0-.747-1.206zm-1.703 2.63-5.146-2.063.002-.006 5.426 1.139c-.09.312-.185.621-.282.93z"/><path d="M95 43.378c0-2.943-1.78-5.476-4.319-6.587C85.224 19.068 68.569 6.728 50 6.728c-18.57 0-35.223 12.339-40.681 30.063C6.78 37.902 5 40.434 5 43.378c0 2.147.951 4.072 2.445 5.391-.002.174-.006.347-.006.521 0 21.831 16.301 39.971 37.957 42.308A7.152 7.152 0 0 0 50 93.272a7.156 7.156 0 0 0 4.605-1.675 42.52 42.52 0 0 0 6.623-1.252.98.98 0 0 0 .671-1.249l-2.333-7.114a.979.979 0 0 0-1.177-.642c-.141.037-.286.064-.428.099.488-2.627 1.147-6.029 1.796-9.38.83-4.284 1.765-9.115 2.523-13.228 3.705-1.195 7.732-2.543 11.633-3.848a910.908 910.908 0 0 1 9.15-3.03c-.034.464-.092.855-.183 1.455l-.104.694a.978.978 0 0 0 .767 1.099l7.332 1.538a.973.973 0 0 0 .757-.152.982.982 0 0 0 .411-.653c.344-2.192.519-4.428.519-6.643 0-.175-.004-.349-.006-.524A7.174 7.174 0 0 0 95 43.378zM50 8.684c17.314 0 32.889 11.242 38.447 27.536a7.097 7.097 0 0 0-.638-.032c-.449 0-2.516-.098-5.381-.244C77.044 22.919 64.106 14.203 50 14.203c-14.105 0-27.045 8.716-32.428 21.741-2.866.146-4.932.244-5.381.244-.215 0-.427.014-.638.032C17.111 19.926 32.686 8.684 50 8.684zm30.245 27.148a7491.68 7491.68 0 0 1-6.594-.346C63.616 34.957 52.243 34.357 50 34.357s-13.616.6-23.65 1.129c-2.311.122-4.573.241-6.596.346C25.044 24.011 36.994 16.16 50 16.16s24.956 7.851 30.245 19.672zM9.412 50.013a7.106 7.106 0 0 0 2.762.557c.311.021 1.347.313 2.807.766a34.947 34.947 0 0 0 27.441 32.208c.239 1.349.386 2.277.387 2.538 0 1.193.297 2.317.813 3.308-19.428-3.052-33.865-19.544-34.21-39.377zm7.566 1.955c2.633.848 5.968 1.964 9.094 3.01 3.906 1.307 7.94 2.657 11.648 3.853.759 4.12 1.697 8.959 2.528 13.251.648 3.348 1.306 6.748 1.794 9.37a32.997 32.997 0 0 1-25.064-29.484zm41.011 31.486 1.725 5.262a40.238 40.238 0 0 1-3.33.659 7.136 7.136 0 0 0 .806-3.294c.001-.261.148-1.189.387-2.537.138-.03.276-.058.412-.09zm32.267-28.843-5.408-1.135c.116-.767.181-1.27.203-2.15 2.105-.649 2.642-.748 2.759-.757.982 0 1.918-.199 2.772-.557a41.401 41.401 0 0 1-.326 4.599zm-2.447-5.998c-.327 0-.949.086-4.212 1.117-2.64.833-6.363 2.079-10.305 3.398-4.092 1.369-8.324 2.785-12.167 4.02a.977.977 0 0 0-.663.755c-.774 4.224-1.758 9.303-2.625 13.784-.925 4.773-1.625 8.404-2.065 10.846v.001c-.351 1.948-.537 3.141-.537 3.547 0 2.886-2.348 5.234-5.234 5.234s-5.234-2.348-5.234-5.234c0-.398-.178-1.552-.516-3.434a.943.943 0 0 0-.035-.192c-.44-2.438-1.133-6.031-2.046-10.744-.869-4.489-1.855-9.577-2.63-13.807a.979.979 0 0 0-.663-.756c-3.849-1.236-8.086-2.654-12.183-4.026-4.721-1.579-8.08-2.695-10.389-3.423-.034-.014-.068-.023-.103-.033-2.313-.727-3.544-1.053-4.01-1.053a5.19 5.19 0 0 1-3.035-.987c-.036-.041-.082-.069-.125-.103-1.252-.958-2.074-2.451-2.074-4.145a5.24 5.24 0 0 1 5.234-5.233c.891 0 6.792-.311 14.262-.706 9.514-.502 21.356-1.126 23.547-1.126s14.033.625 23.547 1.126c3.092.163 5.907.312 8.217.43l.011.002.004-.001c3.263.167 5.508.275 6.029.275a5.24 5.24 0 0 1 5.234 5.233 5.24 5.24 0 0 1-5.234 5.235z"/><path d="M50 38.783c-5.32 0-9.488 2.56-9.488 5.829 0 1.853 1.368 3.557 3.694 4.641.294 4.894 2.722 8.509 5.794 8.509 3.073 0 5.501-3.615 5.794-8.509 2.326-1.085 3.695-2.789 3.695-4.641 0-3.269-4.168-5.829-9.489-5.829zm4.482 8.905a.979.979 0 0 0-.619.889c-.084 3.918-1.854 7.229-3.863 7.229s-3.778-3.31-3.863-7.229a.976.976 0 0 0-.619-.888c-1.881-.743-3.049-1.922-3.049-3.077 0-1.831 3.093-3.872 7.532-3.872s7.533 2.041 7.533 3.872c-.001 1.154-1.171 2.333-3.052 3.076z"/></svg>