<svg height='300px' width='300px'  fill="#0039a6" xmlns="http://www.w3.org/2000/svg" xmlns:xlink="http://www.w3.org/1999/xlink" version="1.1" x="0px" y="0px" viewBox="0 0 100 100" style="enable-background:new 0 0 100 100;" xml:space="preserve"><g><circle cx="65" cy="40" r="3"></circle><ellipse cx="65" cy="80" rx="3" ry="3"></ellipse><ellipse cx="65" cy="20" rx="3" ry="3"></ellipse><path d="M66.9,55.1C66.5,52.2,64,50,61,50h-3V16c0-3.3-2.7-6-6-6H42c-3.3,0-6,2.7-6,6v34h-3c-3.3,0-6,2.7-6,6v13c0,3.3,2.7,6,6,6h3   v9c0,3.3,2.7,6,6,6h10c3.3,0,6-2.7,6-6v-9h3c2.6,0,4.9-1.7,5.7-4c3-0.4,5.3-3.4,5.3-6.5v-4C72,57.5,69.8,55.4,66.9,55.1z M40,16   c0-1.1,0.9-2,2-2h10c1.1,0,2,0.9,2,2v34h-5V21c0-1.1-0.9-2-2-2s-2,0.9-2,2v29h-5V16z M54,84c0,1.1-0.9,2-2,2H42c-1.1,0-2-0.9-2-2   v-9h5v4c0,1.1,0.9,2,2,2s2-0.9,2-2v-4h5V84z M63,59v7.3v3.1l-0.1,0.3C62.7,70.3,62,71,61,71H33c-1.1,0-2-0.9-2-2V56   c0-1.1,0.9-2,2-2h28c1,0,1.8,0.7,2,1.7l0,0.2V59z M68,64.5c0,0.7-0.4,1.4-1,1.7V59c0.6,0.3,1,0.8,1,1.5V64.5z"></path></g></svg>