<?xml version="1.0" encoding="UTF-8"?>
<!DOCTYPE svg PUBLIC "-//W3C//DTD SVG 1.1//EN" "http://www.w3.org/Graphics/SVG/1.1/DTD/svg11.dtd">
<!-- Creator: CorelDRAW 2019 -->
<svg xmlns="http://www.w3.org/2000/svg" xml:space="preserve" width="300px" height="300px" version="1.1" style="shape-rendering:geometricPrecision; text-rendering:geometricPrecision; image-rendering:optimizeQuality; fill-rule:evenodd; clip-rule:evenodd"
viewBox="0 0 300 300"
 xmlns:xlink="http://www.w3.org/1999/xlink"
 xmlns:xodm="http://www.corel.com/coreldraw/odm/2003">
 <defs>
  <style type="text/css">
   <![CDATA[
    .fil013 {fill:#44d108;fill-rule:nonzero}
   ]]>
  </style>
 </defs>
 <g id="Слой_x0020_1">
  <metadata id="CorelCorpID_0Corel-Layer"/>
  <g id="_1185698904">
   <path class="fil013" d="M137.23 181.08c2.74,0 4.97,-2.23 4.97,-4.98 0,-9.54 7.77,-17.32 17.32,-17.32l50.95 0c9.55,0 17.32,7.78 17.32,17.32 0,9.56 -7.77,17.33 -17.32,17.33l-37.48 0 12.23 -10.44c2.09,-1.78 2.33,-4.92 0.55,-7.01 -1.78,-2.09 -4.92,-2.34 -7.01,-0.55l-22.47 19.19c-0.22,0.24 -0.31,0.33 -0.4,0.43 -0.28,0.28 -0.33,0.47 -0.44,0.64 -0.15,0.22 -0.32,0.41 -0.42,0.63 -0.06,0.13 -0.1,0.25 -0.14,0.37 -0.09,0.26 -0.13,0.51 -0.18,0.77 -0.05,0.25 -0.11,0.49 -0.12,0.75 0.01,0.64 0.07,0.87 0.12,1.12 0.05,0.27 0.09,0.52 0.18,0.77 0.04,0.13 0.08,0.25 0.14,0.37 0.1,0.23 0.27,0.42 0.42,0.63 0.11,0.17 0.16,0.37 0.29,0.53 0.24,0.21 0.33,0.3 0.43,0.4 0.12,0.15 22.59,19.34 22.59,19.34 0.93,0.8 2.08,1.19 3.23,1.19 1.4,0 2.79,-0.59 3.78,-1.74 1.78,-2.09 1.54,-5.23 -0.55,-7.02l-12.23 -10.43 37.48 0c15.04,0 27.27,-12.23 27.27,-27.27 0,-15.03 -12.23,-27.26 -27.27,-27.26l-50.95 0c-15.03,0 -27.26,12.23 -27.26,27.26 0,2.75 2.22,4.98 4.97,4.98z"/>
   <path class="fil013" d="M13.24 106.83c2.76,0 4.98,-2.23 4.98,-4.98 0,-21.91 12.74,-41.66 31.94,-51.03l-4.07 12.09c-0.87,2.61 0.53,5.43 3.13,6.3 0.53,0.18 1.06,0.26 1.59,0.26 2.07,0 4.01,-1.31 4.7,-3.39l7.43 -22.08c0.04,-0.11 0.01,-0.24 0.04,-0.35 0.05,-0.16 0.11,-0.32 0.14,-0.48 0.03,-0.2 0,-0.42 0,-0.63 0.01,-0.28 0.02,-0.55 -0.02,-0.81 -0.02,-0.17 -0.03,-0.33 -0.07,-0.49 -0.06,-0.32 -0.17,-0.43 -0.22,-0.57 -0.1,-0.25 -0.19,-0.49 -0.33,-0.72 -0.08,-0.16 -0.16,-0.3 -0.27,-0.45 -0.13,-0.17 -0.27,-0.31 -0.42,-0.47 -0.18,-0.19 -0.37,-0.36 -0.58,-0.53 -0.09,-0.07 -0.15,-0.17 -0.25,-0.24l-17.42 -11.45c-2.3,-1.51 -5.38,-0.87 -6.89,1.42 -1.51,2.3 -0.87,5.38 1.42,6.89l9.23 6.05c-23.39,10.72 -39.03,34.38 -39.03,60.68 0,2.75 2.23,4.98 4.97,4.98z"/>
   <path class="fil013" d="M88.61 47.42c21.36,4.87 37.79,21.68 42.66,42.48l-10.89 -6.65c-2.35,-1.43 -5.4,-0.7 -6.84,1.65 -1.43,2.34 -0.69,5.41 1.66,6.84l19.87 12.14c0.15,0.09 0.32,0.13 0.47,0.21 0.08,0.04 0.15,0.11 0.24,0.14 0.77,0.25 1.32,0.38 1.89,0.38 0.08,0 0.17,0 0.25,-0.01 0.59,-0.08 0.99,-0.16 1.36,-0.29 0.13,-0.05 0.25,-0.09 0.37,-0.15 0.09,-0.03 0.18,-0.06 0.26,-0.1 0.43,-0.22 0.84,-0.48 1.19,-0.83 0.01,0 15.05,-14.44 15.05,-14.44 1.98,-1.91 2.05,-5.06 0.15,-7.04 -1.91,-1.97 -5.05,-2.04 -7.04,-0.14l-7.95 7.64c-5.24,-25.18 -24.84,-45.68 -50.49,-51.53 -2.66,-0.61 -5.34,1.06 -5.95,3.74 -0.62,2.68 1.06,5.35 3.74,5.96z"/>
   <path class="fil013" d="M50.92 80.58c-1.7,2.14 -1.34,5.28 0.82,6.98l14.96 11.84 0 6.95 -6.85 0 -11.84 -14.96c-1.71,-2.16 -4.84,-2.51 -6.99,-0.81 -2.15,1.71 -2.52,4.83 -0.81,6.98l6.95 8.79 -10.29 0c-2.74,0 -4.97,2.23 -4.97,4.97 0,2.75 2.23,4.98 4.97,4.98l10.29 0 -6.95 8.77c-1.71,2.16 -1.34,5.28 0.81,6.99 0.92,0.72 2,1.07 3.08,1.07 1.47,0 2.93,-0.64 3.91,-1.88l11.84 -14.95 6.85 0 0 6.84 -14.96 11.84c-2.16,1.7 -2.52,4.83 -0.82,6.98 0.98,1.25 2.44,1.89 3.9,1.89 1.09,0 2.18,-0.35 3.09,-1.07l8.79 -6.96 0 10.29c0,2.75 2.22,4.98 4.97,4.98 2.74,0 4.97,-2.23 4.97,-4.98l0 -10.29 8.78 6.96c0.91,0.72 2,1.07 3.08,1.07 1.47,0 2.92,-0.64 3.9,-1.89 1.71,-2.15 1.35,-5.28 -0.81,-6.98l-14.95 -11.84 0 -6.84 6.95 0 11.83 14.95c0.99,1.24 2.44,1.88 3.91,1.88 1.08,0 2.16,-0.35 3.08,-1.07 2.15,-1.71 2.52,-4.83 0.82,-6.99l-6.96 -8.77 10.19 0c2.75,0 4.97,-2.23 4.97,-4.98 0,-2.74 -2.22,-4.97 -4.97,-4.97l-10.19 0 6.96 -8.79c1.7,-2.15 1.33,-5.27 -0.82,-6.98 -2.15,-1.7 -5.28,-1.35 -6.99,0.81l-11.83 14.96 -6.95 0 0 -6.95 14.95 -11.84c2.16,-1.7 2.52,-4.84 0.81,-6.98 -1.71,-2.16 -4.83,-2.53 -6.98,-0.82l-8.78 6.95 0 -10.18c0,-2.75 -2.23,-4.98 -4.97,-4.98 -2.75,0 -4.97,2.23 -4.97,4.98l0 10.18 -8.79 -6.95c-2.15,-1.7 -5.28,-1.34 -6.99,0.82z"/>
   <path class="fil013" d="M77.84 238.7l-9.63 0c-2.54,0 -4.6,-2.06 -4.6,-4.6l0 -40.09c0,-4.48 3.19,-8.35 7.58,-9.22l29.32 -5.74c6.64,-1.3 12.17,-6.05 14.47,-12.4l12.96 -35.83c1.34,-3.7 4.89,-6.2 8.83,-6.2l95.6 0c3.95,0 7.49,2.5 8.83,6.2l13.4 37.03c1.99,5.52 6.31,9.79 11.85,11.71l11.5 3.98c3.78,1.31 6.32,4.87 6.32,8.87l0 41.69c0,2.54 -2.06,4.6 -4.61,4.6l-1.58 0c-2.1,-15.08 -15.05,-26.75 -30.7,-26.75 -15.65,0 -28.61,11.67 -30.7,26.75l-77.44 0c-2.09,-15.08 -15.04,-26.75 -30.69,-26.75 -15.66,0 -28.61,11.67 -30.71,26.75zm169.54 25.37c-11.63,0 -21.09,-9.46 -21.09,-21.08 0,-11.63 9.46,-21.09 21.09,-21.09 11.63,0 21.08,9.46 21.08,21.09 0,11.62 -9.45,21.08 -21.08,21.08zm-116.13 0c3.92,-4.23 6.69,-9.52 7.78,-15.42l77.86 0c1.09,5.9 3.86,11.19 7.79,15.42l-93.43 0zm-22.7 0c-11.63,0 -21.09,-9.46 -21.09,-21.08 0,-11.63 9.46,-21.09 21.09,-21.09 11.62,0 21.07,9.46 21.07,21.09 0,11.62 -9.45,21.08 -21.07,21.08zm-97.79 9.94l278.48 0c2.75,0 4.97,-2.22 4.97,-4.97 0,-2.75 -2.22,-4.97 -4.97,-4.97l-19.16 0c3.92,-4.23 6.69,-9.52 7.78,-15.42l1.8 0c8.03,0 14.55,-6.53 14.55,-14.55l0 -41.69c0,-8.23 -5.22,-15.58 -13,-18.27l-11.51 -3.98c-2.68,-0.94 -4.78,-3.01 -5.75,-5.68l-13.39 -37.04c-2.76,-7.63 -10.07,-12.76 -18.19,-12.76l-95.6 0c-8.12,0 -15.42,5.13 -18.18,12.76l-12.96 35.83c-1.11,3.09 -3.81,5.39 -7.02,6.02l-29.33 5.75c-9.06,1.76 -15.62,9.75 -15.62,18.97l0 40.09c0,8.02 6.52,14.55 14.55,14.55l9.85 0c1.09,5.9 3.86,11.19 7.78,15.42l-75.08 0c-2.75,0 -4.97,2.22 -4.97,4.97 0,2.75 2.22,4.97 4.97,4.97z"/>
  </g>
 </g>
</svg>
