<?xml version="1.0" encoding="UTF-8"?>
<!DOCTYPE svg PUBLIC "-//W3C//DTD SVG 1.1//EN" "http://www.w3.org/Graphics/SVG/1.1/DTD/svg11.dtd">
<!-- Creator: CorelDRAW 2019 -->
<svg xmlns="http://www.w3.org/2000/svg" xml:space="preserve" width="300px" height="300px" version="1.1" style="shape-rendering:geometricPrecision; text-rendering:geometricPrecision; image-rendering:optimizeQuality; fill-rule:evenodd; clip-rule:evenodd"
viewBox="0 0 300 300"
 xmlns:xlink="http://www.w3.org/1999/xlink"
 xmlns:xodm="http://www.corel.com/coreldraw/odm/2003">
 <defs>
  <style type="text/css">
   <![CDATA[
    .fil013 {fill:#44d108;fill-rule:nonzero}
   ]]>
  </style>
 </defs>
 <g id="Слой_x0020_1">
  <metadata id="CorelCorpID_0Corel-Layer"/>
  <g id="_1136306584">
   <path class="fil013" d="M230.53 131.08c1.43,2.22 0.78,5.2 -1.44,6.63l-14.7 9.46c-1.28,-2.98 -3.07,-5.69 -5.22,-8.05l14.73 -9.48c2.23,-1.43 5.2,-0.78 6.63,1.44zm-1.44 48.25c1.08,0.69 1.82,1.76 2.09,3.02 0.28,1.25 0.04,2.54 -0.65,3.61 -1.38,2.15 -4.46,2.84 -6.63,1.44l-14.73 -9.47c2.15,-2.37 3.94,-5.07 5.22,-8.05l14.7 9.45zm-41.22 -1.94c-10.39,0 -18.86,-8.47 -18.86,-18.87 0,-10.4 8.47,-18.86 18.86,-18.86 10.4,0 18.86,8.46 18.86,18.86 0,10.4 -8.46,18.87 -18.86,18.87zm4.8 24.72c0,2.65 -2.15,4.8 -4.8,4.8 -2.64,0 -4.8,-2.15 -4.8,-4.8l0 -15.17c1.57,0.27 3.17,0.44 4.8,0.44 1.64,0 3.24,-0.17 4.8,-0.44l0 15.17zm-31.32 -54.94l-14.69 -9.46c-1.08,-0.69 -1.83,-1.76 -2.1,-3.02 -0.27,-1.25 -0.04,-2.53 0.66,-3.61 1.43,-2.22 4.4,-2.86 6.63,-1.44l14.73 9.48c-2.16,2.36 -3.95,5.07 -5.23,8.05zm-9.5 40.23c-2.18,1.41 -5.25,0.71 -6.63,-1.45 -0.7,-1.07 -0.93,-2.35 -0.66,-3.6 0.27,-1.26 1.02,-2.33 2.1,-3.02l14.69 -9.45c1.28,2.98 3.07,5.68 5.23,8.05l-14.73 9.47zm31.22 -72.47c0,-2.65 2.16,-4.8 4.8,-4.8 2.65,0 4.8,2.15 4.8,4.8l0 15.17c-1.56,-0.26 -3.16,-0.43 -4.8,-0.43 -1.63,0 -3.23,0.17 -4.8,0.43l0 -15.17zm35.42 6.31l-15.82 10.17 0 -16.48c0,-8.16 -6.64,-14.8 -14.8,-14.8 -8.15,0 -14.79,6.64 -14.79,14.8l0 16.49 -15.83 -10.18c-6.86,-4.42 -16.03,-2.42 -20.44,4.43 -2.14,3.33 -2.85,7.28 -2.02,11.14 0.84,3.86 3.14,7.17 6.46,9.31l17.82 11.46c-0.01,0.31 -0.05,0.62 -0.05,0.94 0,0.32 0.04,0.63 0.05,0.95l-17.82 11.45c-3.32,2.14 -5.62,5.44 -6.46,9.31 -0.83,3.86 -0.12,7.81 2.02,11.14 2.74,4.25 7.39,6.79 12.45,6.79 2.84,0 5.6,-0.81 7.99,-2.36l15.83 -10.18 0 16.49c0,8.16 6.64,14.79 14.79,14.79 8.16,0 14.8,-6.63 14.8,-14.79l0 -16.49 15.83 10.19c2.39,1.54 5.15,2.35 7.99,2.35 5.06,0 9.71,-2.54 12.44,-6.79 2.14,-3.33 2.86,-7.28 2.02,-11.14 -0.84,-3.87 -3.13,-7.17 -6.45,-9.3l-17.82 -11.46c0.01,-0.32 0.05,-0.63 0.05,-0.95 0,-0.32 -0.04,-0.63 -0.05,-0.94l17.82 -11.46c6.85,-4.42 8.84,-13.59 4.43,-20.45 -4.41,-6.86 -13.57,-8.85 -20.44,-4.43z"/>
   <path class="fil013" d="M187.87 255.56c-53.51,0 -97.04,-43.53 -97.04,-97.04 0,-5.83 0.55,-11.78 1.64,-17.69 0.27,-1.46 -0.12,-2.96 -1.07,-4.1 -0.95,-1.14 -2.36,-1.8 -3.84,-1.8l-28.27 0 0 -11.79 7.43 0c24.18,0 43.84,-19.66 43.84,-43.84 0,-2.76 -2.24,-4.99 -5,-4.99l-46.27 0 0 -12.83 128.66 0c53.47,0.04 96.96,43.58 96.96,97.04 0,53.51 -43.53,97.04 -97.04,97.04zm-128.58 -171.26l40.91 0c-2.43,16.3 -16.52,28.85 -33.48,28.85l-7.43 0 0 -28.85zm-9.99 57.48c0,5.51 -4.49,9.99 -10,9.99l-24.21 0 0 -107.33 24.21 0c5.51,0 10,4.48 10,9.99l0 87.35zm138.66 -90.3c-0.01,0 -128.97,0 -128.97,0 -1.44,-9.61 -9.68,-17.03 -19.69,-17.03l-29.21 0c-2.76,0 -5,2.24 -5,4.99l0 117.33c0,2.76 2.24,5 5,5l29.21 0c9.94,0 18.15,-7.33 19.67,-16.84l22.75 0c-0.59,4.55 -0.88,9.1 -0.88,13.59 0,59.02 48.02,107.03 107.03,107.03 59.02,0 107.04,-48.01 107.04,-107.03 0,-58.97 -47.98,-106.99 -106.95,-107.04z"/>
   <path class="fil013" d="M187.87 225.9c-37.15,0 -67.38,-30.23 -67.38,-67.38 0,-37.15 30.23,-67.38 67.38,-67.38 37.16,0 67.38,30.23 67.38,67.38 0,37.15 -30.22,67.38 -67.38,67.38zm0 -144.75c-42.66,0 -77.37,34.7 -77.37,77.37 0,42.66 34.71,77.38 77.37,77.38 42.67,0 77.38,-34.72 77.38,-77.38 0,-42.67 -34.71,-77.37 -77.38,-77.37z"/>
  </g>
 </g>
</svg>
