<svg height="300" width="300" fill="#0039a6" xmlns="http://www.w3.org/2000/svg" viewBox="0 0 8.467 8.467">
    <path style="color:#3f9dcc;font-style:normal;font-variant:normal;font-weight:400;font-stretch:normal;font-size:medium;line-height:normal;font-family:sans-serif;text-indent:0;text-align:start;text-decoration:none;text-decoration-line:none;text-decoration-style:solid;text-decoration-color:#047bbf;letter-spacing:normal;word-spacing:normal;text-transform:none;direction:ltr;writing-mode:lr-tb;baseline-shift:baseline;text-anchor:start;white-space:normal;clip-rule:nonzero;display:inline;overflow:visible;visibility:visible;opacity:1;isolation:auto;mix-blend-mode:normal;color-interpolation:sRGB;color-interpolation-filters:linearRGB;solid-color:#047bbf;solid-opacity:1;fill:##3f9dcc;fill-opacity:1;fill-rule:evenodd;stroke:none;stroke-width:.75;stroke-linecap:butt;stroke-linejoin:miter;stroke-miterlimit:4;stroke-dasharray:none;stroke-dashoffset:0;stroke-opacity:1;color-rendering:auto;image-rendering:auto;shape-rendering:auto;text-rendering:auto;enable-background:accumulate"
          d="M6.88 289.625h.131c.093 0 .166.073.166.165v3.208h-.463v-3.208c0-.092.073-.165.165-.165zM1.984 290.286h.133c.092 0 .165.073.165.166v2.546h-.463v-2.546c0-.093.073-.166.165-.166zM4.366 290.286h.132c.092 0 .165.073.165.166v2.546H4.2v-2.546c0-.093.073-.166.166-.166zM1.323 291.345h.298v.86h-.298a.032.032 0 0 1-.033-.034v-.793c0-.02.014-.034.033-.034zM2.48 291.345h.298c.02 0 .033.013.033.033v.793c0 .02-.014.033-.033.033H2.48zM3.704 291.345h.298v.86h-.298a.032.032 0 0 1-.033-.034v-.793c0-.02.014-.034.033-.034zM4.862 291.345h.297c.02 0 .033.013.033.033v.793c0 .02-.013.033-.033.033h-.297zM6.218 291.345h.297v.86h-.297a.032.032 0 0 1-.033-.034v-.793c0-.02.013-.034.033-.034zM7.375 291.345h.298c.02 0 .033.013.033.033v.793c0 .02-.014.033-.033.033h-.298zM.1 291.61h.991v.33H.1zM3.01 291.61h.463v.33H3.01zM5.39 291.61h.596v.33h-.595zM7.904 291.61h.331v.33h-.33zM1.819 293.197h.463v2.546a.164.164 0 0 1-.165.166h-.133a.164.164 0 0 1-.165-.166zM4.2 293.197h.463v.727H4.2zM6.714 293.197h.463v.727h-.463zM4.862 293.593h1.653v.331H4.862zM1.323 293.858h.298v.86h-.298a.032.032 0 0 1-.033-.033v-.794c0-.02.014-.033.033-.033zM2.48 293.858h.298c.02 0 .033.014.033.033v.794c0 .02-.014.033-.033.033H2.48zM3.01 294.123h5.357v.33H3.01zM4.2 294.652h.463v1.091a.164.164 0 0 1-.165.166h-.132a.164.164 0 0 1-.166-.166zM4.862 294.652h1.653v.33H4.862zM6.714 294.652h.463v.694a.164.164 0 0 1-.166.166H6.88a.164.164 0 0 1-.165-.166z"
          transform="translate(0 -288.533)"/>
</svg>