<?xml version="1.0" encoding="UTF-8"?>
<!DOCTYPE svg PUBLIC "-//W3C//DTD SVG 1.1//EN" "http://www.w3.org/Graphics/SVG/1.1/DTD/svg11.dtd">
<!-- Creator: CorelDRAW 2019 -->
<svg xmlns="http://www.w3.org/2000/svg" xml:space="preserve" width="300px" height="300px" version="1.1"
     style="shape-rendering:geometricPrecision; text-rendering:geometricPrecision; image-rendering:optimizeQuality; fill-rule:evenodd; clip-rule:evenodd"
viewBox="0 0 300 300"
 xmlns:xlink="http://www.w3.org/1999/xlink"
 xmlns:xodm="http://www.corel.com/coreldraw/odm/2003">
 <defs>
  <style type="text/css">
   <![CDATA[
    .fil011 {fill:#44d108}
   ]]>
  </style>
 </defs>
 <g id="Слой_x0020_1">
  <metadata id="CorelCorpID_0Corel-Layer"/>
  <path class="fil011" d="M10 13.85l0 20.44c0,1.56 1.35,2.69 2.36,3.27 1.96,1.13 14.39,0.59 17.19,0.59 9.79,0 8.34,-0.77 8.3,3.25l-0.01 47.13c-0.01,2.25 0.3,3.28 1.56,4.36 2.13,1.82 5.03,1.55 7.64,1.55l0 27.26c-5.88,0 -4.74,-1.34 -4.74,8.89 0,0.68 0.2,0.89 0.88,0.89l18.37 0 0 -9.48c-2.06,-0.48 -1.96,-0.3 -4.44,-0.3l0 -27.26c8.3,0 9.19,-1.32 9.19,-9.18l-0.01 -43.86c-0.01,-1.41 -0.43,-3.25 0.9,-3.25l34.96 0c1.46,0 0.89,3.98 0.89,6.81l0 40c0,2.6 -0.53,7.54 3.02,8.83 2.21,0.8 3.86,0.65 6.16,0.65l0 27.26c-2.47,0 -2.38,-0.18 -4.44,0.3l0 9.48 18.37 0c0.68,0 0.89,-0.21 0.89,-0.89 0,-9.97 1.15,-8.89 -4.74,-8.89l0 -27.26c2.39,0 4.12,0.22 6.36,-0.74 3.61,-1.54 2.82,-5.31 2.82,-9.03l0 -43.27c-0.01,-1.41 -0.43,-3.25 0.89,-3.25l35.26 0c1.47,0 0.89,3.98 0.89,6.81l0 39.41c0,3.81 -0.86,7.56 2.61,9.24 2.17,1.04 4.24,0.83 6.57,0.83l0 27.26c-5.89,0 -4.74,-1.08 -4.74,8.89 0,0.68 0.21,0.89 0.89,0.89l18.37 0 0 -9.48c-2.06,-0.48 -1.97,-0.3 -4.44,-0.3l0 -27.26c3.06,0 6.33,0.28 8.08,-2.29 1.47,-2.17 1.1,-4.06 1.1,-6.89l0 -43.86c-0.01,-1.41 -0.43,-3.25 0.89,-3.25l34.97 0c1.46,0 0.88,3.98 0.88,6.81l0 40c0,7.96 0.61,9.48 9.19,9.48l0 27.26c-2.48,0 -2.38,-0.18 -4.44,0.3l0 9.48 18.37 0c0.68,0 0.88,-0.21 0.88,-0.89l0 -7.7c0,-1.66 -2.3,-1.19 -4.74,-1.19l0 -27.26c11.17,0 9.19,-2.68 9.19,-17.48l0 -34.96c-0.02,-4.56 -1.66,-3.85 8,-3.85 2.53,0 15.56,0.45 17.3,-0.48 1.15,-0.61 2.55,-1.8 2.55,-3.38l0 -21.03c0,-0.87 -2.39,-3.26 -3.26,-3.26l-273.48 0c-0.5,0 -1.82,1.09 -2.13,1.43 -0.48,0.53 -1.13,1.48 -1.13,2.42zm151.79 185.36l41.61 0 0 -14.01 -41.61 0 0 14.01zm41.61 7.49l-41.61 0 0 29.29c0.22,-0.01 0.43,-0.02 0.64,-0.03 4.87,-0.19 10.47,-0.27 12.88,5.09 0.46,1.05 0.7,2.18 0.7,3.32l0 16.59c0,4.83 -3.55,8.39 -8.38,8.39l-35.26 0c-4.83,0 -8.38,-3.56 -8.38,-8.39 0,-4.47 -0.15,-8.94 -0.14,-13.4 0,-3.99 0.39,-7.85 4.11,-10.28 2.91,-1.91 4.73,-1.3 7.68,-1.29 0.63,0 1.64,0.08 2.57,0.11l0 -29.4 -41.61 0 0 29.27c0.25,-0.01 0.49,-0.02 0.72,-0.03 4.8,-0.18 10.28,-0.05 12.56,5.24 0.43,1.01 0.65,2.09 0.65,3.19l0 16.59c0,4.83 -3.55,8.39 -8.38,8.39l-34.96 0c-4.84,0 -8.39,-3.56 -8.39,-8.39l0 -62.01 7.5 0c1.73,0 4.34,0.23 6.43,0.06l0 -32.09 -41.61 0 0 32.12c2.07,0.12 5.57,-0.09 6.73,-0.09l7.5 0 0 62.01c0,1.24 -0.28,2.46 -0.82,3.57 -2.33,4.79 -7.27,5.06 -11.82,4.88 -0.66,-0.03 -1.32,-0.06 -1.98,-0.06l-13.24 -0.01 0 13.17 265.02 0 0 -13.34c-1.76,0 -3.89,0.18 -4.95,0.18l-12.08 0c-0.15,0 -0.31,0.01 -0.45,0.02 -3.08,0.19 -5.84,-0.24 -8.11,-2.64 -1.48,-1.57 -2.27,-3.62 -2.27,-5.77l0 -62.01 7.5 0c1.23,0 4.65,0.21 6.73,0.08l0 -32.11 -41.61 0 0 32.03 13.93 0 0 62.01c0,4.83 -3.55,8.39 -8.38,8.39l-34.97 0c-4.83,0 -8.38,-3.56 -8.38,-8.39 0,-4.47 -0.14,-8.94 -0.15,-13.41 0,-3.98 0.38,-7.83 4.1,-10.26 2.81,-1.84 4.56,-1.31 7.42,-1.3 0.58,0 1.59,0.06 2.56,0.08l0 -29.37zm37.8 -138.78l13.45 0 0 -25.92c0,-3.01 -0.57,-4.96 1.54,-7.84 3.29,-4.46 9.17,-3.51 13.96,-3.51 2.84,0 5.69,0.11 8.54,0.11 1.05,0 2.46,0.03 3.82,0l0 -13.27 -265.02 0 0 13.28c1.3,0.04 2.65,0.01 3.61,0.01 2.82,0 5.64,-0.13 8.45,-0.13 4.91,0 10.97,-1.07 14.29,3.48 1.96,2.69 1.53,4.51 1.51,7.28l-0.01 26.51 13.46 0 0 -26.44c0,-0.15 -0.01,-0.31 -0.02,-0.46 -0.19,-3.08 0.24,-5.84 2.64,-8.11 1.57,-1.48 3.62,-2.26 5.77,-2.26l34.96 0c1.3,0 2.57,0.31 3.73,0.9 5.53,2.84 4.65,8.42 4.65,13.41l0 22.96 13.46 0 0 -26.44c-0.01,-0.15 -0.02,-0.31 -0.03,-0.46 -0.18,-3.08 0.25,-5.84 2.65,-8.11 1.56,-1.48 3.61,-2.26 5.76,-2.26l35.26 0c1.3,0 2.58,0.31 3.73,0.9 5.54,2.84 4.65,8.42 4.65,13.41l0 22.96 13.46 0 0 -26.44c0,-0.15 -0.02,-0.31 -0.03,-0.46 -0.18,-3.07 0.25,-5.83 2.65,-8.1 1.56,-1.48 3.61,-2.27 5.76,-2.27l34.97 0c1.29,0 2.57,0.31 3.73,0.9 5.53,2.84 4.65,8.42 4.65,13.41l0 22.96zm13.45 7.49l-13.45 0 0 9.55c0,0.48 -0.01,1.23 0,1.97 0.64,0.02 1.28,0.02 1.69,0.02l10.07 0c0.44,0 1.14,0 1.84,-0.02 0,-0.56 -0.01,-1.09 -0.01,-1.46 -0.04,-2.84 -0.14,-5.67 -0.14,-8.51l0 -1.55zm-65.18 0l-13.46 0 0 8.96c0,0.64 -0.07,1.66 -0.11,2.61 0.76,0 1.57,-0.03 1.8,-0.03l10.08 0c0.41,0 1.09,0.03 1.75,0.03 -0.02,-0.62 -0.06,-1.27 -0.06,-1.72l0 -9.85zm-65.48 0l-13.46 0 0 9.55c0,0.48 -0.04,1.26 -0.04,2.02 0.63,0 1.25,-0.03 1.73,-0.03l10.08 0c0.38,0 1.09,0.04 1.78,0.04 -0.03,-0.84 -0.09,-1.73 -0.09,-2.32l0 -9.26zm-65.19 0l-13.46 0 0 11.57c0.67,0 1.35,-0.03 1.7,-0.03l10.07 0c0.41,0 1.04,0 1.69,-0.01 0.01,-0.64 0,-1.27 0,-1.68l0 -9.85zm-27.68 84.01l41.61 0 0 -11.56 -41.61 0 0 11.56zm196.15 0l41.61 0 0 -11.56c-7.3,0 -14.59,-0.05 -21.89,-0.06 -4.76,-0.01 -9.52,0 -14.28,0.03 -1.7,0.02 -3.62,-0.02 -5.44,0.04l0 11.55zm-130.67 39.79l41.61 0 0 -14.01 -41.61 0 0 14.01zm-72.97 -52.62l0 53.63c0,7.73 8.22,6.23 14.22,6.23l0 54.51c0,1.48 -4.25,0.89 -7.11,0.89l-16.31 -0.01c-2.06,0.1 -4.43,1.86 -4.43,3.86l0 20.45c0,0.94 0.65,1.88 1.13,2.42 0.31,0.34 1.63,1.43 2.13,1.43l273.48 0c0.87,0 3.26,-2.39 3.26,-3.26l0 -21.04c0,-5.19 -9.22,-3.85 -12.44,-3.85l-12.15 0c-1.42,0.02 -3.26,0.44 -3.26,-0.89l0 -54.51c6.41,0 14.22,1.41 14.22,-6.23l0 -53.63c0,-4.8 -2.58,-6.22 -7.11,-6.22 -5.77,0 -42.55,-0.24 -45.14,0.19 -1.24,0.21 -1.34,0.22 -2.17,0.79 -1.08,0.75 -2.17,1.98 -2.17,3.46l0 56.89c0,1.49 1.27,3.55 3.52,4.19 1.58,0.45 1,0.56 2.11,0.56l8.29 0 0 54.51c0,0.69 -0.2,0.89 -0.88,0.89l-34.97 0c-0.68,0 -0.89,-0.2 -0.89,-0.89 0,-20.03 -1.29,-17.5 3.85,-17.48 2.8,0.01 6.6,0.47 8.36,-1.13 0.61,-0.55 1.72,-2.22 1.72,-3.31l0 -57.19c0,-1.18 -2.14,-4.15 -4.74,-4.15l-46.82 0c-2.78,0 -5.03,2.96 -5.03,5.34l0 54.81c0,2.67 1.77,5.41 4.74,5.63 3.33,0.25 9.48,-0.81 9.48,0.89l0 16.59c0,0.69 -0.21,0.89 -0.89,0.89l-35.26 0c-0.68,0 -0.89,-0.2 -0.89,-0.89 0,-20.24 -1.33,-17.49 4.15,-17.48 3.55,0.01 6.53,0.68 8.68,-1.69 0.68,-0.74 1.39,-2.62 1.39,-3.94l0 -54.81c0,-2.34 -2.23,-5.34 -5.03,-5.34l-46.82 0c-0.85,0 -2.61,0.85 -3.14,1.31 -0.73,0.64 -1.6,2.2 -1.6,2.84l0 57.19c0,1.88 1.8,4.31 5.03,4.45 3.13,0.13 8.9,-0.73 8.9,0.88l0 16.59c0,0.69 -0.21,0.89 -0.89,0.89l-34.96 0c-0.69,0 -0.89,-0.2 -0.89,-0.89l0 -54.51c4.07,0 7,0.39 10.17,-0.5 0.99,-0.28 1.19,-0.25 1.87,-0.79 0.7,-0.56 1.88,-2.32 1.88,-3.46l0 -56.89c0,-3.33 -3.64,-4.44 -6.81,-4.44l-42.67 0c-4.46,0 -7.11,1.4 -7.11,6.22z"/>
 </g>
</svg>
