<?xml version="1.0" encoding="UTF-8"?>
<!DOCTYPE svg PUBLIC "-//W3C//DTD SVG 1.1//EN" "http://www.w3.org/Graphics/SVG/1.1/DTD/svg11.dtd">
<!-- Creator: CorelDRAW 2019 -->
<svg xmlns="http://www.w3.org/2000/svg" xml:space="preserve" width="300px" height="300px" version="1.1" style="shape-rendering:geometricPrecision; text-rendering:geometricPrecision; image-rendering:optimizeQuality; fill-rule:evenodd; clip-rule:evenodd"
viewBox="0 0 300 300"
 xmlns:xlink="http://www.w3.org/1999/xlink"
 xmlns:xodm="http://www.corel.com/coreldraw/odm/2003">
 <defs>
  <style type="text/css">
   <![CDATA[
    .fil0 {fill:#0039a6}
   ]]>
  </style>
 </defs>
 <g id="Слой_x0020_1">
  <metadata id="CorelCorpID_0Corel-Layer"/>
  <g id="_1190105376">
   <path class="fil0" d="M109.51 283l-9.5 0 0 -142.5 9.5 0 0 95 9.5 0 0 -95c5.88,0 14.25,-1.44 14.25,5.34l0 131.82c0,6.78 -8.37,5.34 -14.25,5.34l0 -38 -9.5 0 0 38zm33.25 -85.5l9.5 0 0 28.5 -9.5 0 0 -28.5zm19 9.5l33.25 0 0 9.5 -33.25 0 0 -9.5zm42.75 4.75c0,-11.48 14.79,-19.39 24.22,-9.97 13.28,13.29 -6.81,33.05 -19.94,19.94 -2.04,-2.03 -4.28,-6.18 -4.28,-9.97zm0 -39.19l0 -3.56 28.5 0c0,5.6 -0.04,10.13 -3.99,14.41 -5.3,5.74 -14.53,6.22 -20.53,0.02 -2.38,-2.47 -3.98,-6.3 -3.98,-10.87zm-156.75 -28.5l0 77.19 9.5 0 0 -75.41c0,-6.78 8.38,-5.34 14.25,-5.34l0 28.5 9.5 0 0 -28.5 9.5 0 0 142.5 -9.5 0 0 -104.5 -9.5 0 0 104.5c-17.34,0 -14.25,2.79 -14.25,-32.66l-9.5 0 0 29.1c0,6.53 6.53,13.06 13.06,13.06l68.88 0c6.53,0 13.06,-6.53 13.06,-13.06l0 -43.94c19.21,0 19,1.67 19,-9.5l36.82 0c3.89,0 3.97,9.5 21.97,9.5 10.95,0 21.96,-11.02 21.96,-21.97 0,-14.75 -4.71,-14.53 -8.9,-20.78 0.97,-1.46 1.59,-1.81 2.82,-3.11 1.2,-1.26 1.77,-2.23 2.78,-3.76 3.76,-5.72 3.3,-10.47 3.3,-16.88 3.91,0 9.5,0.9 9.5,-4.75 0,-2.87 -1.87,-4.75 -4.75,-4.75l-57 0c-6.37,0 -6.37,9.5 0,9.5l4.75 0c0,6.88 -0.55,10.41 3.07,16.53 3.1,5.24 3.85,4.26 5.84,7.22 -0.8,1.19 -3.64,4.75 -5.34,4.75l-36.82 0c0,-11.17 0.21,-9.5 -19,-9.5l0 -43.94c0,-6.53 -6.53,-13.06 -13.06,-13.06l-68.88 0c-6.53,0 -13.06,6.53 -13.06,13.06z"/>
   <path class="fil0" d="M204.51 70.44c0,-20.34 28.5,-20.34 28.5,0l0 3.56 -28.5 0 0 -3.56zm0 -39.19c0,-14.89 21.19,-19.67 27.09,-5.71 5.03,11.9 -6.65,23.58 -18.55,18.54 -2.45,-1.03 -4.41,-2.74 -5.84,-4.84 -1.15,-1.7 -2.7,-5.52 -2.7,-7.99zm-9.5 -1.78c0,5.54 0.12,8.58 2.98,13.65 1.89,3.34 4.1,4.39 5.93,7.13 -5.22,7.8 -8.91,5.03 -8.91,23.75 -3.9,0 -9.5,-0.9 -9.5,4.75 0,2.87 1.88,4.75 4.75,4.75l57 0c6.38,0 6.38,-9.5 0,-9.5l-4.75 0c0,-18.72 -3.68,-15.95 -8.9,-23.75 1.05,-1.57 1.83,-1.99 3.11,-3.42 13.26,-14.71 2.1,-39.33 -16.17,-39.33 -10.37,0 -18.14,3.52 -23.13,13.09 -1.16,2.24 -2.41,5.54 -2.41,8.88z"/>
   <path class="fil0" d="M185.51 107.25c0,7.99 12.64,3.65 22.73,1.95l36.65 -6.11c3.6,-0.56 5.82,-0.58 7.08,-3.63 0.99,-2.37 -0.93,-6.46 -3.52,-6.46 -4.08,0 -50.53,7.71 -57.86,9.23 -3.04,0.64 -5.08,1.63 -5.08,5.02z"/>
   <path class="fil0" d="M185.51 126.25c0,7.99 12.64,3.65 22.73,1.95 6.3,-1.06 12.6,-1.86 18.4,-2.98 6.05,-1.17 12.3,-2.19 18.25,-3.12 3.6,-0.57 5.82,-0.59 7.08,-3.63 0.99,-2.38 -0.93,-6.47 -3.52,-6.47 -4.94,0 -27.11,4.12 -33.42,5.17l-24.44 4.07c-3.04,0.63 -5.08,1.62 -5.08,5.01z"/>
   <path class="fil0" d="M185.51 145.25c0,7.22 8.98,4.24 13.58,3.48l27.55 -4.51c6.05,-1.17 12.3,-2.19 18.25,-3.12 3.6,-0.57 5.82,-0.59 7.08,-3.64 0.99,-2.37 -0.93,-6.46 -3.52,-6.46 -4.94,0 -27.11,4.12 -33.42,5.18l-24.44 4.06c-3.04,0.63 -5.08,1.62 -5.08,5.01z"/>
   <polygon class="fil0" points="47.76,240.84 57.26,240.84 57.26,230.75 47.76,230.75 "/>
   <polygon class="fil0" points="214.01,36 223.51,36 223.51,26.5 214.01,26.5 "/>
   <polygon class="fil0" points="214.01,216.5 223.51,216.5 223.51,207 214.01,207 "/>
  </g>
 </g>
</svg>
