<?xml version="1.0" encoding="UTF-8"?>
<!DOCTYPE svg PUBLIC "-//W3C//DTD SVG 1.1//EN" "http://www.w3.org/Graphics/SVG/1.1/DTD/svg11.dtd">
<!-- Creator: CorelDRAW 2019 -->
<svg xmlns="http://www.w3.org/2000/svg" xml:space="preserve" width="300px" height="300px" version="1.1"
     style="shape-rendering:geometricPrecision; text-rendering:geometricPrecision; image-rendering:optimizeQuality; fill-rule:evenodd; clip-rule:evenodd"
     viewBox="0 0 300 300"
     xmlns:xlink="http://www.w3.org/1999/xlink"
     xmlns:xodm="http://www.corel.com/coreldraw/odm/2003">
 <defs>
  <style type="text/css">
   <![CDATA[
    .fil0 {fill:#0039a6}
   ]]>
  </style>
 </defs>
    <g id="Слой_x0020_1">
  <metadata id="CorelCorpID_0Corel-Layer"/>
        <path class="fil0"
              d="M12.5 252.23l103.94 0c-2.02,-3.01 -4.45,-4.9 -6.7,-9.73 -1.4,-2.99 -3.04,-8.38 -3.04,-12.78l0 -40.77 -15.82 0c-6.7,0 -13.39,-6.7 -13.39,-13.39l0 -6.09 -25.56 0c-6.69,0 -13.38,-6.69 -13.38,-13.39l0 -12.17c0,-6.69 6.69,-13.38 13.38,-13.38l25.56 0 0 -6.09c0,-6.69 6.69,-13.39 13.39,-13.39l15.82 0 0 -40.77c0,-16.58 15.67,-32.25 32.25,-32.25l23.13 0c16.58,0 32.25,15.67 32.25,32.25l0 40.77 15.82 0c6.7,0 13.39,6.7 13.39,13.39l0 6.09 25.56 0c6.69,0 13.39,6.69 13.39,13.38l0 12.17c0,6.7 -6.7,13.39 -13.39,13.39l-25.56 0 0 6.09c0,6.69 -6.69,13.39 -13.39,13.39l-15.82 0 0 40.77c0,6.62 -2.71,13.15 -6.25,18.09 -1.2,1.68 -2.5,2.95 -3.49,4.42l1.17 0 1.17 0 1.17 0 1.17 0 1.17 0 1.17 0 1.17 0 1.17 0 1.17 0 1.17 0 1.17 0 1.17 0 1.17 0 1.17 0 1.17 0 1.17 0 1.17 0 1.17 0 1.17 0 1.17 0 1.16 0 1.17 0 1.17 0 1.17 0 1.17 0 1.17 0 1.17 0 1.17 0 1.17 0 1.17 0 1.17 0 1.17 0 1.17 0 1.17 0 1.17 0 1.17 0 1.17 0 1.17 0 1.17 0 1.17 0 1.17 0 1.16 0 1.17 0 1.17 0 1.17 0 1.17 0 1.17 0 1.17 0 1.17 0 1.17 0 1.17 0 1.17 0 1.17 0 1.17 0 1.17 0 1.17 0 1.17 0 1.17 0 1.17 0 1.17 0 1.17 0 1.17 0 1.16 0 1.17 0 0.49 0c1.65,0 3.2,0 4.68,0l22.89 0 0 9.74 -275 0 0 -9.74zm206.17 -39.55c2.38,-0.55 4.09,-2.16 6.28,-3.46 2.19,-1.29 3.87,-2.38 6.01,-3.73 4.02,-2.52 7.94,-5.24 12.05,-7.42l0 5.48 34.75 0 0 19.47 -34.75 0 0 5.48c-3.73,-1.98 -21.41,-13.92 -24.34,-14.6l0 -1.22zm-18.86 0l0 1.22c2.32,0.61 23.65,14.47 26.42,16.17 4.57,2.8 8.86,5.34 13.13,8.17 2.39,1.57 11.21,7.4 13.39,7.91l0 -13.39 34.75 0 0 -38.95 -34.75 0 0 -13.38c-3.84,0.89 -48.94,31.18 -52.94,32.25zm-141.79 -120.49l0 -5.48 -35.78 0 0 -19.47 35.78 0 0 -5.48c3.73,1.98 21.41,13.92 24.34,14.61l0 1.21c-2.93,0.69 -20.61,12.63 -24.34,14.61zm-9.74 -34.69l-35.78 0 0 38.95 35.78 0 0 13.39c2.38,-0.56 23.66,-14.33 26.52,-16.08 2.77,-1.7 24.05,-15.54 26.42,-16.18l0 -1.21c-1.93,-0.52 -10.92,-6.49 -13.35,-7.94l-26.2 -16.41c-2.38,-1.57 -11.21,-7.4 -13.39,-7.91l0 13.39zm94.76 194.73l15.39 0c15.31,0 26.16,-10.42 26.16,-25.56 -1.98,0.47 -2.81,1.15 -4.69,2 -8.12,3.69 -8.41,5.6 -12.39,3.57 -21.2,-10.8 -15.5,-8.68 -25.72,-3.94 -8.39,3.89 -9.32,5.93 -13.23,3.94 -1.52,-0.77 -2.64,-1.18 -4.14,-1.99 -2.74,-1.47 -5.27,-2.75 -7.98,-4.18 0,4.29 0.75,8.08 2.06,11.32 4.64,11.47 14.4,14.27 24.54,14.84zm-26.6 -37.12l0 -18.25 12.13 6.16c1.87,1.08 2.04,1.41 4.65,0.34 3.17,-1.31 15.32,-8.33 17.3,-8.33 0.85,0 15.4,7.08 17,7.99 1.75,1.01 1.83,1.38 4.21,0.52 1.31,-0.48 2.68,-1.28 4.14,-2.02 2.43,-1.22 6.31,-3.49 8.72,-4.05l0 17.64 -12.58 6.36c-3.1,1.48 -5.33,-1.2 -12.77,-4.74 -2.07,-0.98 -7.37,-3.83 -8.8,-3.87 -1.86,-0.05 -14.3,7.04 -16.97,8.4 -3.01,1.53 -2.14,1 -8.31,-2.09 -2.46,-1.23 -6.28,-3.49 -8.72,-4.06zm0 -29.21l0 -17.64c9.43,2.19 11.72,7.97 16.78,5.89 3.07,-1.26 15.09,-8.33 16.69,-8.33 4.95,0 17.38,9.86 21.36,8.68 1.52,-0.45 3.12,-1.44 4.6,-2.19 2.43,-1.22 6.31,-3.49 8.72,-4.05l0 17.64 -12.58 6.36c-2.23,1.06 -1.84,0.83 -4.24,-0.43l-8.71 -4.13c-11.39,-6.24 -7.02,-5.09 -25.59,4.35 -2.1,1.06 -1.65,1.25 -3.84,0.21l-8.68 -4.18c-1.89,-1.07 -2.15,-1.63 -4.51,-2.18zm91.89 -6.69l-14 0 0 -58.42c9.06,0 19.47,-1.97 19.47,5.48l0 47.46c0,3.01 -2.46,5.48 -5.47,5.48zm-121.1 -5.48l0 -47.46c0,-7.45 10.42,-5.48 19.47,-5.48l0 58.42c-9.05,0 -19.47,1.96 -19.47,-5.48zm160.04 -13.99l-23.73 0 0 -19.48 23.73 0c6.89,0 5.48,8.36 5.48,14 0,3.01 -2.47,5.48 -5.48,5.48zm-198.99 -5.48c0,-16.76 -2.13,-14 29.21,-14l0 19.48 -23.73 0c-3.01,0 -5.48,-2.47 -5.48,-5.48zm68.16 2.43l0 -18.25 12.87 6.66c1.16,0.47 1.79,0.81 3.86,-0.22 2.88,-1.42 4.96,-2.8 8.05,-4.18 12.63,-5.65 4.79,-6.16 25.79,3.79 0.39,0.18 1.93,0.9 2.07,0.93 1.24,0.3 1.29,0.17 2.19,-0.14 1.3,-0.45 2.85,-1.61 4.39,-2.39 2.63,-1.32 6.08,-3.18 8.93,-3.84l0 17.64c-2.48,0.58 -9.36,4.6 -12.67,6.25 -1.89,0.94 -1.94,0.98 -4.26,-0.21 -1.53,-0.79 -2.39,-1.26 -4.05,-2.09 -16.76,-8.33 -10.96,-7.75 -25.76,-0.19l-6.38 3.12c-0.66,0.09 -0.51,0.21 -1.94,-0.41l-8.57 -4.29c-1.88,-1.07 -2.19,-1.63 -4.52,-2.18zm0 -29.21l0 -18.25 12.03 6.27c2.26,1.21 2.13,1.26 4.66,0.13 20.48,-9.14 11.75,-11.7 33.08,-0.79 1.18,0.6 0.14,0.09 1.21,0.66 3.08,1.65 3.86,0.79 10.35,-2.75 0.68,-0.37 1.3,-0.77 1.96,-1.09 1.19,-0.56 3.51,-1.51 4.86,-1.82l0 17.64c-1.75,0.47 -2.3,1.19 -4.04,2.04l-8.69 4.15c-2.97,1.5 -1.8,0.94 -6.25,-1.2l-10.48 -5.34c-1.32,-0.75 -3.36,-1.86 -4.69,-1.9 -1.7,-0.04 -9.41,4.36 -12.69,5.92l-4.44 2.31c-3.27,1.67 -2.02,1.26 -8.34,-1.73 -2.86,-1.35 -5.11,-3.45 -8.53,-4.25zm0 -29.21l0 -18.25 12.13 6.17c1.87,1.07 2.04,1.4 4.65,0.33 3.17,-1.31 15.32,-8.33 17.3,-8.33 0.85,0 15.4,7.08 17,8 5.15,2.95 9.31,-3.76 17.07,-5.56l0 17.64 -12.58 6.36c-3.1,1.48 -5.33,-1.2 -12.77,-4.74 -11.86,-5.64 -5.85,-5.61 -25.77,4.53 -3.01,1.53 -2.14,1 -8.31,-2.09 -2.46,-1.23 -6.28,-3.49 -8.72,-4.06zm0.61 -28.6c0,-10.86 10.96,-21.91 25.56,-21.91 12.08,0 25.22,-1.67 33.02,5.92 3.6,3.5 8.36,9.34 8.36,14.77 0,1.4 -5.97,3.9 -7.51,4.67 -8.22,4.11 -3.81,4.15 -16.83,-2.24 -12.33,-6.05 -8.01,-5.23 -25.37,3.89 -2.13,1.12 -2.19,1.57 -3.87,1.02 -2.42,-0.8 -9.73,-5.82 -13.36,-6.12z"/>
 </g>
</svg>
