<svg height='300px' width='300px' fill="#0039a6" xmlns="http://www.w3.org/2000/svg"
     xmlns:xlink="http://www.w3.org/1999/xlink" version="1.1" x="0px" y="0px" viewBox="0 0 100 100"
     enable-background="new 0 0 100 100" xml:space="preserve"><g display="none"><path display="inline" fill="#047bbf" d="M796,1287.403H-520c-1.65,0-3-1.35-3-3V-29.993c0-1.65,1.35-3,3-3H796c1.65,0,3,1.35,3,3   v1314.396C799,1286.053,797.65,1287.403,796,1287.403z"></path></g>
    <g><g><path d="M15.283,95h21.395c0.394,0,0.769-0.166,1.036-0.455c0.266-0.29,0.399-0.678,0.365-1.071l-0.142-1.654l1.417,1.059    c0.044,0.033,0.09,0.063,0.138,0.091C41.79,94.298,44.407,95,47.062,95H65.71c6.867,0,12.832-4.651,14.507-11.31l4.275-16.991    c0.228-0.25,0.371-0.579,0.371-0.944c0-0.119-0.019-0.232-0.047-0.343l1.034-4.112c0.674-2.68,0.086-5.467-1.613-7.646    c-1.521-1.952-3.735-3.151-6.166-3.381V33.954c4.895-2.972,7.898-8.265,7.898-14.029c0-6.249-3.48-11.872-9.083-14.674    c-0.737-0.369-1.597-0.33-2.299,0.104c-0.7,0.432-1.118,1.181-1.118,2.003v9.322h-7.825V7.359c0-0.822-0.418-1.571-1.118-2.003    c-0.702-0.434-1.561-0.473-2.3-0.104c-5.603,2.802-9.083,8.425-9.083,14.674c0,2.396,0.526,4.708,1.484,6.809    c-1.568-0.103-3.826-0.049-4.958,0.951c-0.501,0.442-0.777,1.045-0.777,1.696v10.189c0,1.166-0.346,2.287-1.003,3.248    L37.126,53.555v-3.722c0-0.19-0.039-0.37-0.107-0.535c-0.001-0.002-0.001-0.003-0.002-0.005c-0.071-0.171-0.175-0.325-0.304-0.454    c0,0,0-0.001-0.001-0.001c-0.001-0.001-0.002-0.001-0.003-0.002c-0.128-0.127-0.281-0.229-0.451-0.3    c-0.003-0.001-0.005-0.001-0.008-0.002c-0.164-0.067-0.343-0.105-0.531-0.105c-0.002,0-0.003,0-0.005,0l-20.437,0.074    c-0.774,0.003-1.401,0.632-1.401,1.406v43.688C13.877,94.37,14.507,95,15.283,95z M62.591,8.536v11.198h13.932V8.537    c3.971,2.42,6.393,6.686,6.393,11.388c0,4.944-2.716,9.464-7.09,11.794l-0.809,0.431v18.075H64.229    c0.617-4.379,0.459-8-0.134-10.977v-7.098l-0.809-0.431c-4.373-2.331-7.09-6.85-7.09-11.794    C56.197,15.223,58.619,10.956,62.591,8.536z M37.126,57.526l12.838-12.807c0.056-0.056,0.106-0.116,0.152-0.18    c1.039-1.46,1.589-3.178,1.589-4.97v-9.855c0.588-0.2,2.06-0.256,3.396-0.121c1.386,0.843,8.875,6.191,6.096,21.791    c-0.073,0.409,0.039,0.83,0.306,1.149c0.267,0.319,0.662,0.503,1.078,0.503h14.635c1.891,0,3.642,0.855,4.805,2.346    c1.162,1.491,1.564,3.398,1.103,5.232l-0.939,3.734h-6.056c-0.776,0-1.406,0.63-1.406,1.406s0.63,1.406,1.406,1.406h5.348    l-2.83,11.249h-5.22c-0.776,0-1.406,0.63-1.406,1.406c0,0.776,0.63,1.406,1.406,1.406h4.513l-0.448,1.783    c-1.36,5.407-6.205,9.184-11.781,9.184H47.062c-2.134,0-4.24-0.557-6.093-1.613l-3.843-2.871V57.526z M16.689,51.307l17.625-0.064    v5.7v35.245H16.689V51.307z"></path><path
            d="M24.526,79.603c-2.804,0-5.086,2.282-5.086,5.086c0,2.805,2.282,5.087,5.086,5.087c2.805,0,5.087-2.282,5.087-5.087    C29.613,81.885,27.331,79.603,24.526,79.603z M24.526,86.964c-1.254,0-2.275-1.021-2.275-2.275s1.02-2.275,2.275-2.275    s2.275,1.02,2.275,2.275S25.78,86.964,24.526,86.964z"></path></g></g></svg>