<?xml version="1.0" encoding="UTF-8"?>
<!DOCTYPE svg PUBLIC "-//W3C//DTD SVG 1.1//EN" "http://www.w3.org/Graphics/SVG/1.1/DTD/svg11.dtd">
<!-- Creator: CorelDRAW 2019 -->
<svg xmlns="http://www.w3.org/2000/svg" xml:space="preserve" width="300px" height="300px" version="1.1" style="shape-rendering:geometricPrecision; text-rendering:geometricPrecision; image-rendering:optimizeQuality; fill-rule:evenodd; clip-rule:evenodd"
viewBox="0 0 300 300"
 xmlns:xlink="http://www.w3.org/1999/xlink"
 xmlns:xodm="http://www.corel.com/coreldraw/odm/2003">
 <defs>
  <style type="text/css">
   <![CDATA[
    .fil0 {fill:#44d108;fill-rule:nonzero}
   ]]>
  </style>
 </defs>
 <g id="Слой_x0020_1">
  <metadata id="CorelCorpID_0Corel-Layer"/>
  <g id="_1117596192">
   <path class="fil0" d="M255.6 150c0,-2.53 2.05,-4.58 4.58,-4.58 2.53,0 4.58,2.05 4.58,4.58l0 30.6c0,2.53 -2.05,4.59 -4.58,4.59l-73.45 0c-2.53,0 -4.58,-2.06 -4.58,-4.59l0 -67.32c0,-2.53 2.05,-4.59 4.58,-4.59l55.09 0c2.53,0 4.58,2.06 4.58,4.59 0,2.53 -2.05,4.58 -4.58,4.58l-50.5 0 0 58.16 64.28 0 0 -26.02z"/>
   <path class="fil0" d="M191.32 280.07l64.28 0 0 -58.16 -64.28 0 0 58.16zm68.86 9.17l-73.45 0c-2.53,0 -4.58,-2.06 -4.58,-4.59l0 -67.32c0,-2.53 2.05,-4.59 4.58,-4.59l73.45 0c2.53,0 4.58,2.06 4.58,4.59l0 67.32c0,2.53 -2.05,4.59 -4.58,4.59z"/>
   <path class="fil0" d="M201.85 147.12c-1.79,-1.79 -1.79,-4.69 0,-6.48 1.79,-1.79 4.69,-1.79 6.48,0l14.91 14.91 39.62 -45.28c1.66,-1.9 4.55,-2.09 6.45,-0.43 1.89,1.66 2.09,4.54 0.43,6.44l-42.6 48.69c-0.13,0.18 -0.28,0.35 -0.44,0.51 -1.79,1.79 -4.7,1.79 -6.48,0l-18.37 -18.36z"/>
   <path class="fil0" d="M255.6 52.07c0,-2.53 2.05,-4.58 4.58,-4.58 2.53,0 4.58,2.05 4.58,4.58l0 30.6c0,2.53 -2.05,4.59 -4.58,4.59l-73.45 0c-2.53,0 -4.58,-2.06 -4.58,-4.59l0 -67.32c0,-2.53 2.05,-4.59 4.58,-4.59l55.09 0c2.53,0 4.58,2.06 4.58,4.59 0,2.53 -2.05,4.58 -4.58,4.58l-50.5 0 0 58.16 64.28 0 0 -26.02z"/>
   <path class="fil0" d="M201.85 49.19c-1.79,-1.79 -1.79,-4.69 0,-6.48 1.79,-1.79 4.69,-1.79 6.48,0l14.91 14.91 39.62 -45.28c1.66,-1.9 4.55,-2.09 6.45,-0.43 1.89,1.66 2.09,4.55 0.43,6.44l-42.6 48.69c-0.14,0.18 -0.28,0.35 -0.44,0.51 -1.79,1.79 -4.7,1.79 -6.48,0l-18.37 -18.36z"/>
   <path class="fil0" d="M168.37 224.98c2.53,0 4.58,2.06 4.58,4.59 0,2.53 -2.05,4.58 -4.58,4.58l-97.93 0c-6.33,0 -12.07,-2.57 -16.22,-6.72 -4.16,-4.15 -6.72,-9.89 -6.72,-16.22l0 -36.73c0,-1.76 0.12,-3.76 0.35,-5.48 0.25,-1.91 0.73,-3.63 1.46,-4.72l6.39 -9.59 -0.01 0c0.12,-0.18 0.19,-0.34 0.22,-0.47l0.01 -0.02c0.07,-0.32 0.05,-0.64 -0.06,-0.93 -0.11,-0.29 -0.31,-0.54 -0.57,-0.72 -0.15,-0.1 -0.31,-0.17 -0.49,-0.21l-15.57 -3.9c-2.7,-0.15 -5.14,-1.32 -6.95,-3.12l-0.01 0.01c-1.94,-1.94 -3.14,-4.62 -3.14,-7.57l0 -12.24c0,-2.94 1.2,-5.61 3.14,-7.55l0.02 -0.02c1.93,-1.94 4.61,-3.14 7.55,-3.14l27.32 0c1.77,0 3.5,0.46 5.04,1.28 1.53,0.82 2.87,2.01 3.85,3.49l8.01 12c0.48,0.66 4.37,3.22 9.02,5.38 2.84,1.32 5.77,2.34 7.96,2.34l67.33 0c2.53,0 4.58,2.05 4.58,4.58 0,2.53 -2.05,4.58 -4.58,4.58l-67.33 0c-3.66,0 -7.9,-1.39 -11.79,-3.19 -4.96,-2.31 -9.69,-5.59 -11.71,-7.4 -0.29,-0.23 -0.56,-0.49 -0.79,-0.79 -2.76,-3.53 -5.74,-8.58 -8.3,-12.44 -0.15,-0.21 -0.34,-0.38 -0.55,-0.49 -0.2,-0.11 -0.45,-0.17 -0.74,-0.17l-27.32 0c-0.43,0 -0.82,0.17 -1.1,0.44 -0.27,0.28 -0.44,0.67 -0.44,1.1l0 12.24c0,0.42 0.17,0.81 0.45,1.09l0 0.01c0.27,0.27 0.65,0.44 1.09,0.44 0.36,0 0.73,0.05 1.11,0.14l16.05 4.02c1.24,0.31 2.36,0.82 3.33,1.47 1.88,1.24 3.27,3.03 4.05,5.05 0.78,2.02 0.96,4.27 0.41,6.44 -0.3,1.18 -0.78,2.31 -1.47,3.35l-0.02 -0.01 -6.4 9.6c-0.1,0.16 0.09,0.21 0.01,0.86 -0.16,1.2 -0.25,2.76 -0.25,4.26l0 36.73c0,3.8 1.54,7.25 4.04,9.74 2.49,2.49 5.93,4.03 9.74,4.03l97.93 0z"/>
   <path class="fil0" d="M168.37 78.09c2.53,0 4.58,2.05 4.58,4.58 0,2.53 -2.05,4.59 -4.58,4.59 -24.83,0 -44.47,2.83 -56.91,4.62l-3.06 0.43c-1.56,0.24 -3.5,1 -5.38,2.04 -1.88,1.03 -3.58,2.29 -4.61,3.52 -2.42,2.86 -16.83,33.81 -16.87,33.9 -1.07,2.29 -3.79,3.27 -6.07,2.2 -2.28,-1.06 -3.27,-3.78 -2.2,-6.06 0.04,-0.09 14.95,-32.14 18.16,-35.95 1.76,-2.09 4.39,-4.09 7.19,-5.63 2.75,-1.52 5.79,-2.66 8.44,-3.07l3.11 -0.44c12.72,-1.83 32.82,-4.73 58.2,-4.73z"/>
   <path class="fil0" d="M67.2 171.6c-1.79,-1.79 -1.79,-4.69 0,-6.48 1.79,-1.79 4.69,-1.79 6.48,0 3.51,3.51 7.61,6.24 12.06,8.08 4.45,1.84 9.29,2.82 14.25,2.82l13.3 0c2.53,0 4.58,2.05 4.58,4.58 0,2.53 -2.05,4.59 -4.58,4.59l-13.3 0c-6.12,0 -12.14,-1.23 -17.73,-3.54 -5.6,-2.32 -10.73,-5.72 -15.06,-10.05z"/>
   <path class="fil0" d="M53.62 223.45c0,-2.53 2.05,-4.59 4.58,-4.59 2.53,0 4.58,2.06 4.58,4.59l0 24.48c0,0.44 0.17,0.82 0.44,1.09l0.01 0.02c0.27,0.26 0.65,0.43 1.09,0.43l42.84 0c0.43,0 0.82,-0.18 1.09,-0.45 0.28,-0.28 0.45,-0.67 0.45,-1.09l0 -18.36c0,-2.53 2.06,-4.59 4.59,-4.59 2.53,0 4.58,2.06 4.58,4.59l0 18.36c0,2.95 -1.2,5.63 -3.14,7.57 -1.94,1.93 -4.61,3.13 -7.57,3.13l-42.84 0c-2.93,0 -5.59,-1.19 -7.54,-3.12l-0.03 -0.03c-1.93,-1.95 -3.13,-4.62 -3.13,-7.55l0 -24.48z"/>
   <path class="fil0" d="M168.37 200.5c2.53,0 4.58,2.05 4.58,4.58 0,2.53 -2.05,4.59 -4.58,4.59l-55.08 0c-2.53,0 -4.59,-2.06 -4.59,-4.59 0,-2.53 2.06,-4.58 4.59,-4.58l55.08 0z"/>
  </g>
 </g>
</svg>
