<?xml version="1.0" encoding="UTF-8"?>
<!DOCTYPE svg PUBLIC "-//W3C//DTD SVG 1.1//EN" "http://www.w3.org/Graphics/SVG/1.1/DTD/svg11.dtd">
<!-- Creator: CorelDRAW 2019 -->
<svg xmlns="http://www.w3.org/2000/svg" xml:space="preserve" width="300px" height="300px" version="1.1" fill="#0039a6"
     style="shape-rendering:geometricPrecision; text-rendering:geometricPrecision; image-rendering:optimizeQuality; fill-rule:evenodd; clip-rule:evenodd"
     viewBox="0 0 300 300"
>
 <g id="Слой_x0020_1">
  <metadata id="CorelCorpID_0Corel-Layer"/>
  <g id="_1166314440">
   <path d="M136.08 210.97c0,-20.73 27.26,-18.75 27.26,-1.16 0,7.85 -5.96,13.21 -12.9,13.79 -6.9,0.58 -14.36,-5.97 -14.36,-12.63zm4.64 -59.72l0 -10.44 18.56 0 0.02 15.06c-1.88,4.21 -5.27,7.74 -9.3,9.87 -2.81,-1.48 -4.79,-2.81 -6.63,-5.54 -4.65,-6.91 -2.65,-5.29 -2.65,-8.95zm-51.02 -28.41c3.15,-2.12 12.07,-8.35 16.23,-8.7 0.41,1.74 2.59,5.21 3.59,6.85l19.79 34.14c4.49,8.08 3.94,6.68 8.51,13.51 -3,0.25 -7.35,1.84 -9.67,3.08 -3.11,1.66 -5.02,3.81 -7.72,5.62 -0.6,-1.25 -0.82,-2.24 -1.53,-3.69 -0.7,-1.43 -1.24,-2.18 -1.92,-3.3l-27.28 -47.51zm118.28 -88.14l47.37 27.43c2.77,1.55 14.55,8.67 16.42,9.1 -0.21,2.53 -2.95,6.02 -4.06,8.12l-15.99 -8.94c-12.56,-7.38 -35.35,-21.01 -47.8,-27.59l4.06 -8.12zm11.02 -14.49c1.15,0 57.48,32.24 59.32,34.04 2.99,2.93 0.38,6.31 -1.34,8.86 -2.13,-0.49 -5.81,-3.05 -7.93,-4.24 -9.77,-5.45 -48.14,-27.13 -55.85,-32.29 0.55,-2.34 3.11,-6.37 5.8,-6.37zm-195.98 42.9c-5.75,-8.57 -2.89,-8.27 10.98,-16.26 2.53,-1.46 5.06,-2.92 7.68,-4.51l23.2 -13.33c2.09,-1.25 14.66,-8.8 16.12,-8.8 2.69,0 5.25,4.03 5.8,6.37l-63.78 36.53zm-12.18 -6.96c0,7.05 4.02,12.43 7.43,18.09 3.07,5.11 18.67,34.44 21.84,36.19 4.57,2.55 6.68,-1.69 6.68,-5.57 0,-1.7 -8.35,-13.42 -9.28,-17.39 13.42,-7.1 36.23,-20.47 50.48,-28.96 1.96,-1.16 5.77,-2.98 5.77,-5.83 0,-3.64 -3.44,-5.83 -6.45,-4.77 -1.13,0.39 -2.5,1.35 -3.79,2.06l-27.56 15.93c-3.37,2.02 -20.55,12.62 -23.67,13.45 -1.1,-2.1 -3.84,-5.59 -4.05,-8.12 2.31,-0.54 58.52,-33.01 63.78,-36.53 1.43,2.71 2.75,5.02 4.39,7.79 3.45,5.83 30.32,51.45 30.98,54.25 -20.38,4.75 -39.55,12.65 -54.36,27.41 -0.62,0.62 -0.82,0.8 -1.49,1.41 -2.68,2.42 -5.09,6.8 -8.51,7.71 -0.75,-3.17 -8.08,-15.65 -10.44,-15.65 -11.91,0 -1.63,13.44 1.12,18.01 1.28,2.11 2.32,4.06 3.62,6.24 2.99,4.99 6.26,8.13 10.84,1.76 1.45,-2.01 2.73,-3.32 4.13,-5.14 1.81,-2.34 6.9,-7.68 9.28,-9.28 2.24,1.64 13.57,22.29 13.92,23.78 -2.1,3.13 -12.76,11.31 -12.76,14.49 0,4.03 7.74,9.02 9.86,12.18 -1.36,2.57 -4.36,8.82 -4.64,12.18 -4.8,0 -16.82,-2.12 -16.82,4.64 0,6.66 9.57,4.63 20.3,4.63 5.36,0 6.1,-10.23 9.27,-16.24 0.68,-1.3 2.9,-4.37 2.9,-5.79 0,-3.97 -7.22,-8.53 -9.27,-11.6 2.45,-1.64 3.87,-4.97 6.95,-5.79 0.55,2.33 1.8,3.87 2.94,5.76 11.94,19.78 10.06,20.64 -1.66,40.15 -3.26,5.42 -6.18,9.1 0.27,12.84 11.89,6.88 6.05,4.7 13.11,14.15 2.42,3.24 10,12.01 14.77,11.5 2.77,-0.3 4.2,-2.84 4.2,-5.55 0,-2.61 -8.39,-6.96 -12.3,-13.2 -0.89,-1.42 -1.51,-2.76 -2.2,-4.18 -0.66,-1.36 -1.15,-3.09 -2.07,-4.31 -1.75,-2.33 -5.28,-3.66 -7.78,-4.98 1.27,-5.45 6.87,-10.28 8.12,-15.65 2.33,0.19 2.9,0.82 4.53,1.84 1.47,0.92 2.71,1.44 4.17,2.21 -0.6,7.17 -3.66,13.84 5.35,23.65 6.55,7.13 18.72,8.98 27.52,4.59 3.43,-1.71 4.48,-3.26 7.14,-5.04 1.49,1 5.74,3.64 7.53,4.06 -0.33,4 -6.68,12.43 -8.69,16.23 -1.93,-1.02 -3.44,-1.83 -5.24,-2.88 -2.89,-1.7 -3.03,-1.56 -6.39,-1.26 -5.88,0.54 -11.57,-0.16 -11.57,5.88 0,5.05 7.29,4.06 10.44,4.06 4.37,0 0.61,-1.51 7.14,2.14 5.2,2.91 8.46,6.25 12.19,-0.2l16.81 -29.01c4.53,-8.06 4.72,-17.16 1.31,-26.03 -6.24,-16.22 -3.44,-17.38 8.47,-37.24 2.12,-3.53 12.64,-19.92 12.64,-23.89 0,-4.47 -5.54,-7.85 -9.89,-0.03l-11.53 19.78c-7.89,13.78 -16.86,23.74 -10.22,40.89 1.62,4.19 3.23,8.72 3.23,13.58 0,5.43 -2.03,6.13 -2.9,9.86 -2.33,-0.19 -2.9,-0.83 -4.53,-1.85 -1.47,-0.92 -2.71,-1.44 -4.17,-2.21 0.59,-7.02 3.7,-13.36 -5.07,-23.34 -1.63,-1.85 -3.9,-3.56 -6.17,-4.84 -6.14,-3.49 -15.7,-3.4 -21.79,-0.21 -2.62,1.36 -4.62,3.62 -6.97,5.2 -1.84,-1.23 -5.22,-3.52 -7.54,-4.06 0.33,-4.03 5.25,-8.21 8.12,-9.85 7.84,-4.49 18.02,-1.25 26.81,-9.14 7.71,-6.91 15.92,-24.32 21.49,-33.59 1.83,-3.05 12.43,-20.27 13.16,-23.38 3.87,0.09 9.19,4.15 12.42,6.13 9.5,5.79 18.33,13.75 24.85,22.7 3.3,4.51 6.98,6.39 10.47,0.36l9.55 -16.55c11.09,-18.44 21.34,-37.33 32.25,-55.88 2.7,-4.6 5.55,-8.94 5.55,-14.75 0,-9.94 -14.87,-15.52 -22.37,-19.96l-36.38 -21.02c-15.15,-9.11 -20.34,-3.41 -28.05,10.43 -3.47,6.25 -18.73,30.06 -18.73,33.45 0,4.45 5.5,9.13 10.64,-0.38 1.49,-2.76 3.05,-5.11 4.44,-7.73l15.91 9.02c2.72,1.65 4.92,2.95 7.68,4.49 3.01,1.68 5.08,3.02 8.1,4.66 10.98,6 21.12,12.55 32.09,18.36 -0.94,4.01 -10.47,19.1 -12.65,22.72 -1.81,2.99 -12.11,19.85 -12.86,23.08 -3.53,-0.94 -9.76,-9.33 -12.93,-12 -9.56,-8.04 -19.68,-14.26 -31.55,-18.9 -6.59,-2.58 -12.62,-3.93 -19.89,-5.63 1.96,-7.32 11.02,-14.83 11.02,-22.61 0,-4.12 -6.62,-4.13 -8.48,-1.52 -3.21,4.48 -15.29,26.31 -15.29,28.77 0,2.13 2.52,3.54 4.19,3.92l14.6 2.8c2.75,0.69 4.29,1.41 6.72,1.98 -0.52,2.25 -15.46,28 -16.81,28.99 0,-4.46 -0.2,-7.54 -4.64,-7.54l-27.84 0c-4.44,0 -4.63,3.08 -4.63,7.54 -1.44,-1.05 -16.31,-26.82 -16.82,-28.99l13.27 -3.54c4.33,-0.87 12.24,-0.02 12.24,-6.32 0,-2.28 -37.25,-65.87 -39.89,-70.27 -3.03,-5.04 -6.28,-13.38 -11.22,-16.61 -9.95,-6.5 -19.79,2.03 -28.29,6.89 -2.84,1.63 -5.9,3.52 -8.76,5.16 -7.57,4.36 -30.82,17.01 -36.28,21.13 -2.22,1.67 -4.86,5.96 -4.86,9.63z"/>
   <path d="M196.39 178.5c0,2.02 3.46,7.09 5.39,12 4.59,11.67 -0.76,10.61 17.8,10.61l0 18.56c-18.31,0 -13.36,-0.9 -17.64,10.2l-5.55 11.83c0,3.97 7.22,8.53 9.27,11.6l-13.2 12.89c-0.97,-1.41 -8.22,-9.41 -10.57,-9.41 -2.02,0 -7.09,3.46 -12,5.39 -11.67,4.59 -10.61,-0.76 -10.61,17.8l-18.56 0c0,-18.3 0.9,-13.36 -10.19,-17.63 -2.29,-0.89 -4.16,-1.66 -6.05,-2.65 -1.3,-0.68 -4.37,-2.91 -5.79,-2.91 -3.97,0 -8.53,7.22 -11.6,9.28l-12.89 -13.2c1.41,-0.98 9.41,-8.23 9.41,-10.58 0,-2.02 -3.46,-7.08 -5.39,-12 -4.59,-11.66 0.76,-10.61 -17.8,-10.61 0,-4.47 1.07,-10.44 -4.64,-10.44 -6.18,0 -4.64,7.36 -4.64,15.08 0,6.37 8.43,4.64 16.82,4.64 0.28,3.35 3.28,9.61 4.64,12.17 -2.09,3.12 -9.86,8.22 -9.86,12.18 0,2.27 3.63,5.08 5.07,6.52 18.31,18.31 17.6,21.59 25.52,13.63 2.01,-2.02 3.66,-4.13 5.94,-5.65 2.4,1.27 9.1,4.38 12.18,4.64 0,8.57 -1.67,16.81 4.63,16.81l27.84 0c6.37,0 4.64,-8.43 4.64,-16.81 3.35,-0.28 9.6,-3.29 12.17,-4.64 3.16,2.11 5.85,6.25 8.85,8.56 4.47,3.43 7.79,-1.72 10.43,-4.36 18.62,-18.62 20.72,-17.3 13.05,-24.93 -2.02,-2.01 -4.13,-3.67 -5.66,-5.95 1.36,-2.56 4.36,-8.82 4.64,-12.17 8.58,0 16.82,1.66 16.82,-4.64l0 -27.83c0,-6.38 -8.43,-4.64 -16.82,-4.64 -0.28,-3.36 -3.28,-9.61 -4.64,-12.18 2.09,-3.12 9.86,-8.22 9.86,-12.18 0,-2.02 -2.62,-4.63 -4.64,-4.63 -3.52,0 -16.23,13.65 -16.23,15.65z"/>
   <path d="M76.36 89.21c0,-5.74 8.7,-5.74 8.7,0 0,2.48 -1.79,4.63 -4.06,4.63 -2.8,0 -4.64,-1.83 -4.64,-4.63zm-9.86 0c0,6.79 6.03,13.91 12.76,13.91l2.9 0c9.46,0 17.91,-14 8.87,-23.36 -9.36,-9.7 -24.53,-2.4 -24.53,9.45z"/>
   <path d="M214.94 89.21c0,-5.74 8.7,-5.74 8.7,0 0,2.48 -1.79,4.63 -4.06,4.63 -2.8,0 -4.64,-1.83 -4.64,-4.63zm-9.86 0c0,6.79 6.03,13.91 12.76,13.91l2.9 0c9.46,0 17.91,-14 8.87,-23.36 -9.36,-9.7 -24.53,-2.4 -24.53,9.45z"/>
  </g>
 </g>
</svg>
