<svg height='300px' width='300px' fill="#0039a6" xmlns="http://www.w3.org/2000/svg" viewBox="0 0 76 41" x="0px" y="0px">
    <path fill="#0039a6" fill-rule="evenodd"
          d="M652.521148,201.122104 C652.660104,201.04631 652.922109,200.909082 653.301099,200.71921 C653.92684,200.405717 654.657374,200.057206 655.486646,199.682472 C657.849928,198.614545 660.535013,197.547624 663.493616,196.552206 C671.94901,193.707401 680.912864,192 690,192 C699.087136,192 708.05099,193.707401 716.506384,196.552206 C719.464987,197.547624 722.150072,198.614545 724.513354,199.682472 C725.342626,200.057206 726.07316,200.405717 726.698901,200.71921 C727.077891,200.909082 727.339896,201.04631 727.478852,201.122104 C727.873481,201.337356 728.075985,201.789472 727.973841,202.22723 L720.973841,232.22723 C720.868237,232.679819 720.464746,233 720,233 L660,233 C659.535254,233 659.131763,232.679819 659.026159,232.22723 L652.026159,202.22723 C651.924015,201.789472 652.126519,201.337356 652.521148,201.122104 Z M711.381966,231 L706.381966,221 L691,221 C690.447715,221 690,220.552285 690,220 C690,219.447715 690.447715,219 691,219 L707,219 C707.378772,219 707.725035,219.214002 707.894427,219.552786 L713.618034,231 L719.206472,231 L725.849338,202.530573 C725.200766,202.205611 724.494288,201.868575 723.689771,201.505028 C721.385085,200.46358 718.761576,199.421126 715.868616,198.447794 C707.60526,195.667599 698.850364,194 690,194 C681.149636,194 672.39474,195.667599 664.131384,198.447794 C661.238424,199.421126 658.614915,200.46358 656.310229,201.505028 C655.505712,201.868575 654.799234,202.205611 654.196948,202.507353 C654.186513,202.51258 656.385374,212.010129 660.793528,231 L686.381966,231 L681.381966,221 L666,221 C665.447715,221 665,220.552285 665,220 C665,219.447715 665.447715,219 666,219 L682,219 C682.378772,219 682.725035,219.214002 682.894427,219.552786 L688.618034,231 L711.381966,231 Z"
          transform="translate(-652 -192)"></path>
</svg>